<svg id="Layer_1" data-name="Layer 1" xmlns="http://www.w3.org/2000/svg" viewBox="0 0 302.55 367.62"><defs><style>.cls-1{fill:#5bbf4a;}.cls-2{fill:#58bb48;}.cls-3{fill:#242743;}.cls-4{fill:#252843;}.cls-5{fill:#252844;}.cls-6{fill:#5fc050;}.cls-7{fill:#60c151;}.cls-8{fill:#f0f8ef;}.cls-9{fill:#aac1ab;}.cls-10{fill:#fbfdfa;}.cls-11{fill:#e1efe1;}.cls-12{fill:#f5faf4;}.cls-13{fill:#757280;}.cls-14{fill:#62c153;}.cls-15{fill:#5bc04b;}.cls-16{fill:#5abc4a;}.cls-17{fill:#63c153;}.cls-18{fill:#e0e0e2;}.cls-19{fill:#00002f;}.cls-20{fill:#000002;}.cls-21{fill:#221543;}.cls-22{fill:#a2a3a8;}.cls-23{fill:#63c353;}.cls-24{fill:#73c368;}.cls-25{fill:#6ec760;}.cls-26{fill:#040404;}.cls-27{fill:#292c48;}.cls-28{fill:#dddde0;}.cls-29{fill:#090917;}.cls-30{fill:#cbcbce;}.cls-31{fill:#1f1f2f;}.cls-32{fill:#212234;}.cls-33{fill:#d6dbd8;}.cls-34{fill:#c1c9c4;}.cls-35{fill:#dadadd;}.cls-36{fill:#2e3048;}.cls-37{fill:#030309;}.cls-38{fill:#1d1f32;}.cls-39{fill:#c3c3c8;}.cls-40{fill:#1f2139;}.cls-41{fill:#b9b9be;}.cls-42{fill:#32344a;}.cls-43{fill:#13141e;}.cls-44{fill:#090a1c;}.cls-45{fill:#64cb53;}.cls-46{fill:#040407;}.cls-47{fill:#68c45a;}.cls-48{fill:#04040b;}.cls-49{fill:#040405;}.cls-50{fill:#0b0c13;}.cls-51{fill:#60cd4e;}.cls-52{fill:#77d767;}.cls-53{fill:#353643;}.cls-54{fill:#2f3149;}.cls-55{fill:#030313;}.cls-56{fill:#03030a;}.cls-57{fill:#04040f;}.cls-58{fill:#030310;}.cls-59{fill:#161726;}.cls-60{fill:#010116;}.cls-61{fill:#040408;}.cls-62{fill:#030312;}.cls-63{fill:#03030f;}.cls-64{fill:#31324a;}.cls-65{fill:#1d203d;}.cls-66{fill:#c5c6ca;}.cls-67{fill:#c7c9cb;}.cls-68{fill:#cbe3c9;}.cls-69{fill:#02022d;}.cls-70{fill:#30314a;}.cls-71{fill:#000005;}.cls-72{fill:#68c453;}.cls-73{fill:#231b43;}.cls-74{fill:#161939;}.cls-75{fill:#31314a;}.cls-76{fill:#b0b1b7;}.cls-77{fill:#0d0d0f;}.cls-78{fill:#33354b;}.cls-79{fill:#bfbfc4;}.cls-80{fill:#b5b5ba;}.cls-81{fill:#c4c5c9;}.cls-82{fill:#b7b8bc;}.cls-83{fill:#dfdfe2;}.cls-84{fill:#0f1023;}.cls-85{fill:#00000a;}.cls-86{fill:#bfc0c4;}.cls-87{fill:#212442;}.cls-88{fill:#2b2d46;}.cls-89{fill:#2c2e47;}.cls-90{fill:#16182b;}.cls-91{fill:#31334a;}.cls-92{fill:#2f3249;}.cls-93{fill:#33354c;}.cls-94{fill:#0a0b22;}.cls-95{fill:#00000f;}.cls-96{fill:#303249;}.cls-97{fill:#00000b;}.cls-98{fill:#34364c;}.cls-99{fill:#000008;}.cls-100{fill:#121439;}.cls-101{fill:#000003;}.cls-102{fill:#9a9ba2;}.cls-103{fill:#32344b;}.cls-104{fill:#303349;}.cls-105{fill:#171739;}.cls-106{fill:#e8e8ea;}.cls-107{fill:#d5d5d8;}.cls-108{fill:#222238;}.cls-109{fill:#dbdbde;}.cls-110{fill:#000032;}.cls-111{fill:#9e9fa5;}.cls-112{fill:#777881;}.cls-113{fill:#c2c2c6;}.cls-114{fill:#eeeef0;}.cls-115{fill:#626471;}.cls-116{fill:#bdbec2;}.cls-117{fill:#a0a0a6;}.cls-118{fill:#a2a3aa;}.cls-119{fill:#eaebed;}.cls-120{fill:#eaeaec;}.cls-121{fill:#000013;}.cls-122{fill:#cfcfd3;}.cls-123{fill:#bdbdc2;}.cls-124{fill:#191d3f;}.cls-125{fill:#03031a;}.cls-126{fill:#030304;}.cls-127{fill:#000001;}.cls-128{fill:#000004;}.cls-129{fill:#2c2f47;}.cls-130{fill:#111123;}.cls-131{fill:#090b37;}.cls-132{fill:#d6d6d9;}.cls-133{fill:#dfdfe1;}.cls-134{fill:#000007;}.cls-135{fill:#000009;}.cls-136{fill:#010214;}.cls-137{fill:#171838;}.cls-138{fill:#909098;}.cls-139{fill:#f0f0f2;}.cls-140{fill:#ebebed;}.cls-141{fill:#f3faf3;}.cls-142{fill:#ecf7eb;}.cls-143{fill:#4eb83c;}.cls-144{fill:#eef7ed;}.cls-145{fill:#c7e8c2;}.cls-146{fill:#e6f5e4;}.cls-147{fill:#5dc24d;}.cls-148{fill:#bae3b4;}.cls-149{fill:#bababf;}.cls-150{fill:#e2e2e5;}.cls-151{fill:#e1e1e3;}.cls-152{fill:#141425;}.cls-153{fill:#00000e;}.cls-154{fill:#b2b3b8;}.cls-155{fill:#dadadc;}.cls-156{fill:#e3e3e5;}.cls-157{fill:#e1e2e4;}.cls-158{fill:#000035;}.cls-159{fill:#a4a5ab;}.cls-160{fill:#00001d;}.cls-161{fill:#b3b3b8;}.cls-162{fill:#383a4e;}.cls-163{fill:#b1b2b7;}.cls-164{fill:#00000d;}.cls-165{fill:#31344a;}.cls-166{fill:#32334a;}.cls-167{fill:#0b0b1b;}.cls-168{fill:#30324a;}.cls-169{fill:#000537;}.cls-170{fill:#797a83;}.cls-171{fill:#2d3048;}.cls-172{fill:#191b2e;}.cls-173{fill:#03030c;}.cls-174{fill:#01012d;}.cls-175{fill:#d4d4d7;}.cls-176{fill:#e6e6e8;}.cls-177{fill:#c1c1c6;}.cls-178{fill:#0b0c1e;}.cls-179{fill:#0b0d1d;}.cls-180{fill:#dddddf;}.cls-181{fill:#f0f1f2;}.cls-182{fill:#9fa0a6;}.cls-183{fill:#d4d5d8;}.cls-184{fill:#96969e;}.cls-185{fill:#ececee;}.cls-186{fill:#f2f2f3;}.cls-187{fill:#e6e6e9;}.cls-188{fill:#e7e7e9;}.cls-189{fill:#636471;}.cls-190{fill:#8b8c94;}.cls-191{fill:#acadb2;}</style></defs><path class="cls-1" d="M909.86,735c-.22-3.91,1.27-5.66,5.51-5.35s3.6,2.7,3.22,5.35Z" transform="translate(-743.44 -367.38)"/><path class="cls-2" d="M924.22,492.11c-.12,7.23-.13,14.46-.4,21.69-.08,2.06,1.29,4.75-1.73,6-8.63-3.65-14.27-11.29-21.84-16.38-3.15-2.11-6-4.48-10.16-3a21.27,21.27,0,0,1-3.71.61,47,47,0,0,1-10.2-.33c-4.64-1.2-4.17-5.82-6-8.92a16,16,0,0,1-.63-2.45,89.36,89.36,0,0,1-.32-10.09c0-.85,0-1.69,0-2.54s0-1.71,0-2.56c0-1.3,0-2.59,0-3.89-.06-.89-.07-1.78-.06-2.67,0-3.2-.12-6.45,2.26-9.05v-30c-5,6-9,10.71-12.81,15.62-2.22,2.88-3.75,3.2-6.89.73-15.85-12.47-15.94-12.35-2.84-27.35s26-29.89,39-44.78c6.26-7.13,14.39-7.29,20.67-.33,16.2,17.94,32.21,36.06,48.54,53.89,3.38,3.69,3.55,5.81-.64,8.74-5.22,3.66-9.84,10.65-15.13,11.08-5.63.45-8.62-8.24-13.23-12.46-1-.92-1.57-2.46-4.29-2.2,0,3.81.46,7.82-.09,11.67-1.36,9.37.79,15.59,11.79,15.13-1.41,2.53-4,2.24-6.28,2.64-2.78,0-3.32,1.86-3.27,4.16,0,2,.07,4,.1,6,.06,1.33.07,2.65.09,4,.05.94.05,1.87,0,2.81C925.85,482.69,927.25,487.71,924.22,492.11Z" transform="translate(-743.44 -367.38)"/><path class="cls-3" d="M887.55,499.06l2.57-.06c13.13,3.25,20.71,14.19,30.47,22.11.64.52,1,1.33,2,1.26l8.49,9.31c.78,5.45-4.08,2.71-6,4.18a4.09,4.09,0,0,1,1,3.6,7,7,0,0,1-4.15,3.83c-1.77.13-3.07-.82-4.32-1.9a12.74,12.74,0,0,0-5.39-3c-15.24-.36-30.45-.67-45.66.2-1.66.67-3.37,1.2-5.08,1.73a7.2,7.2,0,0,1-5-.26,7.05,7.05,0,0,1-1.75-1.65c-3.08-3.82-7-2-10.72-1.58a8.33,8.33,0,0,1-3.55,0,18,18,0,0,1-3.18-1.46c-2.88-1.53-5.88-1.05-8.88-.5a11.27,11.27,0,0,1-2.39.12c-4-.72-8.19-.34-11.8-2.66-2.55-1.73-5.46-1.21-8.28-1.28-3,0-6.06,0-9.09,0a20.51,20.51,0,0,1-6.28-.83c-3-1.48-5.64-3.85-9.31-3.56a10.47,10.47,0,0,1-2.07-.38,22.55,22.55,0,0,1-2.71-1.2c-.55-.24-1.1-.53-1.63-.82s-1.06-.47-1.61-.68-1.1-.29-1.65-.45a6.88,6.88,0,0,1-1.59-.58,11.91,11.91,0,0,0-2.31-.94,13.43,13.43,0,0,1-1.67-.37,6.81,6.81,0,0,1-1.62-.69,14.65,14.65,0,0,1-2.09-1.76c-.7-.65-1.35-1.34-2-2a20.71,20.71,0,0,1-1.92-2.35c-.45-.56-.86-1.14-1.28-1.71-1.84-2.41-4.17-4.36-6.08-6.7-2.22-2.55-4.16-5.18-2.26-8.79,5.8-14.62,19.11-18.71,32.27-23a31.86,31.86,0,0,0,3-1.38c2.12-1.47,4.92-.46,7-1.91,7.08-3.88,15.44-3.38,22.69-6.67a8.45,8.45,0,0,0,1.79,1.28,5.07,5.07,0,0,0,2.94,0,1.71,1.71,0,0,0,.11-1.67,6.67,6.67,0,0,1,5.66-1.33,7.59,7.59,0,0,0,1.84,1.28c1.66.24,3.32.68,4.9-.17a6.16,6.16,0,0,0-.17-1.54c2.29-1.54,4.83-1.67,7.46-1.34a9.78,9.78,0,0,0,3.15,1.39c3.51.44,7,.14,10.54.23,1.11-.14,2.25.29,3.32-.26a5.59,5.59,0,0,1-2.38.09,3.68,3.68,0,0,1-2.92-1.9c6.94-2.92,14.31-.18,21.36-1.6q-.06,5.4-.13,10.8a4.34,4.34,0,0,1-3.32,1c-3.46-.56-6.91-1.24-10.4-1,.25,1.18.72,2.31.38,3.53a5,5,0,0,1-3.27,2.55l-1.09.05a4.59,4.59,0,0,1-2-.86,12.69,12.69,0,0,0-3.05-2.75,3.86,3.86,0,0,0-3.61.32c-.68,1.15-.91,2.6-2.27,3.26-2.19.86-4.34.16-6.49-.13a39.3,39.3,0,0,0-10.64,2.46c-1.34.58-2.67,1.21-4,1.86-3,1.39-5.93,3-8.9,4.44a16,16,0,0,1-2.09.79c-1.42.44-2.83.91-4.21,1.46a7.37,7.37,0,0,0-5.27,5.3c-1.15,3-.69,6-.54,9.09,3.12,11.67,13.83,14,22.9,17.2,6.58,2.29,13.84,3.45,20.85,4.88,3.59,2.61,7.27.13,10.9.2s7.55-.79,10.79,1.87c1.2,4.55,4.3,3.76,7.48,2.63a3.81,3.81,0,0,0,.62-1.81,11,11,0,0,0-2.55-5.39,8.42,8.42,0,0,0-2.22-1.85c-.61-.22-1.21-.47-1.82-.71a10.22,10.22,0,0,1-1.82-.89,12.35,12.35,0,0,1-2.41-2,8.68,8.68,0,0,1-1.71-2.86,6.17,6.17,0,0,1,.05-3.46,4.32,4.32,0,0,1,1.52-1.81c1.89-1.33,4.41-.28,6.22-1.71a6.94,6.94,0,0,1-.13-1.87,3.7,3.7,0,0,1,2.19-2,8.24,8.24,0,0,1,3.27-.27,9.2,9.2,0,0,1,2.2.61c1,.47,2,1,2.94,1.52a9.92,9.92,0,0,0,4.67.78,1.55,1.55,0,0,0,.42-1.52c-.13-1.15,1.11-.82-.06-.83C885.17,500,886.44,499.63,887.55,499.06Z" transform="translate(-743.44 -367.38)"/><path class="cls-3" d="M765.41,520.05l.84-.18a14.13,14.13,0,0,1,1.36,1.19,13.37,13.37,0,0,0,1.41,1.1,11.71,11.71,0,0,0,1.57.82,13.9,13.9,0,0,0,2.62.71c.94.25,1.81.71,2.73,1s2.07-.16,3,.55l-.17-.13c2.66,2.31,6.15,2.86,9.22,4.29,2.35,1,4.49,2.53,6.88,3.51,2.49,2,5.77,1,8.47,2.21.51,2.32,1.66,3.15,3.82,1.61,3.63.77,7.09,3.2,11,1,.47-.6,1-1.17,1.47-1.74a5,5,0,0,1,1.89-1.28,4.47,4.47,0,0,1,4.93,2.31c1.14,4.65,3.93,1,6,1.13a6.4,6.4,0,0,1,3.42,0,3.59,3.59,0,0,1,1.59,1.52c.19.33.36.66.56,1,2.72,2.79,5.85,1.16,8.85.8a9.28,9.28,0,0,1,2.47-.07,21.44,21.44,0,0,1,4.69,1.66,52.75,52.75,0,0,0,19.92-.11c1.59-.58,3.17-1.19,4.81-1.65a8.15,8.15,0,0,1,4.93.3c4.13,3,8.62,2.77,13.23,1.45a15.94,15.94,0,0,1,5.77-1.29,23.37,23.37,0,0,1,4.57,1.3c4.14,1.41,8.39.87,12.62.65a9.05,9.05,0,0,0,2.13-.77,7.14,7.14,0,0,1,3.9-4l1-.41a4.19,4.19,0,0,1,1.83,1.07,10.06,10.06,0,0,0,3.52,2.48c4.2,1.07,5.86,3.76,5.71,8.06a65.43,65.43,0,0,0,.24,11.79c-.56-7.19,0-14.42-.81-21.61,1-1.72,2-3.18,3.8-.71-.08,7.51-.62,15.05-.11,22.52.45,6.57-1.33,9.86-8.35,8.76a2.62,2.62,0,0,1-2.61,0,39.66,39.66,0,0,0-4.11-1.12c-23.22-.25-46.43-.56-69.63.18-1.39.43-2.79.83-4.16,1.3-2.32.11-4.7.85-6.9-.59l-5.54-1.55a5.57,5.57,0,0,1,1-1.41c-2.06-1.2-4.16-.4-6.22-.36a12.54,12.54,0,0,0-3.07,1.3,7.11,7.11,0,0,1-5.79-1.21,2,2,0,0,0-.27-1.73,6.9,6.9,0,0,0-4,.08,4,4,0,0,1-2.15.17,15.79,15.79,0,0,1-1.93-1.07,9.21,9.21,0,0,0-7.53-.5c-2.3.5-3.58-1.1-5-2.43-7.19,3.59-12.9-1.56-18.83-3.71-9.56-3.47-19-7.52-27.15-13.95-4.29-3.39-9.13-6.81-10.45-12.13-1.07-4.32-3.67-8-4.29-12.31a9.08,9.08,0,0,0,1.38-2.83c.5-2.08.81-4.31,3.41-4.93,1.75-.12,3.18,1,4.83,1.23,1,0,1.91,0,2.85.16a4.64,4.64,0,0,1,1.72.67c.35.47.69,1,1,1.46a5.65,5.65,0,0,0,1.22,1.22,8.65,8.65,0,0,1,1.36,1,3.38,3.38,0,0,0,2.11,1.34Z" transform="translate(-743.44 -367.38)"/><path class="cls-2" d="M923.81,576,924,644a1.48,1.48,0,0,1-2.06.12c-3.61-2.31-7.72-1.14-11.58-1.65-2.73,2.38-1,4.72,1.19,4.52,4.69-.43,4.84,3.88,7.31,5.63l-.13-.08c2.1,1.88,2.88,3.72-.13,5.48l-1.87,1.8c-1.76,2.66.44,6.57-2.76,8.77a3.17,3.17,0,0,1-2.17.6c-5.18-3.28.32-7.51-1-11.13-.18-1.58-1.25-2.2-2.67-2.42a8.22,8.22,0,0,0-2.8,0c-1.32,1.13-1,3.07-2.09,4.29a3.54,3.54,0,0,1-2.07.59c-3.21-.49-4.84-3.46-7.48-4.75-.45-.29-.93-.57-1.43-.83.11,1.41,1.67,1,2.29,1.87,1.47,1.28,2.78,2.69,4.23,4,1.73,2.11,4.49,4.22,2.6,7.17-1.59,2.48-4.45,1.47-6.87.73-.76-.26-1.49-.57-2.23-.88-5.74-1.17-13,.23-13.19-9.37-.05-2.6-4.19-2.42-6.2-3.92q0-39.36.07-78.72a4.57,4.57,0,0,1,2.54-.92c10.07.27,20.16,1.27,30.2-.44C912.06,571,918,572.27,923.81,576Z" transform="translate(-743.44 -367.38)"/><path class="cls-3" d="M981.82,467.44c4.26-5.16,7.1,1,10.2,1.84,13.57,3.75,27,8.18,38.24,17.45,2.51,2.06,3.81,4.4,5.49,6.77,2.72,2.88,1.6,6.84,2.82,10.14a16.05,16.05,0,0,1,1.13,2.08,5.36,5.36,0,0,1-1.29,4.37c-2.23,2.55-4.75,4.86-6.61,7.74a8.4,8.4,0,0,1-1.67,1.59,28.24,28.24,0,0,1-6.3,3l-1.17.13a6.18,6.18,0,0,1-2.25-.68c-3.47-2.28-7.66-1.18-11.37-2.33-3.19-1.08-6.61-.63-9.84-1.45a13.2,13.2,0,0,1-3.54-1.62c-2.76-2.23-8.3-1.74-7.43-7.54,1.2-2.1,4.31-3.14,3.46-6.35a21.86,21.86,0,0,1-4-7.08l-1.53-2.71a11.22,11.22,0,0,1-.77-1.69,5.19,5.19,0,0,0-1.3-2.12,6.22,6.22,0,0,0-1.55-.6,12.7,12.7,0,0,1-1.73-.38,7.79,7.79,0,0,1-1.7-.73c-.82-.52-1.58-1.09-2.36-1.64s-1.72-1-2.6-1.48-1.88-.92-2.79-1.45a14.84,14.84,0,0,1-1.79-1.22,9,9,0,0,0-8.12-2,8,8,0,0,1-4.56-.65c-3.27-2.2-6.75-3.56-10.78-2.78a9.77,9.77,0,0,1-5.66-.44c-1.5-.77-1.25-2.29-1.52-3.56-1.43-.81-2.64-.11-3.87.46a14.37,14.37,0,0,1-3.16,1.46c-2.09.33-4,.2-5.06-2,1.72-3.32-3.42-6-.85-9.43,5.07-3.91,11.14-.81,16.53-2.39a2.38,2.38,0,0,1,2.5.26,2,2,0,0,1,1.64.35,7,7,0,0,0,1.79,1.27,25.66,25.66,0,0,0,7,.14c.7-.17,1.43-.33,2.15-.48a7.69,7.69,0,0,1,2.9,1.31c2.28,1.41,4.68,1.2,7.12.47a3.77,3.77,0,0,1,2.2.24C973.2,467,978.89,462.78,981.82,467.44Z" transform="translate(-743.44 -367.38)"/><path class="cls-3" d="M1006,551.21a7.13,7.13,0,0,1-5.65-1.29,1.81,1.81,0,0,0,0-1.59,6,6,0,0,0-3.53-.23c-.67.18-1.33.33-2,.45a12.2,12.2,0,0,1-3.95-1.57c-2-1.16-4.15-.84-6.28-.57a17.35,17.35,0,0,0-3,1.21c-1.39.09-3,.63-3.4-1.5a12.21,12.21,0,0,0,1.4-3.64c.69-6.14-.69-12.37.85-18.47,1.83-2.81,5.19-2.3,7.73-3.54,1.32-.84,2.37-2,3.66-2.9a4.19,4.19,0,0,1,3.31-.11,3.42,3.42,0,0,1,1.48,2.67,3.88,3.88,0,0,0,.71,2.55,4.73,4.73,0,0,0,3.58-.24,18.64,18.64,0,0,0,2.59-1.7,6.93,6.93,0,0,1,2.89-1.45,4.33,4.33,0,0,1,2.91,1.2l.61.83a3.8,3.8,0,0,1,.18,1.86,1.8,1.8,0,0,0,0,1.6c1.73.29,3.26-.55,4.91-.73a6.76,6.76,0,0,1,2.49.25,3.85,3.85,0,0,1,1.91,1.8,9.82,9.82,0,0,1,.84,2.68c.22,7.24.82,14.49-.38,21.7a8.39,8.39,0,0,1-1.6,2.47,6.68,6.68,0,0,1-5.75-1.25,1.83,1.83,0,0,0-.06-1.66,5.9,5.9,0,0,0-3.67-.08A11.92,11.92,0,0,0,1006,551.21Z" transform="translate(-743.44 -367.38)"/><path class="cls-4" d="M979.48,499.08c-2.42-1.64-6-.5-7.91-3.38-3.39.93-6.36-1.75-9.7-1.14a8.27,8.27,0,0,1-3.26-1.22c-2.22-1.8-4.77-1.45-7.31-1.1a11.79,11.79,0,0,0-2.91,1.27,19.21,19.21,0,0,1-9.09-1.33,9.37,9.37,0,0,0,.58-1.49c-3.43-1-6.76-.47-10.08.34a3.66,3.66,0,0,1-3.48-1.45,14.05,14.05,0,0,1,.14-9.55c2.78-3.08,6.61-2.35,10.1-2.81a20.19,20.19,0,0,0,11.7-.3c2.85-.37,5.17,1.38,7.8,1.93,3.28,1.42,7,.63,10.26,2.14a16.23,16.23,0,0,1,2,.73c.92.38,1.76,1,2.67,1.37l1.85.4a9.79,9.79,0,0,1,1.71.71c.78.47,1.62.84,2.45,1.25a7.46,7.46,0,0,1,1.5,1.07,9.17,9.17,0,0,0,1.37,1.27l.8.54a12.47,12.47,0,0,1,2,2.16c.69.77,1.42,1.51,2.15,2.26l.67.89c.09.37.17.73.26,1.1a5.92,5.92,0,0,1-.56,2.23C983.86,499.18,982.29,500.84,979.48,499.08Z" transform="translate(-743.44 -367.38)"/><path class="cls-5" d="M1046,521.64c-1.54,9.71-6.2,18-12,25.66-1.24,1.64-2.78,2.9-5.09,2.45-4.75-.22-4-4.08-4.2-6.87a108,108,0,0,1,.18-17.8c.45-3.47,3.58-4.78,5.65-7l0,0c2.63-2.51,5.12-5.16,7.81-7.6a5.08,5.08,0,0,1,3.21-1.68c2.42.54,2.86,2.68,3.65,4.54C1045.67,516.13,1044.44,519,1046,521.64Z" transform="translate(-743.44 -367.38)"/><path class="cls-6" d="M904.31,689.47c-.66-3.76.88-5.93,5.64-5.41,4.13.45,5-6.24,10.08-4.65,2.64.82,6-.31,6,4.15,0,3.34.27,6.54-4.68,6.14-2.21-.18-4.65-.48-5,3.07-.6,6.15-6.36,4.43-9.38,4.54C903.83,697.42,904.39,692.93,904.31,689.47Z" transform="translate(-743.44 -367.38)"/><path class="cls-7" d="M902.86,680.34c-.1,7.83-7,9.6-12,12.52-2.32,1.35-6.77,1.15-9.16-.24-2.93-1.71-1.61-5.9-1.08-8.87.66-3.63,4.15-2.09,6.51-2.53,1.12-.21,2.23-.48,3.35-.73,3.17-4.18,7.43-4.8,12.2-3.74A2.42,2.42,0,0,1,902.86,680.34Z" transform="translate(-743.44 -367.38)"/><path class="cls-8" d="M903,677.68c-4.18.82-8.58.64-12.45,2.81q-2.57-2.46-5.11-4.94c-2-2.43-3.91-4.85-6.67-6.44l-.06-2.77c5.18-.6,10.35-1,15.44.59l-.09-.06c1.51,3.25,5.72,1.8,7.61,4.38a9.74,9.74,0,0,1,2,4.22A3.44,3.44,0,0,1,903,677.68Z" transform="translate(-743.44 -367.38)"/><path class="cls-9" d="M922.6,522.37c-6.76-.8-9.83-6.84-14.68-10.35-6-4.31-11.87-8.67-17.8-13,4-3.81,7.1-.55,9.84,1.67,7.58,6.15,15.87,11.49,22.13,19.17Z" transform="translate(-743.44 -367.38)"/><path class="cls-10" d="M869.43,578.23V654h-.87V577.89Z" transform="translate(-743.44 -367.38)"/><path class="cls-11" d="M923.81,576c-5.87.36-11.71-3.57-17.61-.15-1.83,1.47-3.82.94-5.8.48-9-1.72-18.44,1.75-27.27-2.22,0-.48,0-1,0-1.42,2.56-3.14,6.19-2.61,9.57-2.65,10-.13,20.09,0,30.14-.06,3.84.34,8-.81,11.13,2.68Z" transform="translate(-743.44 -367.38)"/><path class="cls-12" d="M903.52,675.79c-1.72-.63-2.27-2-2.39-3.71.6-4,1.49-8-2.28-11.1.36-1.44,1.14-2.17,2.69-1.6a7.3,7.3,0,0,0,.94.06,9.17,9.17,0,0,1,2.48-1,4.9,4.9,0,0,1,3.67,1.18c2.56,2.49-1.22,7.08,3,9a1.69,1.69,0,0,0,1.66.08c.5.12.75.34.74.68s-.08.59-.21.59l-2.18,1.76C909.54,674.37,906.6,675.22,903.52,675.79Z" transform="translate(-743.44 -367.38)"/><path class="cls-13" d="M913.15,572.25l-40,.4-6.62-.48a1.51,1.51,0,0,1,.53-2.48c4-1.39,8.15-.52,12.22-.77,11.06.39,22.14-.85,33.17.73A1.67,1.67,0,0,1,913.15,572.25Z" transform="translate(-743.44 -367.38)"/><path class="cls-14" d="M894.1,666.93l-15.44-.59c2.42-6.06-3.69-7.93-5.77-11.79,3.86-2.57,6.81-.14,7.24,2.93,1,7.17,5.07,8.44,11.14,7.79C892.15,665.18,893.16,666.35,894.1,666.93Z" transform="translate(-743.44 -367.38)"/><path class="cls-15" d="M900,717.2c3-.21,5.15.29,5.12,4,0,3.17-.24,5.7-4.43,5.59-2.88-.08-5.05-.36-4.92-4.1C895.88,719.64,895.69,716.71,900,717.2Z" transform="translate(-743.44 -367.38)"/><path class="cls-16" d="M916.22,703.39c2.66-.25,4.56.37,4.37,3.63-.13,2.33.19,4.73-3.3,4.88-3.12.14-5-.72-5-4.23C912.3,704.92,913.08,703.14,916.22,703.39Z" transform="translate(-743.44 -367.38)"/><path class="cls-17" d="M903.52,675.79c1.32-4.14,4.7-4.11,8.11-4,3.48,4.41,2.71,7-3.15,7.53-1.89.17-3.75.68-5.62,1l.09-2.66Z" transform="translate(-743.44 -367.38)"/><path class="cls-18" d="M1025.29,553.12l-1.8.09c-4.87-8.07-1.24-17-2.6-25.44a12.94,12.94,0,0,1-.12-2.85,4.49,4.49,0,0,1,2.69-3.1l-.08-.17c2.3-.29,2.56,1.24,2.62,2.94C1025.58,534.1,1026.94,543.64,1025.29,553.12Z" transform="translate(-743.44 -367.38)"/><path class="cls-19" d="M1025.29,553.12l0-29.42c.29-.86.8-1.05,1.55-.49,1.18,8.81-2.27,18,2,26.54C1028.36,551.6,1027.57,553.15,1025.29,553.12Z" transform="translate(-743.44 -367.38)"/><path class="cls-20" d="M1018.26,526.85a10.7,10.7,0,0,1,.1-1.39c1-1.13,2.12-1.32,3.31-.24l-.19.13c1.87,9.26,1.44,18.52.16,27.8l-3.34-.2a8.54,8.54,0,0,0,0-1.34A75.09,75.09,0,0,0,1018.26,526.85Z" transform="translate(-743.44 -367.38)"/><path class="cls-21" d="M927.34,479.73q0,5.28,0,10.56c.62.35.82.69.6,1s-.42.49-.64.49l-3.08.32q.06-7.86.1-15.71a3,3,0,0,1,3.31,1.1A1.86,1.86,0,0,1,927.34,479.73Z" transform="translate(-743.44 -367.38)"/><path class="cls-22" d="M1021.64,553.15l-.16-27.8c4.17,9,.81,18.61,2,27.86Z" transform="translate(-743.44 -367.38)"/><path class="cls-23" d="M918.85,652.65c-3.62-.8-6-3.86-9.48-5.14-3.13-1.13-2.94-4,1-5-.51,1.88-.33,3.69,2.08,3.37C917.91,645.15,918.07,649.12,918.85,652.65Z" transform="translate(-743.44 -367.38)"/><path class="cls-24" d="M873.13,574.07c9.37,1.16,19-1.76,28.22,1.68a78.18,78.18,0,0,1-26.43.16l-2-.08C873,575.24,873.07,574.66,873.13,574.07Z" transform="translate(-743.44 -367.38)"/><path class="cls-25" d="M878.72,669.11c5.9-1.67,7.85.76,6.67,6.44C880.1,676.58,877.65,674.68,878.72,669.11Z" transform="translate(-743.44 -367.38)"/><path class="cls-26" d="M979.88,544.31l-1.68,1.81c-1.15-9.32-.73-18.65-.23-28a1.87,1.87,0,0,1,2.66.88C980.45,527.45,981.21,535.91,979.88,544.31Z" transform="translate(-743.44 -367.38)"/><path class="cls-27" d="M979.48,499.08c3,.18,3.88-2.92,6.17-3.83,4.09,1.17,4.86,3.64,2.79,7.2C983,507.92,981.73,502.16,979.48,499.08Z" transform="translate(-743.44 -367.38)"/><path class="cls-28" d="M941.08,539.66c-1.28-.08-2.55-.1-3.3,1.23l-1,1c-3.86,1.33-7.22,1.11-9.36-3l.29.1c1.74-6.18,6.69-2,10-3.11C939.93,535.71,939.93,535.71,941.08,539.66Z" transform="translate(-743.44 -367.38)"/><path class="cls-29" d="M994.56,518.09l-2.43.16a4.83,4.83,0,0,1-3.81,1.1c-2.56-.85-5.57-1.18-5.75-4.85l1.77-.18c4.37-2.1,8.6-.45,12.86.48l1.82,1.81a1.55,1.55,0,0,1-.65,2.27A3.89,3.89,0,0,1,994.56,518.09Z" transform="translate(-743.44 -367.38)"/><path class="cls-30" d="M748.76,497.16c-.36,3.88,3.58,5.64,4.38,8.94a2.9,2.9,0,0,1,0,2.11,4.55,4.55,0,0,1-2.62,1.93,3.36,3.36,0,0,1-2.09-.71,8.62,8.62,0,0,1-1.3-1.86c-1.48-2,.19-4.53-1.26-6.5C745.83,499,747.37,498.16,748.76,497.16Z" transform="translate(-743.44 -367.38)"/><path class="cls-31" d="M819,563.66l0,1.76c.61.33.81.67.62,1s-.39.54-.59.54c-5.3-.14-10.78.22-14.32-5l5.74,1.52C813.32,562.53,816.17,562.28,819,563.66Z" transform="translate(-743.44 -367.38)"/><path class="cls-32" d="M981.82,467.44c-3.38-4.13-10.1,3.16-12.66-3.73l0-1.13C973.44,464.08,979.17,461.76,981.82,467.44Z" transform="translate(-743.44 -367.38)"/><path class="cls-33" d="M866,571c.15.41.32.82.51,1.22-7.13,0-14.38,1.74-21.29-1.48l7.09-.31C856.94,568.88,861.57,567.43,866,571Z" transform="translate(-743.44 -367.38)"/><path class="cls-34" d="M913.15,572.25c.14-.42.27-.84.38-1.26,5.58-3.8,11.37-2.16,17.16-.68l1.93.63c-2.56,2.26-5.81.94-8.66,1.68Z" transform="translate(-743.44 -367.38)"/><path class="cls-35" d="M982.57,514.5c.74,3.39,5.2.65,6.13,3.72,0,3.44-2.44,3-4.65,3-1.85-.32-3-1.7-4.4-2.79a3.24,3.24,0,0,0-1.68-.31C978.84,516.09,980.1,514.52,982.57,514.5Z" transform="translate(-743.44 -367.38)"/><path class="cls-36" d="M997.2,514.8l-12.86-.48c0-2.74,1.79-4.17,3.89-5.39C989.26,513.87,994.94,511.72,997.2,514.8Z" transform="translate(-743.44 -367.38)"/><path class="cls-37" d="M945,460.37l-2.07.25c-5.19.3-10.69,3.17-15.22-1.88l7.79-.39C938.64,459.3,942.44,457,945,460.37Z" transform="translate(-743.44 -367.38)"/><path class="cls-38" d="M960.18,493.63c3.93-.08,7.86-.09,11.39,2.07-5.39,2.78-10.13-.29-15.06-1.66C957.59,492.65,958.85,492.81,960.18,493.63Z" transform="translate(-743.44 -367.38)"/><path class="cls-39" d="M988.44,502.45c-.11-2.72.32-5.65-2.79-7.2a2.18,2.18,0,0,1-.15-1.66,1.85,1.85,0,0,1,2.86.17,10.66,10.66,0,0,1,3.33,8.82Z" transform="translate(-743.44 -367.38)"/><path class="cls-40" d="M1038.89,506a12.6,12.6,0,0,1-1.62-.11c-1-4-1.31-8,.15-11.91,4.72.44,2.83,4.28,3.49,6.8C1039.1,502,1041.12,504.82,1038.89,506Z" transform="translate(-743.44 -367.38)"/><path class="cls-41" d="M1038.89,506l2-5.22c.52,1.14,1,2.28,1.58,3.42,2,2.25.48,3.76-1.09,5.27l-2.54,1.72c-1.28.21-2-.06-1.43-1.57Z" transform="translate(-743.44 -367.38)"/><path class="cls-42" d="M924,535.82c-.82-.42-3.74-.56-.58-1.73,2.48-.93,5.82.76,7.68-2.41,1.88-.39,3.32-.14,3.24,2.27C931.7,539.09,927.59,536.05,924,535.82Z" transform="translate(-743.44 -367.38)"/><path class="cls-43" d="M924,535.82c3.38-1,7.35,1.3,10.34-1.87l3.42,1.93c-2.73,3-7.31.07-10,3.11H925.8Z" transform="translate(-743.44 -367.38)"/><path class="cls-44" d="M981.6,547.62l1.81-1.63a11.38,11.38,0,0,1,8.49.11l3.62,1.95c.39.33.52.65.37,1s-.27.47-.41.47Z" transform="translate(-743.44 -367.38)"/><path class="cls-45" d="M921.93,644.15,924,644c2.78.31,3.19,1.83,1.87,4-.87,1.43-2.48,1.36-3.71.86C918.94,647.58,922,645.75,921.93,644.15Z" transform="translate(-743.44 -367.38)"/><path class="cls-46" d="M850,460.21l3.19.54c1.29,2.25-.56,2.06-1.82,2.34-3.77-.31-7.62.77-11.31-.69l-1.77-1.74Z" transform="translate(-743.44 -367.38)"/><path class="cls-47" d="M895.65,699.23a2.44,2.44,0,0,1-2.64,2.64,2.66,2.66,0,0,1,0-5.31A2.47,2.47,0,0,1,895.65,699.23Z" transform="translate(-743.44 -367.38)"/><path class="cls-48" d="M969.19,462.58a3.64,3.64,0,0,0,0,1.14l-1.73.4c-2.91.93-5.81,1.54-8.61-.33L957,462c-.4-.3-.52-.6-.37-.87s.28-.42.42-.42Z" transform="translate(-743.44 -367.38)"/><path class="cls-49" d="M927.29,491.79c0-.5,0-1,0-1.5l3.62-.22c3.49-1.31,7.1-.66,10.65-.47,1.31.07,1.58,1.19.52,2.24l-2.82.34Z" transform="translate(-743.44 -367.38)"/><path class="cls-50" d="M1041.4,509.43q.54-2.64,1.09-5.27c3.72,1.95,2.4,5.76,3.23,8.78l-.72,0Z" transform="translate(-743.44 -367.38)"/><path class="cls-51" d="M905.44,709.44a2.36,2.36,0,0,1-2.39,2.06c-1.85-.09-2.29-1.51-2-3.07.26-1.4,1.35-1.69,2.62-1.45A2,2,0,0,1,905.44,709.44Z" transform="translate(-743.44 -367.38)"/><path class="cls-23" d="M913.81,670a7.41,7.41,0,0,1-.53-1.27q1.71-4.46,3.44-8.9C916.37,663.41,919.09,667.86,913.81,670Z" transform="translate(-743.44 -367.38)"/><path class="cls-52" d="M920.21,668.92c1.73-.18,2.85.8,2.85,2.29,0,.76-1.17,1.89-2,2.19-1.7.59-2.66-.62-2.72-2.19A2,2,0,0,1,920.21,668.92Z" transform="translate(-743.44 -367.38)"/><path class="cls-26" d="M745.76,518.12,744,519.88c-.59-4-.91-8.07.08-12.09a1.61,1.61,0,0,1,2.41.59C747.86,511.75,746.4,514.9,745.76,518.12Z" transform="translate(-743.44 -367.38)"/><path class="cls-53" d="M745.76,507.68c-.56.06-1.12.09-1.68.11l1.74-6.72c2.25,1.65,1.9,4.43,2.87,6.64A1.76,1.76,0,0,1,745.76,507.68Z" transform="translate(-743.44 -367.38)"/><path class="cls-54" d="M1037.42,493.94l-.15,11.92c-3.15-3.8-1-8.24-1.52-12.36C1036.31,493.63,1036.87,493.78,1037.42,493.94Z" transform="translate(-743.44 -367.38)"/><path class="cls-55" d="M960.18,493.63l-3.67.41-8.12-.53,1.77-1.68a11.08,11.08,0,0,1,8.57.11Z" transform="translate(-743.44 -367.38)"/><path class="cls-37" d="M842.54,568.77l-2.87.37-8.3-.48,1.72-1.61C836.39,566.78,840.16,564,842.54,568.77Z" transform="translate(-743.44 -367.38)"/><path class="cls-56" d="M957,460.72c0,.43,0,.86,0,1.29l0,.38c-3.48,1.05-7,1.3-10.4-.18a10.62,10.62,0,0,1,.07-1.49C950.13,460.23,953.58,459.67,957,460.72Z" transform="translate(-743.44 -367.38)"/><path class="cls-57" d="M819,567q0-.78,0-1.56l1.86-.15c2.88-1,5.76-1.29,8.59.19l-3.88,2Z" transform="translate(-743.44 -367.38)"/><path class="cls-58" d="M1006,551.21l1.79-1.68c2.89-1,5.77-1.3,8.6.21l-3.87,2Z" transform="translate(-743.44 -367.38)"/><path class="cls-59" d="M791.11,470.84c-1.74,2.87-4.59,1.64-7,1.91C785.89,470.16,788.31,469.8,791.11,470.84Z" transform="translate(-743.44 -367.38)"/><path class="cls-60" d="M1045,513l.72,0,.27,8.7C1043.33,519,1044.45,516,1045,513Z" transform="translate(-743.44 -367.38)"/><path class="cls-61" d="M824.26,464.05c0-.54,0-1.08,0-1.62l6.57-.43a1,1,0,0,0,1.18.41C830.45,467.66,827,464,824.26,464.05Z" transform="translate(-743.44 -367.38)"/><path class="cls-62" d="M995.48,549.49c0-.48,0-1,0-1.44v-.3c2.91-.91,5.82-1.28,8.67.23l-3.82,1.94Z" transform="translate(-743.44 -367.38)"/><path class="cls-23" d="M918.59,658.05c1.2-1.8.88-3.63.13-5.48,2.46-.19,3.47,1,3.25,3.4C921.77,658.24,920.46,658.56,918.59,658.05Z" transform="translate(-743.44 -367.38)"/><path class="cls-63" d="M818.64,463.76l3.84,1.89c-2.86,1.6-5.77,1.24-8.7.21a11.9,11.9,0,0,1,0-1.69Z" transform="translate(-743.44 -367.38)"/><path class="cls-64" d="M927.74,458.74c4.68,3.83,10.21.72,15.22,1.87-5.24,4-12.13-.51-17.37,3.41-.48.83-1,.83-1.42,0C924,461.33,923.12,458.18,927.74,458.74Z" transform="translate(-743.44 -367.38)"/><path class="cls-65" d="M853.61,474.83l4.33-2.33a5.08,5.08,0,0,1,2.45-.51c3.64.68,7.64-.36,10.9,2.21l.09,2.13c-2,1.93-4.64,2-7.2,2.3-2.1.3-4.19.83-6.33.36C855.81,478.24,853.77,477.49,853.61,474.83Z" transform="translate(-743.44 -367.38)"/><path class="cls-66" d="M871.29,474.2c-4.11-.79-8.64,2-12.43-1.51,3.36-6.5,8.23-2.23,12.56-1.76Z" transform="translate(-743.44 -367.38)"/><path class="cls-67" d="M927.06,471.14a8.08,8.08,0,0,0,5.64,1.26c2-.85,3.52-.4,4.19,1.85a3.57,3.57,0,0,1-.76,2.52c-2,1.4-4.19,1.22-6.42.82a40.67,40.67,0,0,1-5.61-3.06c0-1.1,0-2.19,0-3.29C925,469.91,926,470.2,927.06,471.14Z" transform="translate(-743.44 -367.38)"/><path class="cls-68" d="M887.55,499.06l-2.24,3.34c-2.74,2.72-5.61,1.45-8.49.3l-2.24-.42c-.61-1.27-.84-2.42.94-2.91Z" transform="translate(-743.44 -367.38)"/><path class="cls-69" d="M871.22,490.27a1.81,1.81,0,0,1,.08,1.39l-.95,1.16c-4.2,2.23-8.76,1.41-13.21,1.55-2.78-.61-6.39.16-6.95-4.16,4.81-3.87,10.45-1.83,15.76-2.22a7.15,7.15,0,0,1,5.27,2.28Z" transform="translate(-743.44 -367.38)"/><path class="cls-70" d="M927.06,471.14l-3,.1.09-7.23h1.42C924.58,466.7,934.07,467.21,927.06,471.14Z" transform="translate(-743.44 -367.38)"/><path class="cls-71" d="M871.42,470.93c-4.15.8-8.73-1.39-12.56,1.76l-.92-.19c-.73-1.07-1.46-2.14-2.2-3.2,4-1.54,8-1.15,12.07-.2l3.46.31A3.58,3.58,0,0,1,871.42,470.93Z" transform="translate(-743.44 -367.38)"/><path class="cls-72" d="M875.52,499.37c-.31,1-.62,1.94-.94,2.91l-2.52.22c-3.8-3.21-3.29-6.73-.75-10.4v-.44C874.57,493.21,873,497.44,875.52,499.37Z" transform="translate(-743.44 -367.38)"/><path class="cls-73" d="M871.22,490.27l-1.55-.14c-2.88-3.61-2.73-7.48-1-11.48a1.72,1.72,0,0,1,2.55-.62Z" transform="translate(-743.44 -367.38)"/><path class="cls-74" d="M924.1,474.53c1.82.16,3.82-.18,5,1.8a1.42,1.42,0,0,1,.6,1.23c0,.48-.12.71-.24.71a1.43,1.43,0,0,1-2-.16l-3.16-1.71Z" transform="translate(-743.44 -367.38)"/><path class="cls-75" d="M871.26,478c-.52,0-1,0-1.58,0-2.71,1.48-5.43,3-6.75-1.56l8.45-.13A3.42,3.42,0,0,1,871.26,478Z" transform="translate(-743.44 -367.38)"/><path class="cls-76" d="M843.46,523.46c2.32-.66,5.21.91,7-1.79,2.5-2.29,5.47-2.26,8.53-1.79,2.8.57,5.52,1.91,8.5,1a10.8,10.8,0,0,0,2.51-1.49,3.43,3.43,0,0,1,1.76-.75c2.55,2.14,4.64,4.55,4.85,8.08-2.34,2.67-5.33,1.86-8.23,1.52a3.76,3.76,0,0,1-1.83-1.67c-5.67-1-11.29-2.18-17,0C846.7,527.67,844.41,526.58,843.46,523.46Z" transform="translate(-743.44 -367.38)"/><path class="cls-77" d="M914.91,537.22c2.34.24,3.76,1.34,3.64,3.89-.47.26-.93.52-1.38.79-16.8-.6-33.6-.64-50.41-.39-2.2-.19-4.3-.57-5.69-2.55l3.56-1.74A403.59,403.59,0,0,1,914.91,537.22Z" transform="translate(-743.44 -367.38)"/><path class="cls-78" d="M914.91,537.22H864.63c13.34-3.37,26.9-.76,40.33-1.43C908.25,535.62,911.94,534.46,914.91,537.22Z" transform="translate(-743.44 -367.38)"/><path class="cls-79" d="M836.79,472.86c2,2,4.33,1.7,6.73,1.11,3.24-4,6.06-3.18,8.59.76l-.2-.14c.63,3.5-2.38,3-4.18,3.84-3.43.44-6.73,1.94-10.3,1.34a6.69,6.69,0,0,1-2.43-.94,4,4,0,0,1-1.24-2.21C833.77,474.56,835.2,473.65,836.79,472.86Z" transform="translate(-743.44 -367.38)"/><path class="cls-80" d="M834.85,477l-.18.17c1.73,3.3-1.28,3.53-3,4.63-2.91.78-5.44,3.14-8.79,2.19a4.59,4.59,0,0,1-2.14-5.63l3.33-2.07C827.65,477.2,831.49,473.45,834.85,477Z" transform="translate(-743.44 -367.38)"/><path class="cls-81" d="M820.78,478.38c.56,1.54,1.13,3.07,1.69,4.6-2.6,5.29-6.29,5.65-10.78,2.38a1.92,1.92,0,0,1,.21-2.41C814.31,480.35,817.56,479.4,820.78,478.38Z" transform="translate(-743.44 -367.38)"/><path class="cls-82" d="M787.57,530.55c-4.25.33-7-1.87-8.84-5.41,3.74.62,9-3.33,10.69,3.48C789.27,529.71,788.29,530,787.57,530.55Z" transform="translate(-743.44 -367.38)"/><path class="cls-83" d="M787.57,530.55l1.85-1.93,6.69.14c1,.68,2.23,1,2.77,2.28a3.48,3.48,0,0,1-.78,3.43,3.32,3.32,0,0,1-3.49-.32C791.39,534.66,789.38,532.81,787.57,530.55Z" transform="translate(-743.44 -367.38)"/><path class="cls-84" d="M826.42,537.48,821,535.67c-3.81.47-7.44.49-9.43-3.7.54-2.54,1.93-2.84,4-1.51,3.47,3.37,8.83.25,12.31,3.59a2.72,2.72,0,0,1,.52,3.06A1.45,1.45,0,0,1,826.42,537.48Z" transform="translate(-743.44 -367.38)"/><path class="cls-85" d="M827.69,537.41l.12-3.36,0-.25a15.41,15.41,0,0,1,10.4.13L840,536a1.51,1.51,0,0,1-.67,2.22c-3.1.37-6.25,0-9.34.58A4,4,0,0,1,827.69,537.41Z" transform="translate(-743.44 -367.38)"/><path class="cls-86" d="M801.62,500.68l-3.32.15c-1.24-3.21.64-5.9,1.49-8.75a3.75,3.75,0,0,1,3.43-1.26,4.57,4.57,0,0,1,2.14,1.3C806.93,496.2,804.27,498.44,801.62,500.68Z" transform="translate(-743.44 -367.38)"/><path class="cls-87" d="M857.4,509.57c-.47-1.62-3.64-2.07-2.55-3.9,1.27-2.12,4-1.24,6.2-1.23.76.57,1.73.86,2.3,1.7a1.34,1.34,0,0,1-.66,1.58c0,.57,0,1.14,0,1.71a3.67,3.67,0,0,1-3.21,1.27A5.39,5.39,0,0,1,857.4,509.57Z" transform="translate(-743.44 -367.38)"/><path d="M906.5,544.61,903,543c1.53-2.4,4-1.89,6.27-2,3.07-.73,6.1,1.74,9.19.11l.13,0L921.9,543a6.47,6.47,0,0,1,.19,1.31C916.92,546,911.71,545.5,906.5,544.61Z" transform="translate(-743.44 -367.38)"/><path class="cls-88" d="M803.27,492l-3.48.1c-.39-5.07,2-7.44,7-7.12a2.1,2.1,0,0,1,.43,1.62,12.76,12.76,0,0,1-.91,2.46,8.2,8.2,0,0,1-.89,1.51C804.87,491.26,804,491.48,803.27,492Z" transform="translate(-743.44 -367.38)"/><path class="cls-89" d="M852.17,462.43c.36-.56.71-1.12,1.06-1.68,2.71,0,5.65-1.19,8,1.65-2.62,3.18-6.15.86-9.08,1.59-.56-.34-.75-.68-.57-1S852,462.43,852.17,462.43Z" transform="translate(-743.44 -367.38)"/><path class="cls-90" d="M834.85,477c-3.58-.23-7.24.73-10.74-.71l12.68-3.45C836.14,474.24,835.5,475.63,834.85,477Z" transform="translate(-743.44 -367.38)"/><path class="cls-91" d="M843.51,535.52c3.49-2.9,7.58-1.55,11.36-1.28,2.42.18,2.26,2,.42,3.36a4.52,4.52,0,0,1-2.41.59C849.7,537.51,846,538.54,843.51,535.52Z" transform="translate(-743.44 -367.38)"/><path class="cls-92" d="M824.26,464.05c2.57-.72,5.76,1.56,7.8-1.64,1,.27,2.46.22,3,.89,1,1.18-.05,2.18-1.23,2.2C830.6,465.58,827.09,466.93,824.26,464.05Z" transform="translate(-743.44 -367.38)"/><path class="cls-93" d="M876.65,528.66c-3.31,3.31-7.75,2.3-11.13,1.42s-.29-2.48,1-3.45l-.4.18C869.32,529.37,873.43,526.47,876.65,528.66Z" transform="translate(-743.44 -367.38)"/><path class="cls-94" d="M798,530.75c-.65-.66-1.29-1.33-1.93-2l10.57,0a2.92,2.92,0,0,1,.29,3.84C803.41,534.83,800.65,533.15,798,530.75Z" transform="translate(-743.44 -367.38)"/><path class="cls-42" d="M862.69,507.72c0-.55,0-1.1,0-1.64,2.28-2.18,5.44.1,7.82-1.56,1,.26,2.57.18,3,.84.84,1.2-.26,2.09-1.49,2.15C869,507.67,865.82,507.66,862.69,507.72Z" transform="translate(-743.44 -367.38)"/><path class="cls-91" d="M867.81,469.1l-12.07.2C859.71,466.1,863.75,466.88,867.81,469.1Z" transform="translate(-743.44 -367.38)"/><path class="cls-95" d="M852.11,474.73c-2.64-2.78-5.56-2.36-8.59-.76-.6-1-1.19-1.9-1.78-2.85,2.82-1.64,5.7-1.2,8.6-.27C851.94,471.69,852.12,473.16,852.11,474.73Z" transform="translate(-743.44 -367.38)"/><path class="cls-96" d="M806.7,531.75c0-1,0-2,0-3,3,.39,6.34-1.23,8.82,1.73-1.46,0-2.79.26-3.49,1.77a3.7,3.7,0,0,1-3.46,1.1A3,3,0,0,1,806.7,531.75Z" transform="translate(-743.44 -367.38)"/><path class="cls-97" d="M843.51,535.52c3.43.89,7.43-1.39,10.42,1.89-1.7,2-4.06,2.11-6.42,2.24a15,15,0,0,1-5.53-.74,3.92,3.92,0,0,1-2-1.85c0-.36,0-.71,0-1.06Z" transform="translate(-743.44 -367.38)"/><path class="cls-98" d="M852.17,462.43c0,.52,0,1,0,1.56-4-.63-8.41,1.55-12.09-1.59Z" transform="translate(-743.44 -367.38)"/><path class="cls-99" d="M847,476.58c1.48-1,4.19.94,4.91-2a12.2,12.2,0,0,1,1.7.24l3.74,3.07-.8.92a11,11,0,0,1-8.27.47,3.83,3.83,0,0,1-1.74-1.59C846.69,477.33,846.84,477,847,476.58Z" transform="translate(-743.44 -367.38)"/><path class="cls-97" d="M876.82,502.7l8.49-.3,3.55,1.79c-3.42,1.45-6.87,1.2-10.33.18Z" transform="translate(-743.44 -367.38)"/><path class="cls-100" d="M752.51,507.74l.63-1.64c2.54,1.95,5.06,3.91,6.45,6.94a2.67,2.67,0,0,1-2.25.69C754.48,512.74,751.67,511.71,752.51,507.74Z" transform="translate(-743.44 -367.38)"/><path class="cls-35" d="M861.07,539l5,.6c.13,2.38-1.7,2.65-3.35,3.14-2.62.2-5.25.42-7.07-2.09.06-.42.13-.85.2-1.28Z" transform="translate(-743.44 -367.38)"/><path class="cls-101" d="M876.65,528.66c-3.5-.61-7.5,1.67-10.49-1.85l10.46,0Z" transform="translate(-743.44 -367.38)"/><path class="cls-37" d="M870.54,504.52c-2.12,3-5.27.77-7.82,1.56l-1.67-1.64,8.25-.51A1.74,1.74,0,0,0,870.54,504.52Z" transform="translate(-743.44 -367.38)"/><path class="cls-102" d="M846.9,537.75l7-.34a1.26,1.26,0,0,0,1.36.19c.18.58.36,1.16.55,1.73l.24.09c-1,.49-1.27,1.77-2.34,2.18a4.85,4.85,0,0,1-2.21,0C849.84,540.51,846.77,541,846.9,537.75Z" transform="translate(-743.44 -367.38)"/><path class="cls-103" d="M878.53,504.37l10.33-.18C885.46,506.9,882,506.8,878.53,504.37Z" transform="translate(-743.44 -367.38)"/><path class="cls-91" d="M838.19,533.93l-10.4-.13C831.29,531.39,834.76,531.26,838.19,533.93Z" transform="translate(-743.44 -367.38)"/><path class="cls-104" d="M813.78,465.86l8.7-.21C819.64,468.47,816.74,468.25,813.78,465.86Z" transform="translate(-743.44 -367.38)"/><path class="cls-91" d="M850.34,470.85l-8.6.27C844.52,468.33,847.4,468.48,850.34,470.85Z" transform="translate(-743.44 -367.38)"/><path class="cls-105" d="M858.86,509.59l3.84-.16c0,.92-.06,1.83-.08,2.75.17.36.35.72.53,1.08a3.42,3.42,0,0,1-2.31.26A3.62,3.62,0,0,1,858.86,509.59Z" transform="translate(-743.44 -367.38)"/><path class="cls-106" d="M775.27,525.41l-3.19-.72a1.42,1.42,0,0,1-1.07-1.25,1.38,1.38,0,0,1,.81-1.42,1.77,1.77,0,0,1,1.58.21,5.87,5.87,0,0,1,2,1.13l-.13.19c.49.41.65.83.49,1.24S775.44,525.41,775.27,525.41Z" transform="translate(-743.44 -367.38)"/><path class="cls-107" d="M770.14,523.36c-1.42.09-2.59-.26-3.08-1.78a2.43,2.43,0,0,1,1.21-1.35,1.41,1.41,0,0,1,1.91,1.17,1.16,1.16,0,0,1,.45,1.31C770.46,523.14,770.3,523.36,770.14,523.36Z" transform="translate(-743.44 -367.38)"/><path class="cls-108" d="M806.84,485.89a7.23,7.23,0,0,0,0-.93c.89-1.6,2.37-1.68,3.94-1.54.09.33.18.66.28,1l-.24,1a5.78,5.78,0,0,1-1.4,1.52,3.44,3.44,0,0,1-2,.45c-.54-.17-.81-.46-.79-.84S806.7,485.89,806.84,485.89Z" transform="translate(-743.44 -367.38)"/><path class="cls-109" d="M775.27,525.41v-1.86c1.5,0,3-.09,3.62,1.72C777.65,524.15,776.57,527.52,775.27,525.41Z" transform="translate(-743.44 -367.38)"/><path class="cls-107" d="M763.12,519.81l-1.83-1.39a1.39,1.39,0,0,1-.62-1.62l.72-.66,1.84,1.59A1.61,1.61,0,0,1,763.12,519.81Z" transform="translate(-743.44 -367.38)"/><path class="cls-110" d="M871.77,518.69a2.46,2.46,0,0,0-.35,1.59c-1.45.39-2.16-.37-2.58-1.61a2.75,2.75,0,0,1,.78-2.11Z" transform="translate(-743.44 -367.38)"/><path d="M869.62,516.56l0,1.74a1.43,1.43,0,0,1-1.72-.08,1.46,1.46,0,0,1-.11-1.73Z" transform="translate(-743.44 -367.38)"/><path class="cls-111" d="M864.52,514.28l1.79,1.86-.65.78-1,0-.69-.76c0-.34,0-.68-.05-1Z" transform="translate(-743.44 -367.38)"/><path class="cls-112" d="M862.62,512.18l1.9,2.1-.23.82a1.72,1.72,0,0,1-1.68-.36,1.26,1.26,0,0,1,.06-1.63l-.38-.44Z" transform="translate(-743.44 -367.38)"/><path class="cls-113" d="M810.27,485.07a3.94,3.94,0,0,0,.48-1.65,2.7,2.7,0,0,0,1.15-.47,13.74,13.74,0,0,1,.12,1.7A1.24,1.24,0,0,1,810.27,485.07Z" transform="translate(-743.44 -367.38)"/><path class="cls-114" d="M763.12,519.81c0-.69.07-1.38.11-2.08l2.18,2.32Z" transform="translate(-743.44 -367.38)"/><path class="cls-115" d="M757.68,513.12l1.91-.08a5.25,5.25,0,0,0,.07,1.25c-.1.32-.2.64-.31,1a1.16,1.16,0,0,1-1.61-.57l.13.14c-.56-.32-.77-.68-.64-1.07S757.52,513.12,757.68,513.12Z" transform="translate(-743.44 -367.38)"/><path class="cls-116" d="M867.81,516.49c.07.5.12,1,.17,1.51l-.68.67-.95-.08-.61-.73c.09-.31.19-.61.28-.92l.29-.8A3.4,3.4,0,0,0,867.81,516.49Z" transform="translate(-743.44 -367.38)"/><path class="cls-117" d="M759.66,514.29l1.73,1.85a.82.82,0,0,1-.06.84l-1.26.16-.93-.85.39-1.21Z" transform="translate(-743.44 -367.38)"/><path class="cls-118" d="M775.41,523.36l-2-1.13Z" transform="translate(-743.44 -367.38)"/><path class="cls-119" d="M770.14,523.36c0-.66,0-1.31,0-2l1.64.62a8.46,8.46,0,0,0,.08.88,1.19,1.19,0,0,1-1.88.63Z" transform="translate(-743.44 -367.38)"/><path class="cls-120" d="M768.27,520.23l-1.21,1.35-.81-1.71Z" transform="translate(-743.44 -367.38)"/><path class="cls-103" d="M854,568.69c1.56-1.74,3.65-1.52,5.68-1.53h63.71c2,0,4.11-.22,5.66,1.55-13.22,2.34-26.55.42-39.82,1-3.48.16-7,0-10.46,0C870.52,569.12,862.16,571.11,854,568.69Z" transform="translate(-743.44 -367.38)"/><path class="cls-121" d="M878.39,569.09l50.65-.37,1.65,1.59-17.16.68-35.13-.64c-.57-.28-.75-.56-.57-.84S878.2,569.09,878.39,569.09Z" transform="translate(-743.44 -367.38)"/><path class="cls-122" d="M909.79,542.36,903,543c-1.85,0-3.15,2.3-5.24,1.24-4.71-.12-9.55,1.27-14.05-1.23h-5.38c-3,.31-6.3,2.66-8.93-1a2.56,2.56,0,0,1,2.58-1.89c11.93-.09,23.86-.13,35.79,0A1.94,1.94,0,0,1,909.79,542.36Z" transform="translate(-743.44 -367.38)"/><path class="cls-103" d="M937.84,567.14c-3.48-4-1.84-8.84-1.58-13.14.37-5.93-1.34-9.62-7.14-11.14a9.53,9.53,0,0,1,9.19,0C938.61,551,939.41,559.08,937.84,567.14Z" transform="translate(-743.44 -367.38)"/><path class="cls-123" d="M808.38,532.53l3.63-.3c2.48,2.49,6.72.34,9,3.44-.1.56-.18,1.12-.24,1.69-1.86,2.18-4.37,1.74-6.78,1.68a8.59,8.59,0,0,1-2.29-.54,27.16,27.16,0,0,0-6.51-2.2,2.43,2.43,0,0,1-.74-2C805.3,532.71,807.18,533.4,808.38,532.53Z" transform="translate(-743.44 -367.38)"/><path class="cls-124" d="M883.67,543c4.7.24,9.59-1.78,14.05,1.23C892.79,546.62,887.88,548.81,883.67,543Z" transform="translate(-743.44 -367.38)"/><path class="cls-125" d="M937.84,567.14q0-12.21,0-24.43c-.61-.39-.81-.77-.59-1.14s.43-.54.64-.54l-.07-.14A48.17,48.17,0,0,1,937.84,567.14Z" transform="translate(-743.44 -367.38)"/><path class="cls-126" d="M878.39,569.09c0,.42,0,.84,0,1.26L866,571l-13.69-.57L854,568.7Z" transform="translate(-743.44 -367.38)"/><path class="cls-127" d="M869.74,542.38l8.55.62-3.51,1.61c-6.63,1.42-13.33.42-20,.55a1.93,1.93,0,0,1-1.23-2.43c2.81-1.8,5.93-.51,8.89-.89C864.86,542.16,867.42,540.69,869.74,542.38Z" transform="translate(-743.44 -367.38)"/><path class="cls-103" d="M854.08,544.36l20.7.25a33.61,33.61,0,0,1-22.5,0A1.07,1.07,0,0,1,854.08,544.36Z" transform="translate(-743.44 -367.38)"/><path class="cls-128" d="M827.69,537.41l2,.11c.7,1.24,2.71.3,3.19,1.92-1.72.79-3.47,1.52-5.15,2.38-1.43.75-2.92.73-3.63-.63-1.14-2.17,2.11-2.08,2.28-3.71Z" transform="translate(-743.44 -367.38)"/><path class="cls-42" d="M842.54,568.77c-2.67-3.24-6.36-.82-9.45-1.72,3.43-3,7.47-1.33,11.26-1.37,1.12,0,2.23,1,1.21,2.19C845,568.54,843.58,568.5,842.54,568.77Z" transform="translate(-743.44 -367.38)"/><path class="cls-42" d="M745.76,507.68l2.93,0,.45,1.68a2.48,2.48,0,0,1,0,3.58c-1.14,1.71-2.27,3.43-3.41,5.15Z" transform="translate(-743.44 -367.38)"/><path class="cls-42" d="M906.5,544.61l15.59-.27C916.94,547.39,911.74,547,906.5,544.61Z" transform="translate(-743.44 -367.38)"/><path class="cls-129" d="M820.75,539.19c-5.09,3.48-9.63,2-13.94-1.55,1.68-1.56,3.47-1.27,5.28-.26h0C814.63,539.68,818.18,537.06,820.75,539.19Z" transform="translate(-743.44 -367.38)"/><path class="cls-130" d="M804.56,534.23a12.09,12.09,0,0,0,.74,1.32c-.37.67-.84.75-1.4.23-3.11-.43-7,3.77-9.29-1.63l3.42-.55C800.34,532.45,802.55,532.34,804.56,534.23Z" transform="translate(-743.44 -367.38)"/><path class="cls-96" d="M846.93,542.86c-2.86,2.7-6.37,1.6-9.57,1.31-2.37-.21-2.47-1.8-.54-3.25C840.42,540.34,844,539.75,846.93,542.86Z" transform="translate(-743.44 -367.38)"/><path class="cls-131" d="M749.17,513l0-3.58a13,13,0,0,0,1.63.31c2.07.94,4.19,1.85,3.7,4.77C751.44,518.44,751,513.3,749.17,513Z" transform="translate(-743.44 -367.38)"/><path class="cls-132" d="M754.47,514.47l-3.7-4.77,1.74-2c1.72,1.8,3.45,3.59,5.17,5.38.08.56.15,1.13.19,1.7Z" transform="translate(-743.44 -367.38)"/><path class="cls-133" d="M832.91,539.44c-1.11-.57-3.1.34-3.19-1.92l10.24-.46,1.74.65a1.53,1.53,0,0,1-.5,2.24,4.47,4.47,0,0,1-5-.54Z" transform="translate(-743.44 -367.38)"/><path class="cls-134" d="M937.85,541c0,.56,0,1.12-.05,1.68l-8.68.15c-1.48-.93-1.62-2.43-1.68-4C930.48,541.71,934.3,540.69,937.85,541Z" transform="translate(-743.44 -367.38)"/><path class="cls-135" d="M846.93,542.86c-3.32-.93-7.27,1.47-10.11-1.94l-.27-.2c2.53-1.06,5.34-.5,7.92-1.32a14.5,14.5,0,0,1,3.94.93,1.55,1.55,0,0,1,.26,2.33Z" transform="translate(-743.44 -367.38)"/><path class="cls-136" d="M803.9,535.78a4.15,4.15,0,0,0,1.4-.23c2.34.35,5.08-.85,6.79,1.83l-5.28.26C805.44,537.64,802.77,539.69,803.9,535.78Z" transform="translate(-743.44 -367.38)"/><path class="cls-78" d="M829.46,565.46l-8.59-.19C823.79,562.87,826.65,562.79,829.46,565.46Z" transform="translate(-743.44 -367.38)"/><path class="cls-92" d="M819,563.66l-8.54-.16Q814.8,559.86,819,563.66Z" transform="translate(-743.44 -367.38)"/><path class="cls-102" d="M845.27,540.7l-8.72,0a2,2,0,0,0-.31-1.32l5.45-.35C843.54,538.16,845.16,537.79,845.27,540.7Z" transform="translate(-743.44 -367.38)"/><path class="cls-135" d="M820.75,539.19c-2.91-.48-6.29,1.26-8.66-1.81l8.64,0C820.74,538,820.75,538.58,820.75,539.19Z" transform="translate(-743.44 -367.38)"/><path class="cls-137" d="M848.67,542.66a9.15,9.15,0,0,0,0-1.48c1-1.32,2.19-1.17,3.45-.41l2.22-.56a2.16,2.16,0,0,1-.27,2.32c0,.61,0,1.22,0,1.83l-1.8.21Z" transform="translate(-743.44 -367.38)"/><path class="cls-138" d="M759.74,518a1.49,1.49,0,0,1-1.66-1.74,1,1,0,0,1,1.56.24l-.11-.11c.44.31.62.65.53,1S759.87,518,759.74,518Z" transform="translate(-743.44 -367.38)"/><path class="cls-118" d="M770,523.53l1.88-.63.18,1.79Z" transform="translate(-743.44 -367.38)"/><path class="cls-139" d="M759.64,516.53a8.17,8.17,0,0,1-1.56-.24,6.79,6.79,0,0,1-.34-1.61l1.79.4C759.58,515.56,759.62,516,759.64,516.53Z" transform="translate(-743.44 -367.38)"/><path class="cls-140" d="M759.74,518a14.47,14.47,0,0,1-.21-1.61l1.8.56a11.54,11.54,0,0,0,0,1.44A3.94,3.94,0,0,1,759.74,518Z" transform="translate(-743.44 -367.38)"/><path class="cls-141" d="M889.91,622.51c4.22-.43,7.81-1,7.79,5.53,0,6.73-4.09,5.31-8,5.62-4.75.38-7.43-.55-7.39-6.34C882.41,620.93,886.44,622.46,889.91,622.51Z" transform="translate(-743.44 -367.38)"/><path class="cls-142" d="M913.09,620.6c-4,1.12-8.16,4.58-11.68.11-1.21-1.54-1.82-5.44,1.41-6.6C908.54,612.05,910.87,616.26,913.09,620.6Z" transform="translate(-743.44 -367.38)"/><path class="cls-143" d="M874.92,575.91l26.43-.16,4.85.06c-2.79,4-6.93,1.7-10.19,1.62C889,577.27,881.7,579.54,874.92,575.91Z" transform="translate(-743.44 -367.38)"/><path class="cls-14" d="M899.48,661.4c5.8,2.75,2.88,6.85,1.65,10.68-2.32-1.81-7.19-.13-7.12-5.21,2.06,1,5.07,1.68,6.16.3,1.7-2.19-2.1-3.34-2.56-5.43A1.29,1.29,0,0,1,899.48,661.4Z" transform="translate(-743.44 -367.38)"/><path class="cls-23" d="M911.62,668.67c-6.18-.83-1.65-6.08-3.57-8.66a1.7,1.7,0,0,1,.09-2.44,4.24,4.24,0,0,1,5.14.33C912.88,661.51,910,664.74,911.62,668.67Z" transform="translate(-743.44 -367.38)"/><path class="cls-144" d="M904.64,638.57c-.5,3.59-2.19,3.86-4,3.7-1.58-.13-2.77-1-2.53-2.74.3-2.24,2.12-2.38,3.9-2.3S904.73,638,904.64,638.57Z" transform="translate(-743.44 -367.38)"/><path class="cls-14" d="M894,658.09c-.51-.25-1.23-.36-1.49-.77-1.22-1.89-5.89,1.38-4.83-2.33s4.26-2.66,6.53-.1A2.15,2.15,0,0,1,894,658.09Z" transform="translate(-743.44 -367.38)"/><path class="cls-145" d="M894,658.09l.21-3.2c4-1,4.3,3.91,7.3,4.49l-2.06,2-1.87.34Z" transform="translate(-743.44 -367.38)"/><path class="cls-146" d="M913.28,657.9l-5.08,0a2.3,2.3,0,0,1-.27-3.32C911.74,652.43,913.23,654,913.28,657.9Z" transform="translate(-743.44 -367.38)"/><path class="cls-147" d="M907.93,654.54l.27,3.32-.15,2.15-3.37-.24c-1.46-2.2-1.15-4.49-.35-6.81Z" transform="translate(-743.44 -367.38)"/><path class="cls-148" d="M904.33,653c.12,2.27.23,4.54.35,6.81l-2.2-.33C903.61,657.43,899.77,654,904.33,653Z" transform="translate(-743.44 -367.38)"/><path class="cls-149" d="M955.31,479.92c-3.46,4.33-4.2-3.5-7.12-1.6-2.57.4-5.32,1.8-7.3-1.26,1-3,4.22-.67,5.66-2.51,4.18-.91,8.46-2.13,10.63,3.35C957,479,956,479.32,955.31,479.92Z" transform="translate(-743.44 -367.38)"/><path class="cls-135" d="M1009.44,518.51c4.08.75,9.26-3.18,12.1,2.84-3.9,3-7.91,2.95-12,.42a.72.72,0,0,0-.14-.92A1.61,1.61,0,0,1,1009.44,518.51Z" transform="translate(-743.44 -367.38)"/><path class="cls-150" d="M1037.43,509.58c.48.52,1,1,1.43,1.57-1.86,3.46-3.9,6.71-8.4,7C1030.74,513.64,1034.24,511.74,1037.43,509.58Z" transform="translate(-743.44 -367.38)"/><path class="cls-83" d="M955.31,479.92l1.87-2,5,.25c2.31.16,4.74,0,6,2.59a2.44,2.44,0,0,1-.73,2.1Z" transform="translate(-743.44 -367.38)"/><path class="cls-151" d="M1009.54,521.77l12-.42,1.92.47-1.79,3.4-3.31.24-1.73-.36c-2.1-1.57-5.27,1.13-7-1.78A1.39,1.39,0,0,1,1009.54,521.77Z" transform="translate(-743.44 -367.38)"/><path class="cls-135" d="M1009.44,518.51c0,.78,0,1.56,0,2.34l-3.07-1c-2.6,0-5.45.94-7.34-1.88,0-.45,0-.89,0-1.34C1002.53,517,1006.5,515,1009.44,518.51Z" transform="translate(-743.44 -367.38)"/><path class="cls-152" d="M967.52,481.47c-.66-2.87-4.13-1.25-5.3-3.32,4-2.14,7-1.13,8.74,3.12C969.89,482.61,968.73,482.49,967.52,481.47Z" transform="translate(-743.44 -367.38)"/><path class="cls-153" d="M936.11,474.35c-.4-1.93-2.17-1.48-3.41-2l1.73-1.55c2.9-.93,5.78-1.37,8.6.27l-3.52,3C938.47,475.37,937.34,475.55,936.11,474.35Z" transform="translate(-743.44 -367.38)"/><path class="cls-154" d="M1026.89,523.21a10.72,10.72,0,0,1-1.55.49c-.66-.68-1.31-1.36-2-2.05a11.2,11.2,0,0,1,7.12-3.52C1030.39,520.6,1028.29,521.66,1026.89,523.21Z" transform="translate(-743.44 -367.38)"/><path class="cls-96" d="M946.6,462.21l10.4.18C953.49,464.79,950,465,946.6,462.21Z" transform="translate(-743.44 -367.38)"/><path class="cls-155" d="M936.11,474.35l3.39-.26,7,.46c-1.38,2.06-3.72,1.32-5.6,1.92-.92.85-2.07.73-3.18.75a2.12,2.12,0,0,1-1.67-1.3A8.24,8.24,0,0,0,936.11,474.35Z" transform="translate(-743.44 -367.38)"/><path class="cls-96" d="M958.82,463.79l8.61.33C964.47,466.46,961.58,466.75,958.82,463.79Z" transform="translate(-743.44 -367.38)"/><path class="cls-91" d="M943,471.12l-8.6-.27C937.37,468.48,940.25,468.33,943,471.12Z" transform="translate(-743.44 -367.38)"/><path class="cls-156" d="M967.52,481.47l3.44-.2,1.56.75a1.43,1.43,0,0,1,1.1,1.23,1.58,1.58,0,0,1-.85,1.45l-.83.09-.78-.29a6.23,6.23,0,0,1-2-1.19,7.47,7.47,0,0,1-1.66-.47C967.53,482.38,967.53,481.93,967.52,481.47Z" transform="translate(-743.44 -367.38)"/><path class="cls-157" d="M986.71,490.28a5.13,5.13,0,0,0,.21,1.65,2.23,2.23,0,0,1-1.83.88,4.08,4.08,0,0,1-2.05-.51,4.55,4.55,0,0,1-.77-2c0-.36,0-.71,0-1.07s.31-.64.47-1a2.87,2.87,0,0,1,2-.42C985.7,488.42,986,489.51,986.71,490.28Z" transform="translate(-743.44 -367.38)"/><path class="cls-107" d="M976.32,486.46a1.41,1.41,0,0,1-1.9-1.17,2.69,2.69,0,0,1-.65-1.68l.75-.54L978,485l-.24.78A6.79,6.79,0,0,0,976.32,486.46Z" transform="translate(-743.44 -367.38)"/><path class="cls-158" d="M986.71,490.28,985,488.6c-.59-.4-.79-.8-.59-1.2s.41-.59.61-.59C986.51,487.49,986.54,488.92,986.71,490.28Z" transform="translate(-743.44 -367.38)"/><path class="cls-132" d="M984.82,492.05l2.1-.12c1,.21,1.57.74,1.44,1.83l-2.86-.17-.41-.18-.26.36c-.47-.38-.62-.76-.47-1.14S984.66,492.05,984.82,492.05Z" transform="translate(-743.44 -367.38)"/><path class="cls-107" d="M979.83,488.32l-1.91-1.3a1,1,0,0,1-.35-1.49L978,485l1.88,1.18A1.25,1.25,0,0,1,979.83,488.32Z" transform="translate(-743.44 -367.38)"/><path class="cls-159" d="M972.69,483.74a4.36,4.36,0,0,1-.17-1.72l2,1.05-.06.78A5,5,0,0,1,972.69,483.74Z" transform="translate(-743.44 -367.38)"/><path class="cls-160" d="M985,486.81c0,.6,0,1.2,0,1.79a4.47,4.47,0,0,1-1.65-.34c-.44-.28-.62-.59-.53-.94s.21-.56.34-.56Z" transform="translate(-743.44 -367.38)"/><path class="cls-161" d="M983.11,486.76c.07.5.13,1,.19,1.5a.64.64,0,0,1-.07.91l-1.09.15-.93-.58a1.36,1.36,0,0,1,.23-1.89A4.69,4.69,0,0,1,983.11,486.76Z" transform="translate(-743.44 -367.38)"/><path class="cls-114" d="M981.44,486.85v1.79a1.23,1.23,0,0,1-1.8,0l.18-.31c0-.72,0-1.45.07-2.17A2.7,2.7,0,0,1,981.44,486.85Z" transform="translate(-743.44 -367.38)"/><path class="cls-162" d="M979.65,518.45c1.51-.24,2.88-.12,3.71,1.43a4.07,4.07,0,0,1-.69,2.39,5.28,5.28,0,0,1-1.17,1.19c-.86,6.93,1.75,14.12-1.62,20.85Q979.77,531.38,979.65,518.45Z" transform="translate(-743.44 -367.38)"/><path class="cls-98" d="M1018.26,526.85a39.06,39.06,0,0,1,0,24.76Q1018.25,539.24,1018.26,526.85Z" transform="translate(-743.44 -367.38)"/><path class="cls-163" d="M999,518c2.43.7,5.36-.57,7.35,1.88l-2.29,2.17c-2.84,1-5.71,2.43-8.31-.52-.39-1.13-.78-2.26-1.18-3.39Z" transform="translate(-743.44 -367.38)"/><path class="cls-95" d="M981.57,521.55l1.79-1.67c1.9-.17,4.21,1,5.34-1.66l3.43,0-2,3.61C987.23,522.75,984.36,523.28,981.57,521.55Z" transform="translate(-743.44 -367.38)"/><path class="cls-164" d="M1009.61,523.32c2.36.51,5.31-1.3,7,1.78l-2.07.26c-2.89.94-5.77,1.31-8.59-.23Z" transform="translate(-743.44 -367.38)"/><path class="cls-153" d="M995.74,521.48l8.31.52c-.56.53-1.12,1.06-1.69,1.58-2.89,1-5.77,1.3-8.62-.17Z" transform="translate(-743.44 -367.38)"/><path class="cls-96" d="M981.57,521.55l8.54.31c-2.46,2.73-5.72,1.16-8.61,1.6C981.52,522.82,981.54,522.19,981.57,521.55Z" transform="translate(-743.44 -367.38)"/><path class="cls-96" d="M993.74,523.41l8.62.17C999.44,526,996.56,526.08,993.74,523.41Z" transform="translate(-743.44 -367.38)"/><path class="cls-165" d="M1016.41,549.74l-8.6-.2C1010.74,547.14,1013.61,547,1016.41,549.74Z" transform="translate(-743.44 -367.38)"/><path class="cls-91" d="M1004.19,548l-8.67-.22C998.47,545.47,1001.37,545.25,1004.19,548Z" transform="translate(-743.44 -367.38)"/><path class="cls-166" d="M991.9,546.1l-8.5-.11C986.27,543.65,989.1,543.63,991.9,546.1Z" transform="translate(-743.44 -367.38)"/><path class="cls-91" d="M1006,525.13l8.59.23C1011.63,527.72,1008.76,527.85,1006,525.13Z" transform="translate(-743.44 -367.38)"/><path class="cls-103" d="M942.12,491.84c-3.27-3.48-7.54-.59-11.17-1.77,4-3.05,8.63-1.21,13-1.32,1.08,0,2.25,1,1.21,2.2C944.55,491.61,943.15,491.57,942.12,491.84Z" transform="translate(-743.44 -367.38)"/><path class="cls-167" d="M937.79,476.52l3.16,0c2.11,1.83,4.86,1.09,7.24,1.85-3.55,2.27-7.08,3-10.56-.13l-.45-.89Z" transform="translate(-743.44 -367.38)"/><path class="cls-91" d="M927.47,478.11c.55,0,1.1-.08,1.65-.14a10.56,10.56,0,0,1,8.7,0l-.19.25c-3.07,2.9-6.86,1-10.29,1.54A8,8,0,0,1,927.47,478.11Z" transform="translate(-743.44 -367.38)"/><path class="cls-168" d="M958.73,491.94l-8.57-.11C953.05,489.44,955.9,489.41,958.73,491.94Z" transform="translate(-743.44 -367.38)"/><path class="cls-169" d="M983.19,490.38c0,.46.1.92.13,1.39a1.17,1.17,0,0,1,.43,1.31c-.17.42-.33.63-.49.63-1.38-.53-1.7-1.65-1.64-3,.17-.43.35-.86.53-1.29Z" transform="translate(-743.44 -367.38)"/><path class="cls-170" d="M979.65,488.63h1.8l-.09-.15c.49.29.68.61.56,1s-.26.55-.41.55l.33.32-.22.41Z" transform="translate(-743.44 -367.38)"/><path d="M983.26,493.71l.06-1.94c.5.11,1,.2,1.5.28a2.6,2.6,0,0,1,0,1.72Z" transform="translate(-743.44 -367.38)"/><path class="cls-120" d="M977.57,485.53a5.78,5.78,0,0,1,.35,1.49,2.52,2.52,0,0,1-1.6-.56A1.32,1.32,0,0,1,977.57,485.53Z" transform="translate(-743.44 -367.38)"/><path class="cls-120" d="M972.69,483.74l1.77.11a5.79,5.79,0,0,0,0,1.44l-1.65-.59A3.43,3.43,0,0,0,972.69,483.74Z" transform="translate(-743.44 -367.38)"/><path class="cls-159" d="M969.18,483.31l2,1.19Z" transform="translate(-743.44 -367.38)"/><path class="cls-3" d="M810.27,485.07l1.75-.42c3.84,1.65,7.29.93,10.45-1.67,3.36,1.49,4.2-3.33,7.15-2.87,2.68,1.28,5.06.23,7.42-1,3.61,1.72,6.55-1.74,10-1.3l0,.29a14.18,14.18,0,0,0,10.41-.15l-.06-.09,5.57-1.45c1.82,2.41,4.46,1.25,6.76,1.56q0,6.06,0,12.12l-1.9-.07a38.76,38.76,0,0,0-17.31.14c2,2.64,5.25.93,7.69,2.1a20.25,20.25,0,0,1-9.6,1.18c-1.21-.94-2.81-.52-4.11-1.15-2.34-.32-4.68-.86-6.93.15a3.26,3.26,0,0,1,1,1.45,11.92,11.92,0,0,1-7.26,1.4c-2.63-2.27-5.25-2.06-7.87,0-3.08,1.38-6.79.92-9.53,3.27-1.81,1.22-4.08,2.09-5.34,3.73-3.87,5-5.13,1-6.88-1.67-.74-3.6,4.37-5,3.24-8.79l.39-.8c.37-.47.72-1,1-1.46l.56-.7a11,11,0,0,1,1.4-1.15l.71-.56c.57-.72.77-1.64,1.37-2.34Z" transform="translate(-743.44 -367.38)"/><path class="cls-135" d="M937.82,477.94l-8.7,0a14.9,14.9,0,0,1,0-1.64l7-.41,1.69.6Z" transform="translate(-743.44 -367.38)"/><path class="cls-42" d="M850.46,490.2a19.86,19.86,0,0,1,17.32-.14Z" transform="translate(-743.44 -367.38)"/><path class="cls-171" d="M869.42,521.9c-2.9,2.21-5.8.88-8.71,0-2.32-3.31-7.66,1.61-9.35-3.44.43-2.62-1-5.5,1.17-7.84,2.27-.89,2.71,2.58,4.84,2a1.7,1.7,0,0,1,2.34.48,4.94,4.94,0,0,0,1.85,1.78,16.59,16.59,0,0,0,1.55.69,2,2,0,0,1,1.32,1l-.16-.16a5.06,5.06,0,0,1,1.87,1.89l-.14-.09a23,23,0,0,1,2.31,1.33A2.83,2.83,0,0,1,869.42,521.9Z" transform="translate(-743.44 -367.38)"/><path class="cls-54" d="M822.52,493.69c3.45-2.35,6.69-3.6,8.72,1.64l-5.07.21C824,496.75,823.43,494.9,822.52,493.69Z" transform="translate(-743.44 -367.38)"/><path class="cls-172" d="M822.52,493.69l3.65,1.85a26.81,26.81,0,0,1-12.33,3.08C815.31,494.47,820.35,496.61,822.52,493.69Z" transform="translate(-743.44 -367.38)"/><path class="cls-173" d="M838.5,493.93,834.75,492a15,15,0,0,1,10.34-.18l3.46,1.65Z" transform="translate(-743.44 -367.38)"/><path d="M852.25,519.9c2.65,1.4,6.53-2.43,8.46,2l-10.24-.24a1.83,1.83,0,0,1,.19-1.68C851.14,519.13,851.67,519.06,852.25,519.9Z" transform="translate(-743.44 -367.38)"/><path class="cls-174" d="M852.25,519.9q-.79.08-1.59.09c-.17-3.47-1.37-7,.81-10.3a1.26,1.26,0,0,1,.55.27,4.92,4.92,0,0,1,.51.67C852.44,513.72,852.34,516.81,852.25,519.9Z" transform="translate(-743.44 -367.38)"/><path class="cls-175" d="M859.23,514.53l-1.86-1.88,0-3.08a4.77,4.77,0,0,1,1.46,0l2.21,3a2.79,2.79,0,0,1,.57,1.85c-.23.25-.46.49-.68.74A1.61,1.61,0,0,1,859.23,514.53Z" transform="translate(-743.44 -367.38)"/><path class="cls-176" d="M869.42,521.9l-1.56-1.77,0-1.2A.65.65,0,0,0,868,518a3.94,3.94,0,0,0,1.66.3l1.78,2Z" transform="translate(-743.44 -367.38)"/><path class="cls-177" d="M869.74,542.38h-7c-.6-.19-.83-.45-.7-.77s.29-.53.47-.53l3.52-1.51c14.73-.08,29.46,0,44.18-.39,3.08-.07,5.28,2.11,8.18,1.9-2.48,3.1-5.73,1-8.63,1.29A118.88,118.88,0,0,0,869.74,542.38Z" transform="translate(-743.44 -367.38)"/><path class="cls-178" d="M847,477.85c-3.4,1.33-6.39,5.32-10.57,1.67l0-1.21L847,476.58A9,9,0,0,0,847,477.85Z" transform="translate(-743.44 -367.38)"/><path class="cls-179" d="M836.48,478.31c0,.4,0,.81,0,1.21-2.06,2.79-4.36,2.75-6.84.59,1.74-.87,4.58.17,5-2.91Z" transform="translate(-743.44 -367.38)"/><path class="cls-180" d="M804.56,534.23,798,533.6v-2.85c3-.48,5.56,2.5,8.66,1l1.68.78Z" transform="translate(-743.44 -367.38)"/><path class="cls-114" d="M803.27,492c.09-1.12.64-1.72,1.81-1.65l.61.83q-.24.45-.51.9l-.32-.17h-.8Z" transform="translate(-743.44 -367.38)"/><path class="cls-181" d="M805.08,490.33a3.15,3.15,0,0,1,.19-1.69l1.21-.67.95,1c-.25.39-.5.78-.74,1.17l.1.12a1.2,1.2,0,0,1-1.83-.1Z" transform="translate(-743.44 -367.38)"/><path class="cls-182" d="M806.81,488.52a9.89,9.89,0,0,0-1.54.12l1.57-2.75.34.5-.41.45c.5.36.67.73.52,1.11S807,488.52,806.81,488.52Z" transform="translate(-743.44 -367.38)"/><path class="cls-183" d="M852.09,540.77l-3.45.41-3.37-.48-3.58-1.64c0-.45,0-.9,0-1.35l5.2,0Z" transform="translate(-743.44 -367.38)"/><path class="cls-91" d="M857.41,478c-3.43,2.71-6.91,2.55-10.41.15Z" transform="translate(-743.44 -367.38)"/><path class="cls-184" d="M862.54,541.07a11.41,11.41,0,0,1,.23,1.3l-8.73.16c.08-.77.17-1.54.27-2.32l1.76-.79C857.78,541.76,860.37,540.56,862.54,541.07Z" transform="translate(-743.44 -367.38)"/><path class="cls-185" d="M861,514.06a6.28,6.28,0,0,0,0-1.5,6.06,6.06,0,0,1,1.6.55,8.46,8.46,0,0,1-.07,1.67l-1.19.51C861.29,514.88,861.16,514.47,861,514.06Z" transform="translate(-743.44 -367.38)"/><path class="cls-109" d="M810.34,484.88c-.11,1.44.19,3.1-1.91,3.41a1.35,1.35,0,0,1-.47-1.38c.13-.47.27-.7.41-.7Z" transform="translate(-743.44 -367.38)"/><path class="cls-181" d="M808.37,486.21l.06,2.08.14.25a1.26,1.26,0,0,1-1.86-.12l.1.1c0-.56,0-1.12,0-1.68A3.11,3.11,0,0,1,808.37,486.21Z" transform="translate(-743.44 -367.38)"/><path class="cls-186" d="M864.43,516.62c-.53-.17-1.06-.32-1.61-.45-.66-.29-.89-.6-.7-.94s.4-.54.61-.54l-.13.09,1.69.32A4.6,4.6,0,0,0,864.43,516.62Z" transform="translate(-743.44 -367.38)"/><path class="cls-139" d="M866.14,518.35l-1.87-1.89,1.75.48A5.53,5.53,0,0,0,866.14,518.35Z" transform="translate(-743.44 -367.38)"/><path class="cls-187" d="M867.91,518.93c0,.4,0,.8,0,1.2L866,518.26Z" transform="translate(-743.44 -367.38)"/><path class="cls-188" d="M981.51,490c0-.51-.08-1-.15-1.52l1.87.68c0,.4-.05.81,0,1.21A9.69,9.69,0,0,1,981.51,490Z" transform="translate(-743.44 -367.38)"/><path class="cls-42" d="M845.09,491.83l-10.34.18C838.14,488.41,841.62,490.11,845.09,491.83Z" transform="translate(-743.44 -367.38)"/><path class="cls-189" d="M805,490.16l1.83.1-1.61,1.8Z" transform="translate(-743.44 -367.38)"/><path class="cls-190" d="M806.71,488.42l1.86.12-1.88,1.6A7.6,7.6,0,0,0,806.71,488.42Z" transform="translate(-743.44 -367.38)"/><path class="cls-191" d="M862.73,514.69c0,.5,0,1,.09,1.48l-1.85.28a1,1,0,0,1-.43-1c.08-.36.17-.55.28-.55a.84.84,0,0,1,.22-.86Z" transform="translate(-743.44 -367.38)"/><path d="M860.82,514.92a6.62,6.62,0,0,1,.15,1.53l-1.74-1.92A7.39,7.39,0,0,1,860.82,514.92Z" transform="translate(-743.44 -367.38)"/></svg>