<svg xmlns="http://www.w3.org/2000/svg" width="38" height="38" viewBox="0 0 38 38"><g transform="translate(-672.076 -262.076)"><rect width="38" height="38" transform="translate(672.076 262.076)" fill="#fff"/><g transform="translate(681.256 269.11)"><path d="M909.84,729.965c-.014-.254.083-.368.358-.348s.234.176.209.348Z" transform="translate(-899.018 -706.052)" fill="#5bbf4a"/><path d="M844.94,375.417c-.008.47-.008.94-.026,1.411-.005.134.084.309-.112.39a9.059,9.059,0,0,1-1.42-1.065c-.2-.137-.39-.291-.661-.2a1.387,1.387,0,0,1-.241.04,3.059,3.059,0,0,1-.663-.021c-.3-.078-.271-.378-.39-.58a1.046,1.046,0,0,1-.041-.159,5.8,5.8,0,0,1-.021-.656v-.585c0-.058,0-.116,0-.174a.8.8,0,0,1,.147-.589v-1.951c-.325.39-.585.7-.833,1.016-.144.187-.244.208-.448.047-1.031-.811-1.037-.8-.185-1.779s1.691-1.944,2.536-2.912a.829.829,0,0,1,1.344-.021c1.054,1.167,2.095,2.345,3.157,3.5.22.24.231.378-.042.568-.339.238-.64.693-.984.721-.366.029-.561-.536-.86-.81-.065-.06-.1-.16-.279-.143a5.379,5.379,0,0,1-.006.759c-.089.609.051,1.014.767.984-.092.165-.26.146-.408.172-.181,0-.216.121-.213.271,0,.13,0,.26.007.39,0,.086,0,.172.006.26a1.722,1.722,0,0,1,0,.183C845.046,374.8,845.137,375.13,844.94,375.417Z" transform="translate(-833.184 -367.3)" fill="#58bb48"/><path d="M757.065,461.362l.167,0c.854.211,1.347.923,1.982,1.438.042.034.065.087.13.082l.552.605c.051.354-.265.176-.39.272a.266.266,0,0,1,.065.234.455.455,0,0,1-.27.249.383.383,0,0,1-.281-.124.828.828,0,0,0-.35-.2c-.991-.023-1.98-.044-2.969.013-.108.044-.219.078-.33.113a.468.468,0,0,1-.325-.017.459.459,0,0,1-.114-.107c-.2-.248-.455-.13-.7-.1a.541.541,0,0,1-.231,0,1.167,1.167,0,0,1-.207-.095.848.848,0,0,0-.578-.033.736.736,0,0,1-.155.008,1.947,1.947,0,0,1-.767-.173.925.925,0,0,0-.538-.083h-.591a1.334,1.334,0,0,1-.408-.054,1.161,1.161,0,0,0-.605-.232.684.684,0,0,1-.135-.025,1.46,1.46,0,0,1-.176-.078c-.036-.016-.072-.034-.106-.053a.813.813,0,0,0-.1-.044c-.036-.014-.072-.019-.107-.029a.449.449,0,0,1-.1-.038.774.774,0,0,0-.15-.061.874.874,0,0,1-.109-.024.443.443,0,0,1-.105-.045.948.948,0,0,1-.136-.114c-.046-.042-.088-.087-.13-.13a1.345,1.345,0,0,1-.125-.153c-.029-.036-.056-.074-.083-.111-.12-.157-.271-.284-.4-.436-.144-.166-.271-.337-.147-.572.377-.951,1.243-1.217,2.1-1.5a2.07,2.07,0,0,0,.2-.09c.138-.1.32-.03.455-.124.46-.252,1-.22,1.476-.434a.551.551,0,0,0,.116.083.33.33,0,0,0,.191,0,.111.111,0,0,0,.007-.109.434.434,0,0,1,.368-.086.371.371,0,0,0,.438.072.4.4,0,0,0-.011-.1.678.678,0,0,1,.485-.087.636.636,0,0,0,.2.09c.228.029.455.009.685.015.072-.009.146.019.216-.017a.363.363,0,0,1-.155.006.239.239,0,0,1-.19-.124c.451-.19.931-.012,1.389-.1q0,.351-.008.7a.282.282,0,0,1-.216.065,2.969,2.969,0,0,0-.676-.065.47.47,0,0,1,.025.23.325.325,0,0,1-.213.166l-.071,0a.3.3,0,0,1-.13-.056.824.824,0,0,0-.2-.179.251.251,0,0,0-.235.021c-.044.075-.059.169-.148.212a.808.808,0,0,1-.422-.008,2.556,2.556,0,0,0-.692.16c-.087.038-.174.079-.26.121-.2.09-.386.2-.579.289a1.037,1.037,0,0,1-.136.051c-.092.029-.184.059-.274.095a.479.479,0,0,0-.343.345,1.4,1.4,0,0,0-.035.591c.2.759.9.91,1.489,1.119a10.636,10.636,0,0,0,1.356.317c.234.17.473.008.709.013a1.025,1.025,0,0,1,.7.122c.078.3.28.245.486.171a.248.248,0,0,0,.04-.118.716.716,0,0,0-.166-.351.549.549,0,0,0-.144-.12c-.04-.014-.079-.031-.118-.046a.662.662,0,0,1-.118-.058.8.8,0,0,1-.157-.13.563.563,0,0,1-.111-.186.4.4,0,0,1,0-.225.281.281,0,0,1,.1-.118c.123-.087.287-.018.4-.111a.452.452,0,0,1-.008-.122.241.241,0,0,1,.142-.13.537.537,0,0,1,.213-.018.6.6,0,0,1,.143.04c.065.031.13.065.191.1a.645.645,0,0,0,.3.051.1.1,0,0,0,.027-.1c-.008-.075.072-.053,0-.054C756.91,461.423,756.993,461.4,757.065,461.362Z" transform="translate(-747.693 -452.793)" fill="#242743"/><path d="M745.5,512.6l.055-.012a.91.91,0,0,1,.088.077.874.874,0,0,0,.092.072.772.772,0,0,0,.1.053.905.905,0,0,0,.17.046c.061.016.118.046.177.065s.135-.01.2.036l-.011-.008a2.32,2.32,0,0,0,.6.279c.153.065.292.165.447.228.162.13.375.065.551.144.033.151.108.2.248.1.236.05.461.208.715.065.031-.039.065-.076.1-.113a.325.325,0,0,1,.123-.083.291.291,0,0,1,.321.15c.074.3.256.065.39.073a.416.416,0,0,1,.222,0,.234.234,0,0,1,.1.1c.012.021.023.043.036.065.177.181.38.075.576.052a.6.6,0,0,1,.161,0,1.394,1.394,0,0,1,.3.108,3.431,3.431,0,0,0,1.3-.007c.1-.038.206-.077.313-.107a.53.53,0,0,1,.321.02.937.937,0,0,0,.86.094,1.035,1.035,0,0,1,.375-.084,1.516,1.516,0,0,1,.3.085,2.142,2.142,0,0,0,.821.042.592.592,0,0,0,.138-.05.464.464,0,0,1,.254-.26L756,513.8a.273.273,0,0,1,.119.07.653.653,0,0,0,.229.161.456.456,0,0,1,.371.524,4.257,4.257,0,0,0,.016.767c-.036-.468,0-.938-.053-1.405.065-.112.13-.207.247-.046-.005.488-.04.979-.007,1.465.029.427-.086.641-.543.57a.171.171,0,0,1-.17,0,2.575,2.575,0,0,0-.267-.073c-1.51-.016-3.02-.036-4.528.012-.09.028-.181.054-.271.085a.687.687,0,0,1-.449-.038l-.36-.1a.361.361,0,0,1,.065-.092c-.134-.078-.271-.026-.4-.023a.819.819,0,0,0-.2.084.462.462,0,0,1-.376-.079.13.13,0,0,0-.018-.113.449.449,0,0,0-.26.005.26.26,0,0,1-.14.011,1.019,1.019,0,0,1-.126-.07.6.6,0,0,0-.49-.032c-.15.032-.233-.072-.325-.158-.468.234-.839-.1-1.225-.241a6.2,6.2,0,0,1-1.766-.907,1.625,1.625,0,0,1-.68-.789c-.07-.281-.239-.52-.279-.8a.592.592,0,0,0,.09-.184c.032-.135.053-.28.222-.321.114-.008.207.065.314.08a1.082,1.082,0,0,1,.185.01.3.3,0,0,1,.112.044c.023.031.045.065.065.095a.366.366,0,0,0,.079.079.562.562,0,0,1,.088.065.22.22,0,0,0,.137.087Z" transform="translate(-744.067 -502.665)" fill="#242743"/><path d="M876.2,572.665l.012,4.422a.1.1,0,0,1-.134.008c-.235-.15-.5-.074-.753-.107-.178.155-.065.307.077.294.3-.028.315.252.475.366l-.008-.005c.137.122.187.242-.008.356l-.122.117c-.114.173.029.427-.18.57a.206.206,0,0,1-.141.039c-.337-.213.021-.488-.065-.724-.012-.1-.081-.143-.174-.157a.534.534,0,0,0-.182,0c-.086.073-.065.2-.136.279a.231.231,0,0,1-.135.038c-.209-.032-.315-.225-.486-.309-.029-.019-.061-.037-.093-.054.007.092.109.065.149.122.1.083.181.175.275.26.112.137.292.274.169.466-.1.161-.289.1-.447.047-.049-.017-.1-.037-.145-.057-.373-.076-.845.015-.858-.609,0-.169-.273-.157-.4-.255q0-2.56,0-5.12a.3.3,0,0,1,.165-.06,10.009,10.009,0,0,0,1.964-.029A1.081,1.081,0,0,1,876.2,572.665Z" transform="translate(-864.471 -559.092)" fill="#58bb48"/><path d="M928.934,460.4c.277-.336.462.065.663.12a6.467,6.467,0,0,1,2.487,1.135,1.97,1.97,0,0,1,.357.44c.177.187.1.445.183.659a1.051,1.051,0,0,1,.073.135.349.349,0,0,1-.084.284,4.539,4.539,0,0,0-.43.5.547.547,0,0,1-.109.1,1.837,1.837,0,0,1-.41.2l-.076.008a.4.4,0,0,1-.146-.044c-.226-.148-.5-.077-.739-.152-.207-.07-.43-.041-.64-.094a.856.856,0,0,1-.23-.105c-.18-.145-.54-.113-.483-.49.078-.137.28-.2.225-.413a1.422,1.422,0,0,1-.26-.46l-.1-.176a.734.734,0,0,1-.05-.11.338.338,0,0,0-.084-.138.405.405,0,0,0-.1-.039.824.824,0,0,1-.113-.025.506.506,0,0,1-.111-.047c-.053-.034-.1-.071-.154-.107a1.744,1.744,0,0,0-.169-.1c-.057-.031-.122-.06-.181-.094a.97.97,0,0,1-.116-.079.585.585,0,0,0-.528-.13.52.52,0,0,1-.3-.042.911.911,0,0,0-.7-.181.635.635,0,0,1-.368-.029c-.1-.05-.081-.149-.1-.232-.093-.053-.172-.007-.252.03a.934.934,0,0,1-.206.095c-.136.021-.26.013-.329-.13.112-.216-.222-.39-.055-.613.33-.254.724-.053,1.075-.155a.155.155,0,0,1,.163.017.13.13,0,0,1,.107.023.455.455,0,0,0,.116.083,1.669,1.669,0,0,0,.455.009l.14-.031a.5.5,0,0,1,.189.085.541.541,0,0,0,.463.031.245.245,0,0,1,.143.016C928.374,460.371,928.744,460.1,928.934,460.4Z" transform="translate(-913.432 -453.887)" fill="#242743"/><path d="M980,519.385a.464.464,0,0,1-.367-.084.118.118,0,0,0,0-.1.39.39,0,0,0-.23-.015c-.044.012-.086.021-.13.029a.793.793,0,0,1-.257-.1.617.617,0,0,0-.408-.037,1.13,1.13,0,0,0-.2.079c-.09.006-.2.041-.221-.1a.793.793,0,0,0,.091-.237,8.706,8.706,0,0,1,.055-1.2c.119-.183.338-.15.5-.23.086-.055.154-.13.238-.189a.273.273,0,0,1,.215-.007.222.222,0,0,1,.1.174.252.252,0,0,0,.046.166.307.307,0,0,0,.233-.016,1.217,1.217,0,0,0,.168-.111.451.451,0,0,1,.188-.094.282.282,0,0,1,.189.078l.04.054a.247.247,0,0,1,.012.121.117.117,0,0,0,0,.1,1.126,1.126,0,0,0,.319-.047.44.44,0,0,1,.162.016.251.251,0,0,1,.124.117.636.636,0,0,1,.055.174,7.207,7.207,0,0,1-.025,1.411.546.546,0,0,1-.1.161.434.434,0,0,1-.374-.081.119.119,0,0,0,0-.108.383.383,0,0,0-.239-.005A.774.774,0,0,0,980,519.385Z" transform="translate(-962.924 -507.425)" fill="#242743"/><path d="M929.059,478.314c-.157-.107-.39-.033-.514-.22-.221.06-.414-.114-.631-.074a.538.538,0,0,1-.212-.079.572.572,0,0,0-.475-.072.767.767,0,0,0-.189.083,1.249,1.249,0,0,1-.591-.086.606.606,0,0,0,.038-.1,1.239,1.239,0,0,0-.656.022.238.238,0,0,1-.226-.094.914.914,0,0,1,.009-.621c.181-.2.43-.153.657-.183a1.313,1.313,0,0,0,.761-.02c.185-.024.336.09.507.126.213.092.455.041.667.139a1.055,1.055,0,0,1,.13.047c.06.025.115.065.174.089l.12.026a.635.635,0,0,1,.111.046c.051.031.105.055.159.081a.487.487,0,0,1,.1.07.6.6,0,0,0,.089.083l.052.035a.811.811,0,0,1,.13.14c.045.05.092.1.14.147l.044.058.017.072a.385.385,0,0,1-.036.145C929.344,478.32,929.242,478.428,929.059,478.314Z" transform="translate(-913.709 -469.743)" fill="#252843"/><path d="M1025.83,509.635a3.738,3.738,0,0,1-.78,1.669.323.323,0,0,1-.331.159c-.309-.014-.26-.265-.273-.447a7.022,7.022,0,0,1,.012-1.158c.029-.226.233-.311.367-.455h0c.171-.163.333-.336.508-.494a.33.33,0,0,1,.209-.109c.157.035.186.174.237.3C1025.809,509.277,1025.729,509.463,1025.83,509.635Z" transform="translate(-1006.154 -499.598)" fill="#252844"/><path d="M904.174,679.835c-.043-.245.057-.386.367-.352.269.029.325-.406.656-.3.172.053.39-.02.39.27,0,.217.018.425-.3.4-.144-.012-.3-.031-.325.2-.039.4-.414.288-.61.3S904.179,680.06,904.174,679.835Z" transform="translate(-893.712 -658.883)" fill="#5fc050"/><path d="M881.357,676.559c-.006.509-.455.624-.78.814a.7.7,0,0,1-.6-.016c-.191-.111-.1-.384-.07-.577.043-.236.27-.136.423-.165.073-.014.145-.031.218-.047a.711.711,0,0,1,.793-.243.157.157,0,0,1,.012.233Z" transform="translate(-870.989 -656.201)" fill="#60c151"/><path d="M880.29,666.584a2.565,2.565,0,0,0-.81.183q-.167-.16-.332-.321a1.659,1.659,0,0,0-.434-.419l0-.18a2.388,2.388,0,0,1,1,.038l-.006,0c.1.211.372.117.495.285a.633.633,0,0,1,.13.274.224.224,0,0,1-.044.144Z" transform="translate(-869.913 -646.399)" fill="#f0f8ef"/><path d="M892.232,498.9c-.44-.052-.639-.445-.955-.673-.39-.28-.772-.564-1.158-.845.26-.248.462-.036.64.109a9.215,9.215,0,0,1,1.439,1.247Z" transform="translate(-880.581 -488.814)" fill="#aac1ab"/><path d="M868.617,577.912v4.928h-.057v-4.95Z" transform="translate(-860.423 -564.194)" fill="#fbfdfa"/><path d="M876.426,570.371c-.382.023-.761-.232-1.145-.01a.4.4,0,0,1-.377.031c-.585-.112-1.2.114-1.773-.144v-.092c.167-.2.4-.17.622-.172.65-.008,1.307,0,1.96,0,.25.022.52-.053.724.174Z" transform="translate(-864.696 -556.799)" fill="#e1efe1"/><path d="M899.154,659.548a.242.242,0,0,1-.155-.241c.039-.26.1-.52-.148-.722.023-.094.074-.141.175-.1a.488.488,0,0,0,.061,0,.593.593,0,0,1,.161-.065.318.318,0,0,1,.239.077c.167.162-.079.46.2.585a.11.11,0,0,0,.108.005c.032.008.049.022.048.044s-.005.038-.014.038l-.142.114A.808.808,0,0,1,899.154,659.548Z" transform="translate(-888.743 -639.486)" fill="#f5faf4"/><path d="M869.148,569.045l-2.6.026-.431-.031a.1.1,0,0,1,.034-.161,2.859,2.859,0,0,1,.795-.05,20.045,20.045,0,0,1,2.157.047.109.109,0,0,1,.046.169Z" transform="translate(-858.111 -555.716)" fill="#757280"/><path d="M874.269,654.344l-1-.038c.157-.394-.24-.516-.375-.767a.282.282,0,0,1,.471.191c.065.466.33.549.724.507C874.142,654.231,874.208,654.307,874.269,654.344Z" transform="translate(-864.471 -634.858)" fill="#62c153"/><path d="M896.04,717.15c.2-.014.335.019.333.26,0,.206-.016.371-.288.364-.187-.005-.328-.023-.32-.267C895.772,717.308,895.76,717.118,896.04,717.15Z" transform="translate(-885.858 -694.394)" fill="#5bc04b"/><path d="M912.546,703.344c.173-.016.3.024.284.236-.008.151.012.308-.215.317-.2.009-.325-.047-.325-.275C912.291,703.443,912.341,703.328,912.546,703.344Z" transform="translate(-901.309 -681.486)" fill="#5abc4a"/><path d="M902.9,672.022c.086-.269.306-.267.527-.26.226.287.176.455-.2.49-.123.011-.244.044-.365.065l.006-.173Z" transform="translate(-892.493 -651.959)" fill="#63c153"/><path d="M1021.036,523.664l-.117.006c-.317-.525-.081-1.106-.169-1.654a.837.837,0,0,1-.008-.185.292.292,0,0,1,.175-.2l-.005-.011c.15-.019.167.081.17.191A14.372,14.372,0,0,1,1021.036,523.664Z" transform="translate(-1002.706 -511.579)" fill="#e0e0e2"/><path d="M1025.29,524.858v-1.913c.019-.056.052-.068.1-.032.077.573-.148,1.171.13,1.726C1025.49,524.759,1025.438,524.86,1025.29,524.858Z" transform="translate(-1006.96 -512.773)" fill="#00002f"/><path d="M1018.26,524.656a.7.7,0,0,1,.006-.09.135.135,0,0,1,.215-.016l-.012.008a5.356,5.356,0,0,1,.01,1.808l-.217-.013a.547.547,0,0,0,0-.087A4.883,4.883,0,0,0,1018.26,524.656Z" transform="translate(-1000.388 -514.28)" fill="#000002"/><path d="M924.423,476.482v.687c.04.023.053.045.039.065s-.027.032-.042.032l-.2.021q0-.511.006-1.022a.2.2,0,0,1,.215.072A.121.121,0,0,1,924.423,476.482Z" transform="translate(-912.463 -469.17)" fill="#221543"/><path d="M1021.49,527.158l-.01-1.808c.271.585.053,1.21.13,1.812Z" transform="translate(-1003.398 -515.071)" fill="#a2a3a8"/><path d="M907.958,643.169c-.235-.052-.39-.251-.616-.334-.2-.074-.191-.26.065-.325-.033.122-.021.24.135.219C907.9,642.682,907.907,642.94,907.958,643.169Z" transform="translate(-896.55 -624.612)" fill="#63c353"/><path d="M872.934,574.011a7.609,7.609,0,0,1,1.835.109,5.085,5.085,0,0,1-1.719.01l-.13-.005C872.925,574.087,872.93,574.049,872.934,574.011Z" transform="translate(-864.5 -560.563)" fill="#73c368"/><path d="M878.49,668.626c.384-.109.51.049.434.419C878.579,669.112,878.42,668.988,878.49,668.626Z" transform="translate(-869.692 -648.998)" fill="#6ec760"/><path d="M977.621,519.586l-.109.118a10.314,10.314,0,0,1-.015-1.821.122.122,0,0,1,.173.057A12.093,12.093,0,0,1,977.621,519.586Z" transform="translate(-962.245 -508.074)" fill="#040404"/><path d="M979.48,495.5c.2.012.252-.19.4-.249.266.076.316.237.181.468C979.709,496.074,979.626,495.7,979.48,495.5Z" transform="translate(-964.13 -486.929)" fill="#292c48"/><path d="M928.308,535.784c-.083-.005-.166-.006-.215.08l-.065.065a.437.437,0,0,1-.609-.2l.019.006c.113-.4.435-.13.65-.2C928.234,535.527,928.234,535.527,928.308,535.784Z" transform="translate(-915.455 -524.575)" fill="#dddde0"/><path d="M983.35,513.613l-.158.01a.314.314,0,0,1-.248.072c-.167-.055-.362-.077-.374-.315l.115-.012a1.221,1.221,0,0,1,.836.031l.118.118a.1.1,0,0,1-.042.148A.253.253,0,0,1,983.35,513.613Z" transform="translate(-967.019 -503.806)" fill="#090917"/><path d="M746.057,497.16c-.023.252.233.367.285.581a.189.189,0,0,1,0,.137.3.3,0,0,1-.17.126.219.219,0,0,1-.136-.046.564.564,0,0,1-.085-.121c-.1-.13.012-.295-.082-.423C745.867,497.28,745.967,497.225,746.057,497.16Z" transform="translate(-745.712 -488.715)" fill="#cbcbce"/><path d="M805.639,562.071v.114c.04.021.053.044.04.065s-.025.035-.038.035c-.345-.009-.7.014-.931-.325l.373.1A.709.709,0,0,1,805.639,562.071Z" transform="translate(-800.726 -549.3)" fill="#1f1f2f"/><path d="M969.983,462.9c-.22-.269-.657.206-.823-.243v-.074C969.438,462.678,969.811,462.527,969.983,462.9Z" transform="translate(-954.481 -456.383)" fill="#212234"/><path d="M846.571,568.925c.01.027.021.053.033.079a3.1,3.1,0,0,1-1.385-.1l.461-.02A.857.857,0,0,1,846.571,568.925Z" transform="translate(-838.601 -555.678)" fill="#d6dbd8"/><path d="M913.15,568.888c.009-.027.018-.055.025-.082a1.274,1.274,0,0,1,1.116-.044l.125.041c-.167.147-.378.061-.563.109Z" transform="translate(-902.113 -555.559)" fill="#c1c9c4"/><path d="M978.269,514.5c.048.22.338.042.4.242,0,.224-.159.2-.3.2a.672.672,0,0,1-.286-.181.21.21,0,0,0-.109-.02A.321.321,0,0,1,978.269,514.5Z" transform="translate(-962.718 -504.927)" fill="#dadadd"/><path d="M985.176,509.312l-.836-.031a.4.4,0,0,1,.253-.351C984.66,509.251,985.029,509.111,985.176,509.312Z" transform="translate(-968.674 -499.719)" fill="#2e3048"/><path d="M928.834,458.481l-.135.016c-.338.02-.7.206-.99-.122l.507-.025C928.421,458.412,928.668,458.262,928.834,458.481Z" transform="translate(-915.727 -452.429)" fill="#030309"/><path d="M956.749,493.044a1.3,1.3,0,0,1,.741.135c-.35.181-.659-.019-.979-.108A.16.16,0,0,1,956.749,493.044Z" transform="translate(-942.654 -484.829)" fill="#1d1f32"/><path d="M985.6,493.609c-.007-.177.021-.367-.182-.468a.142.142,0,0,1-.01-.108.12.12,0,0,1,.186.011.693.693,0,0,1,.217.574Z" transform="translate(-969.666 -484.819)" fill="#c3c3c8"/><path d="M1036.582,494.762a.817.817,0,0,1-.105-.007,1.279,1.279,0,0,1,.01-.775c.307.029.184.278.227.442C1036.6,494.5,1036.727,494.685,1036.582,494.762Z" transform="translate(-1017.368 -485.741)" fill="#1f2139"/><path d="M1037.321,501.119l.13-.339c.034.074.065.148.1.222.13.146.031.245-.071.343l-.165.112c-.083.014-.13,0-.093-.1Z" transform="translate(-1018.107 -492.099)" fill="#b9b9be"/><path d="M922.115,531.81c-.053-.027-.243-.036-.038-.112.161-.06.379.049.5-.157.122-.025.216-.009.211.148C922.615,532.022,922.348,531.825,922.115,531.81Z" transform="translate(-910.372 -520.85)" fill="#32344a"/><path d="M924,534.072c.22-.065.478.085.672-.122l.222.125c-.178.2-.475,0-.65.2h-.127Z" transform="translate(-912.258 -523.112)" fill="#13141e"/><path d="M981.6,545.378l.118-.106a.74.74,0,0,1,.552.007l.235.127c.025.021.034.042.024.065s-.018.031-.027.031Z" transform="translate(-966.112 -533.651)" fill="#090a1c"/><path d="M920.764,644.01l.135-.01c.181.02.207.119.122.26a.184.184,0,0,1-.241.056C920.57,644.233,920.769,644.114,920.764,644.01Z" transform="translate(-909.157 -626.005)" fill="#64cb53"/><path d="M839.052,460.21l.208.035c.084.146-.036.134-.118.152a2.427,2.427,0,0,1-.736-.045l-.115-.113Z" transform="translate(-832.122 -454.168)" fill="#040407"/><path d="M890.846,696.728a.159.159,0,0,1-.172.172.173.173,0,0,1,0-.345.161.161,0,0,1,.172.174Z" transform="translate(-880.948 -675.141)" fill="#68c45a"/><path d="M957.389,460.832a.236.236,0,0,0,0,.074l-.112.026a.609.609,0,0,1-.56-.021l-.12-.116c-.026-.02-.034-.039-.024-.057s.018-.027.027-.027Z" transform="translate(-942.707 -454.635)" fill="#04040b"/><path d="M927.29,489.434v-.1l.235-.014a1.659,1.659,0,0,1,.693-.031c.085,0,.1.077.034.146l-.183.022Z" transform="translate(-915.334 -481.338)" fill="#040405"/><path d="M1041.4,504.5q.035-.172.071-.343c.242.127.156.375.21.571h-.047Z" transform="translate(-1022.023 -495.259)" fill="#0b0c13"/><path d="M901.259,707.069a.154.154,0,0,1-.155.134c-.12-.006-.149-.1-.13-.2s.088-.11.17-.094a.13.13,0,0,1,.115.16Z" transform="translate(-890.724 -684.818)" fill="#60cd4e"/><path d="M913.314,660.491a.48.48,0,0,1-.034-.083q.111-.29.224-.579C913.481,660.063,913.658,660.352,913.314,660.491Z" transform="translate(-902.235 -640.806)" fill="#63c353"/><path d="M918.441,668.9a.15.15,0,0,1,.185.149c0,.049-.076.123-.13.142-.11.038-.173-.04-.177-.142a.13.13,0,0,1,.122-.149Z" transform="translate(-906.946 -649.285)" fill="#77d767"/><path d="M743.595,508.164l-.114.114a2.026,2.026,0,0,1,.005-.786.1.1,0,0,1,.157.038A1.051,1.051,0,0,1,743.595,508.164Z" transform="translate(-743.444 -498.356)" fill="#040404"/><path d="M744.189,501.5c-.036,0-.073.006-.109.007l.113-.437c.146.107.124.288.187.432a.114.114,0,0,1-.191,0Z" transform="translate(-744.039 -492.37)" fill="#353643"/><path d="M1035.635,493.529l-.01.775c-.2-.247-.065-.536-.1-.8C1035.563,493.508,1035.6,493.518,1035.635,493.529Z" transform="translate(-1016.517 -485.293)" fill="#2f3149"/><path d="M949.157,491.191l-.239.027-.528-.034.115-.109a.72.72,0,0,1,.557.007Z" transform="translate(-935.062 -482.976)" fill="#030313"/><path d="M832.1,566.18l-.187.024-.54-.031.112-.1C831.7,566.051,831.942,565.87,832.1,566.18Z" transform="translate(-825.652 -553.078)" fill="#030309"/><path d="M947.274,460.163v.109a.957.957,0,0,1-.676-.012.685.685,0,0,1,0-.1A1.52,1.52,0,0,1,947.274,460.163Z" transform="translate(-933.385 -454.088)" fill="#03030a"/><path d="M819,564.62v-.1l.121-.01a.676.676,0,0,1,.559.012l-.252.13Z" transform="translate(-814.086 -551.633)" fill="#04040f"/><path d="M1006,548.857l.116-.109a.67.67,0,0,1,.559.014l-.252.13Z" transform="translate(-988.925 -536.897)" fill="#030310"/><path d="M784.565,470.333c-.113.187-.3.107-.455.124A.349.349,0,0,1,784.565,470.333Z" transform="translate(-781.465 -463.599)" fill="#161726"/><path d="M1044.337,513h.047l.017.566C1044.228,513.39,1044.3,513.2,1044.337,513Z" transform="translate(-1024.725 -503.525)" fill="#010116"/><path d="M824.26,462.133v-.105l.427-.028a.065.065,0,0,0,.077.027C824.663,462.368,824.438,462.13,824.26,462.133Z" transform="translate(-819.004 -455.841)" fill="#040408"/><path d="M995.48,547.121v-.113a.7.7,0,0,1,.564.015l-.248.126Z" transform="translate(-979.089 -535.273)" fill="#030312"/><path d="M918.59,652.908a.358.358,0,0,0,.008-.356c.16-.012.226.065.211.221S918.712,652.941,918.59,652.908Z" transform="translate(-907.2 -633.999)" fill="#63c353"/><path d="M814.068,463.76l.25.123a.656.656,0,0,1-.566.014.768.768,0,0,1,0-.11Z" transform="translate(-809.178 -457.487)" fill="#03030f"/><path d="M924.236,458.679c.3.249.664.047.99.122-.341.26-.789-.033-1.13.222-.031.054-.065.054-.092,0C923.993,458.847,923.935,458.642,924.236,458.679Z" transform="translate(-912.25 -452.732)" fill="#31324a"/><path d="M853.61,472.17l.282-.152a.33.33,0,0,1,.159-.033c.237.044.5-.023.709.144l.006.139a.74.74,0,0,1-.468.15,1.14,1.14,0,0,1-.412.023C853.753,472.392,853.62,472.343,853.61,472.17Z" transform="translate(-846.445 -465.177)" fill="#1d203d"/><path d="M859.668,469.45c-.267-.051-.562.13-.808-.1.219-.423.535-.145.817-.114Z" transform="translate(-851.354 -462.498)" fill="#c5c6ca"/><path d="M924.292,470.389a.526.526,0,0,0,.367.082c.13-.055.229-.026.272.12a.232.232,0,0,1-.049.164.522.522,0,0,1-.417.053,2.646,2.646,0,0,1-.365-.2V470.4C924.159,470.309,924.224,470.328,924.292,470.389Z" transform="translate(-912.351 -463.636)" fill="#c7c9cb"/><path d="M875.006,499.06l-.146.217c-.178.177-.365.094-.552.02l-.146-.027c-.04-.083-.055-.157.061-.189Z" transform="translate(-865.634 -490.491)" fill="#cbe3c9"/><path d="M851.558,487.955a.118.118,0,0,1,.005.09l-.062.075a1.847,1.847,0,0,1-.859.1c-.181-.04-.416.01-.452-.271.313-.252.68-.119,1.025-.144A.465.465,0,0,1,851.558,487.955Z" transform="translate(-843.248 -479.958)" fill="#02022d"/><path d="M924.255,464.474l-.2.007.006-.47h.092C924.094,464.185,924.711,464.218,924.255,464.474Z" transform="translate(-912.314 -457.721)" fill="#30314a"/><path d="M856.76,468.438c-.27.052-.568-.09-.817.114l-.06-.012-.143-.208a1.3,1.3,0,0,1,.785-.013l.225.02A.234.234,0,0,1,856.76,468.438Z" transform="translate(-848.437 -461.699)" fill="#000005"/><path d="M869.711,492.161c-.02.065-.04.126-.061.189l-.164.014a.448.448,0,0,1-.049-.676v-.029C869.649,491.761,869.547,492.036,869.711,492.161Z" transform="translate(-861.121 -483.572)" fill="#68c453"/><path d="M867.673,478.518l-.1-.009a.679.679,0,0,1-.065-.747.112.112,0,0,1,.166-.04Z" transform="translate(-859.363 -470.521)" fill="#231b43"/><path d="M924.1,474.53c.118.01.248-.012.325.117a.092.092,0,0,1,.039.08c0,.031-.008.046-.016.046a.093.093,0,0,1-.13-.01l-.206-.111Z" transform="translate(-912.351 -467.556)" fill="#161939"/><path d="M863.472,476.42h-.1c-.176.1-.353.2-.439-.1l.549-.008A.221.221,0,0,1,863.472,476.42Z" transform="translate(-855.159 -469.221)" fill="#31314a"/><path d="M843.46,518.954c.151-.043.339.059.455-.116a.619.619,0,0,1,.555-.116,1.083,1.083,0,0,0,.553.065.7.7,0,0,0,.163-.1.223.223,0,0,1,.114-.049.741.741,0,0,1,.315.525c-.152.174-.347.121-.535.1a.244.244,0,0,1-.119-.109,2.009,2.009,0,0,0-1.106,0A.276.276,0,0,1,843.46,518.954Z" transform="translate(-836.956 -508.798)" fill="#b0b1b7"/><path d="M864.571,536.487c.152.016.245.087.237.253l-.09.051c-1.093-.039-2.185-.042-3.278-.025a.453.453,0,0,1-.37-.166l.232-.113A26.235,26.235,0,0,1,864.571,536.487Z" transform="translate(-853.42 -525.437)" fill="#0d0d0f"/><path d="M867.9,535.522h-3.27a13.1,13.1,0,0,1,2.623-.093C867.467,535.418,867.707,535.343,867.9,535.522Z" transform="translate(-856.749 -524.471)" fill="#33354b"/><path d="M833.957,471.442a.417.417,0,0,0,.438.072c.211-.26.394-.207.559.049l-.013-.009c.041.228-.155.2-.272.25a2.24,2.24,0,0,1-.67.087.435.435,0,0,1-.158-.061.26.26,0,0,1-.081-.144C833.761,471.552,833.854,471.493,833.957,471.442Z" transform="translate(-827.886 -464.577)" fill="#bfbfc4"/><path d="M821.393,475.542l-.012.011c.112.215-.083.23-.2.3-.189.051-.354.2-.572.142a.3.3,0,0,1-.139-.366l.217-.135C820.925,475.555,821.175,475.311,821.393,475.542Z" transform="translate(-815.449 -468.408)" fill="#b5b5ba"/><path d="M811.973,478.38c.036.1.073.2.11.3-.169.344-.409.367-.7.155a.125.125,0,0,1,.014-.157A1.239,1.239,0,0,1,811.973,478.38Z" transform="translate(-806.944 -471.156)" fill="#c4c5c9"/><path d="M779.3,524.945a.566.566,0,0,1-.575-.352c.243.04.585-.217.7.226C779.415,524.891,779.352,524.91,779.3,524.945Z" transform="translate(-776.435 -514.328)" fill="#b7b8bc"/><path d="M787.57,528.745l.12-.125.435.009c.065.044.145.065.18.148a.226.226,0,0,1-.051.223.216.216,0,0,1-.227-.021A.474.474,0,0,1,787.57,528.745Z" transform="translate(-784.7 -518.129)" fill="#dfdfe2"/><path d="M812.536,530.19l-.352-.118c-.248.031-.484.032-.613-.241.035-.165.126-.185.26-.1.226.219.574.016.8.233a.177.177,0,0,1,.034.2A.094.094,0,0,1,812.536,530.19Z" transform="translate(-807.14 -519.123)" fill="#0f1023"/><path d="M827.69,533.249l.008-.219v-.016a1,1,0,0,1,.676.008l.116.135a.1.1,0,0,1-.044.144c-.2.024-.406,0-.607.038A.26.26,0,0,1,827.69,533.249Z" transform="translate(-822.211 -522.186)" fill="#00000a"/><path d="M798.132,491.418l-.216.01c-.081-.209.042-.384.1-.569a.244.244,0,0,1,.223-.082.3.3,0,0,1,.139.085C798.477,491.127,798.3,491.272,798.132,491.418Z" transform="translate(-794.348 -482.744)" fill="#bfc0c4"/><path d="M854.8,504.6c-.031-.105-.237-.135-.166-.254.083-.138.26-.081.4-.08.049.037.113.056.15.111a.087.087,0,0,1-.043.1v.111a.239.239,0,0,1-.209.083A.35.35,0,0,1,854.8,504.6Z" transform="translate(-847.393 -495.344)" fill="#212442"/><path d="M903.228,541.105,903,541c.1-.156.26-.123.408-.13.2-.047.4.113.6.007h.008l.215.123a.418.418,0,0,1,.012.085A2.074,2.074,0,0,1,903.228,541.105Z" transform="translate(-892.623 -529.574)"/><path d="M799.978,485.41l-.226.007c-.025-.33.13-.484.455-.463a.137.137,0,0,1,.028.105.832.832,0,0,1-.059.16.536.536,0,0,1-.058.1C800.082,485.362,800.025,485.376,799.978,485.41Z" transform="translate(-796.087 -477.3)" fill="#2b2d46"/><path d="M851.557,460.628l.069-.109c.176,0,.367-.077.52.107-.17.207-.4.056-.591.1-.036-.022-.049-.044-.037-.065S851.546,460.628,851.557,460.628Z" transform="translate(-844.486 -454.441)" fill="#2c2e47"/><path d="M824.808,473.111a2.086,2.086,0,0,1-.7-.046l.825-.224C824.892,472.931,824.851,473.021,824.808,473.111Z" transform="translate(-818.864 -465.976)" fill="#16182b"/><path d="M843.51,533.81c.227-.189.493-.1.739-.083.157.012.147.13.027.219a.294.294,0,0,1-.157.038C843.913,533.939,843.672,534.006,843.51,533.81Z" transform="translate(-837.002 -522.87)" fill="#31334a"/><path d="M824.26,462.517c.167-.047.375.1.507-.107.065.018.16.014.2.058.065.077,0,.142-.08.143C824.672,462.616,824.444,462.7,824.26,462.517Z" transform="translate(-819.004 -456.225)" fill="#2f3249"/><path d="M864.814,526.762a.705.705,0,0,1-.724.092c-.22-.057-.019-.161.065-.224l-.026.012C864.337,526.808,864.6,526.62,864.814,526.762Z" transform="translate(-856.151 -516.268)" fill="#33354c"/><path d="M796.2,528.88l-.125-.13h.687a.19.19,0,0,1,.019.25C796.547,529.145,796.368,529.036,796.2,528.88Z" transform="translate(-792.648 -518.25)" fill="#0a0b22"/><path d="M862.69,504.728v-.107c.148-.142.354.006.509-.1.065.017.167.012.2.055.055.078-.017.136-.1.14C863.1,504.725,862.894,504.724,862.69,504.728Z" transform="translate(-854.935 -495.596)" fill="#32344a"/><path d="M856.525,467.288l-.785.013A.649.649,0,0,1,856.525,467.288Z" transform="translate(-848.437 -460.667)" fill="#31334a"/><path d="M842.414,470.327a.42.42,0,0,0-.559-.049c-.039-.065-.077-.124-.116-.185a.655.655,0,0,1,.559-.018A.244.244,0,0,1,842.414,470.327Z" transform="translate(-835.347 -463.34)" fill="#00000f"/><path d="M806.7,528.852v-.2c.2.025.412-.08.574.112a.217.217,0,0,0-.227.115.24.24,0,0,1-.225.072A.2.2,0,0,1,806.7,528.852Z" transform="translate(-802.586 -518.157)" fill="#303249"/><path d="M840.21,535.52c.223.058.483-.09.678.123a.529.529,0,0,1-.417.146.974.974,0,0,1-.36-.048.255.255,0,0,1-.13-.12v-.069Z" transform="translate(-833.702 -524.58)" fill="#00000b"/><path d="M840.866,462.4v.1c-.26-.041-.547.1-.786-.1Z" transform="translate(-833.795 -456.215)" fill="#34364c"/><path d="M846.57,474.71c.1-.065.272.061.319-.13a.794.794,0,0,1,.111.016l.243.2-.052.06a.715.715,0,0,1-.538.031.249.249,0,0,1-.113-.1C846.55,474.759,846.559,474.737,846.57,474.71Z" transform="translate(-839.835 -467.603)" fill="#000008"/><path d="M876.82,502.419l.552-.019.231.116a.967.967,0,0,1-.672.012Z" transform="translate(-868.146 -493.614)" fill="#00000b"/><path d="M752.369,506.207l.041-.107a1.252,1.252,0,0,1,.419.451.174.174,0,0,1-.146.045C752.5,506.532,752.314,506.465,752.369,506.207Z" transform="translate(-751.779 -497.073)" fill="#121439"/><path d="M856,539l.325.039c.008.155-.111.172-.218.2-.17.013-.341.027-.46-.136,0-.027.008-.055.013-.083Z" transform="translate(-848.353 -527.834)" fill="#dadadd"/><path d="M866.842,526.93c-.228-.04-.488.109-.682-.12h.68Z" transform="translate(-858.179 -516.436)" fill="#000003"/><path d="M861.667,503.968c-.138.2-.343.05-.509.1l-.109-.107.536-.033A.113.113,0,0,0,861.667,503.968Z" transform="translate(-853.402 -495.044)" fill="#030309"/><path d="M846.9,537.432l.455-.022a.082.082,0,0,0,.088.012c.012.038.023.076.036.113l.016.006c-.065.032-.083.115-.152.142a.314.314,0,0,1-.144,0C847.087,537.612,846.888,537.643,846.9,537.432Z" transform="translate(-840.168 -526.347)" fill="#9a9ba2"/><path d="M878.53,504.2l.672-.012A.513.513,0,0,1,878.53,504.2Z" transform="translate(-869.745 -495.287)" fill="#32344b"/><path d="M828.466,532.088l-.676-.008A.523.523,0,0,1,828.466,532.088Z" transform="translate(-822.305 -521.251)" fill="#31334a"/><path d="M813.78,465.664l.566-.014A.379.379,0,0,1,813.78,465.664Z" transform="translate(-809.206 -459.254)" fill="#303349"/><path d="M842.3,469.167l-.559.018A.374.374,0,0,1,842.3,469.167Z" transform="translate(-835.347 -462.433)" fill="#31334a"/><path d="M858.8,509.44l.25-.01c0,.06,0,.119-.005.179l.034.07a.222.222,0,0,1-.15.017A.235.235,0,0,1,858.8,509.44Z" transform="translate(-851.295 -500.187)" fill="#171739"/><path d="M771.278,522.148l-.207-.047a.092.092,0,0,1-.07-.081.09.09,0,0,1,.053-.092.115.115,0,0,1,.1.014.383.383,0,0,1,.13.073l-.008.012c.032.027.042.054.032.081S771.289,522.148,771.278,522.148Z" transform="translate(-769.209 -511.866)" fill="#e8e8ea"/><path d="M767.26,520.345a.17.17,0,0,1-.2-.116.158.158,0,0,1,.079-.088.092.092,0,0,1,.124.076.075.075,0,0,1,.029.085C767.281,520.331,767.271,520.345,767.26,520.345Z" transform="translate(-765.524 -510.196)" fill="#d5d5d8"/><path d="M806.643,483.536a.454.454,0,0,0,0-.06.231.231,0,0,1,.256-.1c.006.021.012.043.018.065l-.016.065a.376.376,0,0,1-.091.1.224.224,0,0,1-.13.029c-.035-.011-.053-.03-.051-.055S806.634,483.536,806.643,483.536Z" transform="translate(-802.52 -475.824)" fill="#222238"/><path d="M775.27,523.67v-.121c.1,0,.2-.006.235.112C775.425,523.588,775.355,523.807,775.27,523.67Z" transform="translate(-773.2 -513.388)" fill="#dbdbde"/><path d="M760.768,516.379l-.119-.09a.09.09,0,0,1-.04-.105l.047-.043.12.1A.1.1,0,0,1,760.768,516.379Z" transform="translate(-759.488 -506.46)" fill="#d5d5d8"/><path d="M869.025,516.7a.16.16,0,0,0-.023.1c-.094.025-.14-.024-.168-.1a.179.179,0,0,1,.051-.137Z" transform="translate(-860.679 -506.853)" fill="#000032"/><path d="M867.692,516.495v.113a.093.093,0,0,1-.112-.005.1.1,0,0,1-.007-.112Z" transform="translate(-859.486 -506.788)"/><path d="M863.959,514.28l.116.121-.042.051h-.065l-.045-.049a.429.429,0,0,0,0-.065Z" transform="translate(-856.085 -504.721)" fill="#9e9fa5"/><path d="M862.312,512.18l.124.137-.015.053a.112.112,0,0,1-.109-.023.082.082,0,0,1,0-.106l-.025-.029Z" transform="translate(-854.561 -502.758)" fill="#777881"/><path d="M810.27,483.088a.257.257,0,0,0,.031-.107.175.175,0,0,0,.075-.031.87.87,0,0,1,.008.111.081.081,0,0,1-.114.027Z" transform="translate(-805.924 -475.429)" fill="#c2c2c6"/><path d="M763.12,517.865c0-.045,0-.09.007-.135l.142.151Z" transform="translate(-761.84 -507.947)" fill="#eeeef0"/><path d="M757.224,513.045l.124-.005a.339.339,0,0,0,0,.081l-.02.065a.075.075,0,0,1-.1-.037l.008.009c-.036-.021-.05-.044-.042-.07S757.214,513.045,757.224,513.045Z" transform="translate(-756.299 -503.562)" fill="#626471"/><path d="M865.875,516.163c0,.033.008.065.011.1l-.044.044-.062-.005-.04-.047c.006-.02.012-.04.018-.06l.019-.052A.221.221,0,0,0,865.875,516.163Z" transform="translate(-857.787 -506.46)" fill="#bdbec2"/><path d="M759.174,514.29l.112.12a.053.053,0,0,1,0,.055l-.082.01-.06-.055.025-.079Z" transform="translate(-758.119 -504.731)" fill="#a0a0a6"/><path d="M773.54,522.3l-.13-.073Z" transform="translate(-771.461 -512.154)" fill="#a2a3aa"/><path d="M769.99,521.49v-.13l.107.04a.544.544,0,0,0,.005.057.077.077,0,0,1-.122.041Z" transform="translate(-768.254 -511.341)" fill="#eaebed"/><path d="M766.381,519.893l-.079.088-.053-.111Z" transform="translate(-764.767 -509.948)" fill="#eaeaec"/><path d="M854,567.251a.44.44,0,0,1,.369-.1h4.143a.431.431,0,0,1,.368.1,19.571,19.571,0,0,1-2.59.065c-.226.01-.455,0-.68,0A7.3,7.3,0,0,1,854,567.251Z" transform="translate(-846.81 -554.154)" fill="#32344b"/><path d="M877.8,568.744l3.294-.024.107.1-1.116.044-2.285-.042c-.037-.018-.049-.036-.037-.055S877.792,568.744,877.8,568.744Z" transform="translate(-869.028 -555.621)" fill="#000013"/><path d="M872.027,540.188l-.442.042c-.12,0-.2.15-.341.081a1.835,1.835,0,0,1-.914-.08h-.35c-.2.02-.41.173-.581-.065a.166.166,0,0,1,.168-.123c.776-.006,1.552-.008,2.328,0a.126.126,0,0,1,.131.146Z" transform="translate(-861.209 -528.803)" fill="#cfcfd3"/><path d="M929.687,543.335c-.226-.26-.12-.575-.1-.855.024-.386-.087-.626-.464-.724a.62.62,0,0,1,.6,0A6.857,6.857,0,0,1,929.687,543.335Z" transform="translate(-917.045 -530.339)" fill="#32344b"/><path d="M804.694,532.25l.236-.02c.161.162.437.022.585.224-.007.036-.012.073-.016.11-.121.142-.284.113-.441.109a.558.558,0,0,1-.149-.035,1.764,1.764,0,0,0-.423-.143.158.158,0,0,1-.048-.13C804.494,532.261,804.616,532.306,804.694,532.25Z" transform="translate(-800.471 -521.504)" fill="#bdbdc2"/><path d="M883.67,542.586c.306.016.624-.116.914.08C884.263,542.821,883.944,542.964,883.67,542.586Z" transform="translate(-874.551 -531.159)" fill="#191d3f"/><path d="M937.207,542.6v-1.589c-.04-.025-.053-.05-.038-.074s.028-.035.042-.035l0-.009A3.133,3.133,0,0,1,937.207,542.6Z" transform="translate(-924.565 -529.601)" fill="#03031a"/><path d="M854.006,568.725v.082l-.806.042-.89-.037.11-.112Z" transform="translate(-845.23 -555.602)" fill="#030304"/><path d="M854.514,541.6l.556.04-.228.1a6.738,6.738,0,0,1-1.3.036.126.126,0,0,1-.08-.158c.183-.117.386-.033.578-.058C854.2,541.59,854.363,541.495,854.514,541.6Z" transform="translate(-846.3 -530.218)" fill="#000001"/><path d="M852.4,544l1.346.016a2.186,2.186,0,0,1-1.463,0A.07.07,0,0,1,852.4,544Z" transform="translate(-845.202 -532.485)" fill="#32344b"/><path d="M824.107,537.41l.13.007c.046.081.176.02.208.125-.112.051-.226.1-.335.155-.093.049-.19.047-.236-.041-.074-.141.137-.135.148-.241Z" transform="translate(-818.628 -526.347)" fill="#000004"/><path d="M833.7,565.481c-.174-.211-.414-.053-.615-.112.223-.2.486-.087.732-.089.073,0,.145.065.079.142C833.865,565.466,833.772,565.464,833.7,565.481Z" transform="translate(-827.26 -552.379)" fill="#32344a"/><path d="M745.732,507.68h.19l.029.109a.161.161,0,0,1,0,.233l-.222.335Z" transform="translate(-745.581 -498.551)" fill="#32344a"/><path d="M906.5,544.358l1.014-.018A1.035,1.035,0,0,1,906.5,544.358Z" transform="translate(-895.896 -532.826)" fill="#32344a"/><path d="M807.717,536.718a.689.689,0,0,1-.907-.1.267.267,0,0,1,.343-.017h0C807.319,536.75,807.549,536.58,807.717,536.718Z" transform="translate(-802.689 -525.539)" fill="#2c2f47"/><path d="M795.257,532.862a.787.787,0,0,0,.048.086c-.024.044-.055.049-.091.015-.2-.028-.455.245-.6-.106l.222-.036A.343.343,0,0,1,795.257,532.862Z" transform="translate(-791.282 -522.006)" fill="#111123"/><path d="M836.214,540.613c-.186.176-.414.1-.622.085-.154-.014-.161-.117-.035-.211A.659.659,0,0,1,836.214,540.613Z" transform="translate(-829.484 -529.195)" fill="#303249"/><path d="M749.17,509.653v-.233a.843.843,0,0,0,.106.02c.135.061.272.12.241.31C749.318,510.007,749.289,509.672,749.17,509.653Z" transform="translate(-748.798 -500.177)" fill="#090b37"/><path d="M751.011,508.14l-.241-.31.113-.13.336.35c.005.036.01.073.012.111Z" transform="translate(-750.294 -498.569)" fill="#d6d6d9"/><path d="M829.927,537.215c-.072-.037-.2.022-.207-.125l.666-.03.113.042a.1.1,0,0,1-.033.146.291.291,0,0,1-.325-.035Z" transform="translate(-824.109 -526.02)" fill="#dfdfe1"/><path d="M928.117,538.971c0,.036,0,.073,0,.109l-.565.01a.281.281,0,0,1-.109-.26C927.638,539.017,927.886,538.951,928.117,538.971Z" transform="translate(-915.474 -527.675)" fill="#000007"/><path d="M837.225,539.625c-.216-.06-.473.1-.658-.126l-.018-.013c.164-.069.347-.033.515-.086a.945.945,0,0,1,.256.06.1.1,0,0,1,.017.152Z" transform="translate(-830.495 -528.208)" fill="#000009"/><path d="M803.646,535.565a.269.269,0,0,0,.091-.015c.152.023.33-.055.442.119l-.343.017C803.746,535.686,803.572,535.819,803.646,535.565Z" transform="translate(-799.714 -524.608)" fill="#010214"/><path d="M821.429,563.593l-.559-.012A.377.377,0,0,1,821.429,563.593Z" transform="translate(-815.835 -550.706)" fill="#33354b"/><path d="M811.015,561.845l-.555-.01A.379.379,0,0,1,811.015,561.845Z" transform="translate(-806.102 -549.075)" fill="#2f3249"/><path d="M836.827,538.553h-.567a.13.13,0,0,0-.02-.086l.354-.023C836.715,538.388,836.82,538.364,836.827,538.553Z" transform="translate(-830.205 -527.276)" fill="#9a9ba2"/><path d="M812.653,537.5c-.189-.031-.409.082-.563-.118h.562C812.653,537.42,812.653,537.458,812.653,537.5Z" transform="translate(-807.626 -526.319)" fill="#000009"/><path d="M848.67,540.352a.589.589,0,0,0,0-.1c.065-.086.142-.076.224-.027l.144-.036a.14.14,0,0,1-.018.151v.119l-.117.014Z" transform="translate(-841.827 -528.948)" fill="#171838"/><path d="M758.166,516.118a.1.1,0,0,1-.108-.113.065.065,0,0,1,.1.016l-.007-.007c.029.02.04.042.034.065S758.175,516.118,758.166,516.118Z" transform="translate(-757.106 -506.317)" fill="#909098"/><path d="M770,522.941l.122-.041.012.116Z" transform="translate(-768.273 -512.781)" fill="#a2a3aa"/><path d="M757.864,514.8a.524.524,0,0,1-.1-.016.444.444,0,0,1-.022-.1l.116.026C757.86,514.737,757.862,514.766,757.864,514.8Z" transform="translate(-756.81 -505.095)" fill="#f0f0f2"/><path d="M759.544,516.495a.945.945,0,0,1-.014-.1l.117.036a.749.749,0,0,0,0,.094A.256.256,0,0,1,759.544,516.495Z" transform="translate(-758.484 -506.694)" fill="#ebebed"/><path d="M882.8,622.289c.274-.028.508-.065.507.36s-.266.345-.52.366c-.309.025-.483-.036-.481-.412C882.316,622.186,882.578,622.286,882.8,622.289Z" transform="translate(-873.279 -605.691)" fill="#f3faf3"/><path d="M901.259,614.028c-.26.073-.531.3-.76.007-.079-.1-.118-.354.092-.429C900.963,613.472,901.115,613.746,901.259,614.028Z" transform="translate(-890.226 -597.555)" fill="#ecf7eb"/><path d="M874.92,575.76l1.719-.01.315,0c-.181.26-.451.111-.663.105A2.829,2.829,0,0,1,874.92,575.76Z" transform="translate(-866.37 -562.194)" fill="#4eb83c"/><path d="M894.365,661.155c.377.179.187.445.107.695-.151-.118-.468-.008-.463-.339.134.065.33.109.4.019.111-.142-.137-.217-.166-.353a.084.084,0,0,1,.122-.022Z" transform="translate(-884.217 -642.029)" fill="#62c153"/><path d="M907.84,657.625c-.4-.054-.107-.4-.232-.563a.111.111,0,0,1,.006-.159.276.276,0,0,1,.334.021C907.922,657.159,907.735,657.369,907.84,657.625Z" transform="translate(-896.903 -638.025)" fill="#63c353"/><path d="M898.506,637.3c-.033.233-.142.251-.26.241s-.18-.065-.165-.178c.02-.146.138-.155.254-.15S898.512,637.265,898.506,637.3Z" transform="translate(-888.023 -619.66)" fill="#eef7ed"/><path d="M887.946,652.934c-.033-.016-.08-.023-.1-.05-.079-.123-.383.09-.314-.152s.277-.173.425-.006a.14.14,0,0,1-.014.208Z" transform="translate(-878.155 -634.023)" fill="#62c153"/><path d="M894,654.973l.014-.208c.26-.065.28.254.475.292l-.134.13-.122.022Z" transform="translate(-884.209 -636.062)" fill="#c7e8c2"/><path d="M907.732,653.89h-.33a.15.15,0,0,1-.018-.216C907.632,653.535,907.729,653.637,907.732,653.89Z" transform="translate(-896.687 -634.991)" fill="#e6f5e4"/><path d="M903.935,653.063l.018.216-.01.14-.219-.016a.473.473,0,0,1-.023-.443Z" transform="translate(-893.238 -634.382)" fill="#5dc24d"/><path d="M902.184,653c.008.148.015.3.023.443l-.143-.021C902.137,653.288,901.887,653.065,902.184,653Z" transform="translate(-891.72 -634.42)" fill="#bae3b4"/><path d="M941.828,474.158c-.225.282-.273-.228-.463-.1-.167.026-.346.117-.475-.082.065-.2.274-.044.368-.163.272-.059.55-.139.691.218C941.938,474.1,941.873,474.119,941.828,474.158Z" transform="translate(-928.049 -466.834)" fill="#bababf"/><path d="M1008.95,517.972c.265.049.6-.207.787.185a.632.632,0,0,1-.78.027.047.047,0,0,0-.009-.06.1.1,0,0,1,0-.152Z" transform="translate(-991.651 -508.138)" fill="#000009"/><path d="M1030.913,509.58a1.372,1.372,0,0,1,.093.1c-.121.225-.254.436-.546.455C1030.478,509.844,1030.706,509.72,1030.913,509.58Z" transform="translate(-1011.794 -500.327)" fill="#e2e2e5"/><path d="M955.31,478.05l.122-.13.325.016c.15.01.308,0,.39.168a.158.158,0,0,1-.047.137Z" transform="translate(-941.531 -470.726)" fill="#dfdfe2"/><path d="M1009.359,521.377l.78-.027.125.031-.116.221-.215.016-.113-.023c-.137-.1-.343.073-.455-.116a.09.09,0,0,1-.006-.1Z" transform="translate(-992.053 -511.332)" fill="#e1e1e3"/><path d="M999.707,516.53v.152l-.2-.065c-.169,0-.354.061-.477-.122v-.087C999.258,516.432,999.516,516.3,999.707,516.53Z" transform="translate(-982.408 -506.696)" fill="#000009"/><path d="M962.565,477.35c-.043-.187-.269-.081-.345-.216a.358.358,0,0,1,.568.2A.138.138,0,0,1,962.565,477.35Z" transform="translate(-947.992 -469.925)" fill="#141425"/><path d="M932.922,470.255c-.026-.126-.141-.1-.222-.13l.112-.1a.656.656,0,0,1,.559.018l-.229.2A.131.131,0,0,1,932.922,470.255Z" transform="translate(-920.392 -463.293)" fill="#00000e"/><path d="M1023.571,518.46a.7.7,0,0,1-.1.032c-.043-.044-.085-.088-.13-.133a.729.729,0,0,1,.463-.229C1023.8,518.291,1023.662,518.36,1023.571,518.46Z" transform="translate(-1005.137 -508.321)" fill="#b2b3b8"/><path d="M946.6,462.21l.676.012A.515.515,0,0,1,946.6,462.21Z" transform="translate(-933.388 -456.038)" fill="#303249"/><path d="M936.054,474.107l.22-.017.455.03c-.09.134-.242.086-.364.125a.282.282,0,0,1-.207.049.138.138,0,0,1-.109-.085A.539.539,0,0,0,936.054,474.107Z" transform="translate(-923.524 -467.145)" fill="#dadadc"/><path d="M958.82,463.79l.56.021A.368.368,0,0,1,958.82,463.79Z" transform="translate(-944.813 -457.515)" fill="#303249"/><path d="M934.959,469.184l-.559-.018A.374.374,0,0,1,934.959,469.184Z" transform="translate(-921.981 -462.433)" fill="#31334a"/><path d="M967.5,481.283l.224-.013.1.049a.093.093,0,0,1,.072.08.1.1,0,0,1-.055.094l-.054.006-.051-.019a.405.405,0,0,1-.13-.077.486.486,0,0,1-.108-.031C967.5,481.342,967.5,481.313,967.5,481.283Z" transform="translate(-952.929 -473.858)" fill="#e3e3e5"/><path d="M982.559,487.938a.334.334,0,0,0,.014.107.145.145,0,0,1-.119.057.265.265,0,0,1-.133-.033.3.3,0,0,1-.05-.13v-.07c0-.023.02-.042.031-.065a.187.187,0,0,1,.13-.027C982.493,487.817,982.513,487.888,982.559,487.938Z" transform="translate(-966.738 -479.94)" fill="#e1e2e4"/><path d="M973.936,483.29a.092.092,0,0,1-.124-.076.175.175,0,0,1-.042-.109l.049-.035.226.126-.016.051A.439.439,0,0,0,973.936,483.29Z" transform="translate(-958.791 -475.541)" fill="#d5d5d8"/><path d="M984.489,487.036l-.111-.109c-.038-.026-.051-.052-.038-.078s.027-.038.04-.038C984.476,486.854,984.478,486.947,984.489,487.036Z" transform="translate(-968.669 -479.038)" fill="#000035"/><path d="M984.338,491.938l.137-.008c.065.014.1.048.094.119l-.186-.011-.027-.012-.017.023c-.031-.025-.04-.049-.031-.074S984.327,491.938,984.338,491.938Z" transform="translate(-968.64 -483.825)" fill="#d6d6d9"/><path d="M977.532,485.216l-.124-.085a.065.065,0,0,1-.023-.1l.028-.034.122.077a.081.081,0,0,1,0,.139Z" transform="translate(-962.159 -477.345)" fill="#d5d5d8"/><path d="M972.51,482.132a.283.283,0,0,1-.011-.112l.13.068,0,.051A.325.325,0,0,1,972.51,482.132Z" transform="translate(-957.602 -474.559)" fill="#a4a5ab"/><path d="M982.941,486.763v.116a.29.29,0,0,1-.107-.022c-.029-.018-.04-.038-.034-.061s.014-.036.022-.036Z" transform="translate(-967.231 -478.991)" fill="#00001d"/><path d="M981.071,486.726c0,.033.008.065.012.1a.042.042,0,0,1,0,.059l-.071.01-.061-.038a.088.088,0,0,1,.015-.123A.305.305,0,0,1,981.071,486.726Z" transform="translate(-965.484 -478.957)" fill="#b3b3b8"/><path d="M979.757,486.2v.116a.08.08,0,0,1-.117,0l.012-.02c0-.047,0-.094,0-.141A.175.175,0,0,1,979.757,486.2Z" transform="translate(-964.279 -478.43)" fill="#eeeef0"/><path d="M979.65,518.36a.2.2,0,0,1,.241.093.265.265,0,0,1-.045.156.342.342,0,0,1-.076.077c-.056.451.114.918-.105,1.356Q979.658,519.2,979.65,518.36Z" transform="translate(-964.289 -508.531)" fill="#383a4e"/><path d="M1018.255,526.85a2.54,2.54,0,0,1,0,1.61Q1018.255,527.656,1018.255,526.85Z" transform="translate(-1000.383 -516.474)" fill="#34364c"/><path d="M994.858,518c.158.046.349-.037.478.122l-.149.141c-.185.065-.371.158-.54-.034-.025-.074-.051-.147-.077-.221Z" transform="translate(-978.238 -508.199)" fill="#b1b2b7"/><path d="M981.57,518.437l.116-.109c.124-.011.274.065.347-.108h.223l-.13.235A.632.632,0,0,1,981.57,518.437Z" transform="translate(-966.084 -508.405)" fill="#00000f"/><path d="M1006.188,523.251c.153.033.345-.084.455.116l-.135.017a.675.675,0,0,1-.559-.015Z" transform="translate(-988.878 -513.104)" fill="#00000d"/><path d="M993.87,521.48l.54.034-.11.1a.682.682,0,0,1-.561-.011Z" transform="translate(-977.462 -511.453)" fill="#00000e"/><path d="M981.5,521.55l.555.02c-.16.178-.372.076-.56.1C981.5,521.633,981.5,521.592,981.5,521.55Z" transform="translate(-966.018 -511.518)" fill="#303249"/><path d="M993.74,523.41l.561.011A.379.379,0,0,1,993.74,523.41Z" transform="translate(-977.462 -513.258)" fill="#303249"/><path d="M1008.369,547.844l-.559-.013A.375.375,0,0,1,1008.369,547.844Z" transform="translate(-990.617 -535.98)" fill="#31344a"/><path d="M996.084,546.123l-.564-.014A.384.384,0,0,1,996.084,546.123Z" transform="translate(-979.127 -534.371)" fill="#31334a"/><path d="M983.953,544.362l-.553-.007A.384.384,0,0,1,983.953,544.362Z" transform="translate(-967.795 -532.734)" fill="#32334a"/><path d="M1006,525.13l.559.015A.377.377,0,0,1,1006,525.13Z" transform="translate(-988.925 -514.866)" fill="#31334a"/><path d="M931.676,488.53c-.213-.226-.49-.038-.726-.115.26-.2.561-.079.845-.086.07,0,.146.065.079.143C931.834,488.515,931.743,488.512,931.676,488.53Z" transform="translate(-918.756 -480.43)" fill="#32344b"/><path d="M937.22,476.52h.205c.137.119.316.071.471.12a.513.513,0,0,1-.687-.008l-.029-.058Z" transform="translate(-924.581 -469.417)" fill="#0b0b1b"/><path d="M927.346,477.1a1,1,0,0,0,.107-.009.687.687,0,0,1,.566,0l-.012.016c-.2.189-.446.065-.669.1A.523.523,0,0,1,927.346,477.1Z" transform="translate(-915.378 -469.896)" fill="#31334a"/><path d="M950.717,490.163l-.557-.007A.383.383,0,0,1,950.717,490.163Z" transform="translate(-936.716 -482.058)" fill="#30324a"/><path d="M981.716,489.482c0,.03.007.06.008.09a.076.076,0,0,1,.028.085c-.011.027-.021.041-.032.041a.173.173,0,0,1-.107-.2c.011-.028.023-.056.034-.084Z" transform="translate(-966.124 -481.478)" fill="#000537"/><path d="M979.65,488.49h.117l-.006-.01c.032.019.044.04.036.065s-.017.036-.027.036l.021.021-.014.027Z" transform="translate(-964.289 -480.599)" fill="#797a83"/><path d="M983.26,491.9l0-.126c.032.007.065.013.1.018a.169.169,0,0,1,0,.112Z" transform="translate(-967.664 -483.675)"/><path d="M976.4,485.53a.376.376,0,0,1,.023.1.164.164,0,0,1-.1-.036A.086.086,0,0,1,976.4,485.53Z" transform="translate(-961.175 -477.841)" fill="#eaeaec"/><path d="M972.69,483.74l.115.007a.381.381,0,0,0,0,.094l-.107-.038A.225.225,0,0,0,972.69,483.74Z" transform="translate(-957.781 -476.167)" fill="#eaeaec"/><path d="M969.18,483.31l.13.077Z" transform="translate(-954.5 -475.765)" fill="#a4a5ab"/><path d="M802.17,476.973l.114-.027a.617.617,0,0,0,.68-.109c.219.1.273-.217.465-.187a.511.511,0,0,0,.483-.065c.235.112.426-.113.65-.085v.019a.922.922,0,0,0,.677-.01l0-.006.362-.094c.118.157.29.081.44.1v.788l-.124,0a2.521,2.521,0,0,0-1.126.009c.13.172.341.06.5.137a1.317,1.317,0,0,1-.624.077c-.079-.061-.183-.034-.267-.075a.8.8,0,0,0-.451.01.211.211,0,0,1,.065.094.775.775,0,0,1-.472.091.363.363,0,0,0-.512,0c-.2.09-.442.06-.62.213a1.4,1.4,0,0,0-.347.243c-.252.325-.334.065-.447-.109-.048-.234.284-.325.211-.572l.025-.052a.986.986,0,0,0,.065-.095l.036-.046a.709.709,0,0,1,.091-.075l.046-.036c.037-.047.05-.107.089-.152Z" transform="translate(-797.824 -469.314)" fill="#242743"/><path d="M929.665,476.023H929.1a.972.972,0,0,1,0-.107l.455-.027.11.039Z" transform="translate(-917.023 -468.828)" fill="#000009"/><path d="M850.46,488.276a1.291,1.291,0,0,1,1.126-.009Z" transform="translate(-843.5 -480.283)" fill="#32344a"/><path d="M852.468,511.216c-.189.144-.377.057-.566,0-.151-.215-.5.1-.608-.224.028-.17-.065-.358.076-.51.148-.058.176.168.315.13a.111.111,0,0,1,.152.031.322.322,0,0,0,.12.116,1.077,1.077,0,0,0,.1.045.13.13,0,0,1,.086.065l-.01-.01a.329.329,0,0,1,.122.123l-.009-.006a1.508,1.508,0,0,1,.15.086A.184.184,0,0,1,852.468,511.216Z" transform="translate(-844.275 -501.162)" fill="#2d3048"/><path d="M822.52,491.794c.224-.153.435-.234.567.107l-.33.014C822.616,491.993,822.579,491.872,822.52,491.794Z" transform="translate(-817.377 -483.574)" fill="#2f3149"/><path d="M814.4,493.69l.237.12a1.743,1.743,0,0,1-.8.2C813.936,493.741,814.263,493.88,814.4,493.69Z" transform="translate(-809.262 -485.47)" fill="#191b2e"/><path d="M834.994,491.18l-.244-.126a.976.976,0,0,1,.672-.012l.225.107Z" transform="translate(-828.812 -482.945)" fill="#03030c"/><path d="M850.471,519.344c.172.091.425-.158.55.13l-.666-.016a.119.119,0,0,1,.012-.109C850.4,519.294,850.434,519.289,850.471,519.344Z" transform="translate(-843.395 -509.419)"/><path d="M850.313,510.354q-.051.005-.1.006c-.011-.226-.089-.455.053-.67a.082.082,0,0,1,.036.018.32.32,0,0,1,.033.044C850.325,509.952,850.319,510.153,850.313,510.354Z" transform="translate(-843.237 -500.43)" fill="#01012d"/><path d="M857.491,509.84l-.121-.122v-.2a.312.312,0,0,1,.095,0l.144.2a.181.181,0,0,1,.037.12l-.044.048A.1.1,0,0,1,857.491,509.84Z" transform="translate(-849.961 -500.265)" fill="#d4d4d7"/><path d="M867.961,518.254l-.1-.115v-.078a.042.042,0,0,0,.009-.06.257.257,0,0,0,.108.02l.116.13Z" transform="translate(-859.769 -508.199)" fill="#e6e6e8"/><path d="M862.508,539.386h-.455c-.039-.012-.054-.029-.046-.05s.019-.034.031-.034l.229-.1c.958-.005,1.916,0,2.873-.025.2,0,.343.137.532.124-.161.2-.373.065-.561.084A7.73,7.73,0,0,0,862.508,539.386Z" transform="translate(-854.294 -528)" fill="#c1c1c6"/><path d="M837.117,476.663c-.221.086-.416.346-.687.109v-.079l.687-.113A.583.583,0,0,0,837.117,476.663Z" transform="translate(-830.383 -469.473)" fill="#0b0c1e"/><path d="M830.085,477.272v.079a.266.266,0,0,1-.445.038c.113-.057.3.011.325-.189Z" transform="translate(-824.034 -470.053)" fill="#0b0d1d"/><path d="M798.427,530.927l-.427-.041V530.7c.2-.031.362.163.563.065l.109.051Z" transform="translate(-794.452 -520.071)" fill="#dddddf"/><path d="M803.27,490.452c.006-.073.042-.112.118-.107l.04.054q-.016.029-.033.059l-.021-.011h-.052Z" transform="translate(-799.379 -482.342)" fill="#eeeef0"/><path d="M804.968,488.123a.206.206,0,0,1,.012-.11l.079-.044.062.065-.048.076.006.008a.078.078,0,0,1-.119-.007Z" transform="translate(-800.959 -480.122)" fill="#f0f1f2"/><path d="M805.37,486.061a.636.636,0,0,0-.1.008l.1-.179.022.033-.027.029c.032.023.044.047.034.072S805.382,486.061,805.37,486.061Z" transform="translate(-801.249 -478.178)" fill="#9fa0a6"/><path d="M842.366,537.909l-.224.027-.219-.031-.233-.107v-.088h.338Z" transform="translate(-835.301 -526.628)" fill="#d4d5d8"/><path d="M847.677,478a.522.522,0,0,1-.677.01Z" transform="translate(-840.265 -470.801)" fill="#31334a"/><path d="M854.593,539.527a.749.749,0,0,1,.015.085l-.568.01c.005-.05.011-.1.018-.151l.115-.051C854.283,539.572,854.452,539.494,854.593,539.527Z" transform="translate(-846.847 -528.226)" fill="#96969e"/><path d="M861,512.658a.408.408,0,0,0,0-.1.4.4,0,0,1,.1.036.548.548,0,0,1,0,.109l-.077.033A.337.337,0,0,0,861,512.658Z" transform="translate(-853.355 -503.113)" fill="#ececee"/><path d="M808.078,484.88c-.007.094.012.2-.124.222a.088.088,0,0,1-.031-.09c.008-.031.018-.046.027-.046Z" transform="translate(-803.727 -477.233)" fill="#dbdbde"/><path d="M806.818,486.21l0,.135.009.016a.082.082,0,0,1-.121-.008l.007.007v-.109A.2.2,0,0,1,806.818,486.21Z" transform="translate(-802.596 -478.477)" fill="#f0f1f2"/><path d="M862.21,514.815c-.034-.011-.069-.021-.1-.029s-.058-.039-.046-.061.026-.035.04-.035l-.008.006.11.021A.3.3,0,0,0,862.21,514.815Z" transform="translate(-854.342 -505.105)" fill="#f2f2f3"/><path d="M864.392,516.583l-.122-.123.114.031A.361.361,0,0,0,864.392,516.583Z" transform="translate(-856.412 -506.759)" fill="#f0f0f2"/><path d="M866.124,518.3v.078L866,518.26Z" transform="translate(-858.03 -508.442)" fill="#e6e6e9"/><path d="M981.37,488.579a.733.733,0,0,0-.01-.1l.122.044a.651.651,0,0,0,0,.079A.629.629,0,0,1,981.37,488.579Z" transform="translate(-965.887 -480.599)" fill="#e7e7e9"/><path d="M835.422,490.012l-.672.012C834.97,489.79,835.2,489.9,835.422,490.012Z" transform="translate(-828.812 -481.914)" fill="#32344a"/><path d="M805,490.16l.119.007-.1.117Z" transform="translate(-800.997 -482.17)" fill="#636471"/><path d="M806.691,488.42l.121.008-.122.1A.493.493,0,0,0,806.691,488.42Z" transform="translate(-802.577 -480.543)" fill="#8b8c94"/><path d="M860.669,514.082a.524.524,0,0,0,.006.1l-.12.018a.065.065,0,0,1-.028-.065c.005-.023.011-.036.018-.036a.055.055,0,0,1,.014-.056Z" transform="translate(-852.911 -504.497)" fill="#acadb2"/><path d="M859.333,514.555a.433.433,0,0,1,.01.1l-.113-.125A.478.478,0,0,1,859.333,514.555Z" transform="translate(-851.7 -504.955)"/></g></g></svg>