<svg xmlns="http://www.w3.org/2000/svg" viewBox="0 0 236.27 257.93"><defs><style>.cls-1{fill:#6d6e71;}.cls-2{fill:#76bc21;}</style></defs><g id="Layer_2" data-name="Layer 2"><g id="Layer_1-2" data-name="Layer 1"><path class="cls-1" d="M195,99.13H118.06l15,22.79,11,16.39h50.69a79.24,79.24,0,0,1-24.84,39.76l21.5,32.76a118.23,118.23,0,0,0,43.37-111.7Z"/><path class="cls-1" d="M44.54,210.54,66,177.71A79.18,79.18,0,1,1,182.38,71.85h44.48A118.15,118.15,0,1,0,44.54,210.54Z"/><polygon class="cls-2" points="117.86 156.24 98.35 186.09 137.45 186.09 117.86 156.24"/><polygon class="cls-1" points="183.65 257.93 51.09 257.93 77.03 218.61 158.59 218.61 183.65 257.93"/></g></g></svg>