<svg id="svg" version="1.1" xmlns="http://www.w3.org/2000/svg" xmlns:xlink="http://www.w3.org/1999/xlink" width="400" height="444.44444444444446" viewBox="0, 0, 400,444.44444444444446"><g id="svgg"><path id="path0" d="M184.200 35.670 C 174.481 36.724,166.942 37.776,161.400 38.852 C 160.300 39.066,158.680 39.340,157.800 39.461 C 156.920 39.583,156.029 39.844,155.820 40.041 C 155.611 40.238,154.767 40.400,153.944 40.400 C 153.121 40.400,152.336 40.580,152.200 40.800 C 152.064 41.020,151.522 41.200,150.995 41.200 C 150.469 41.200,149.624 41.361,149.119 41.558 C 148.613 41.755,147.390 42.138,146.400 42.409 C 144.079 43.044,139.201 44.741,138.305 45.225 C 137.923 45.431,137.259 45.600,136.829 45.600 C 136.399 45.600,135.936 45.780,135.800 46.000 C 135.664 46.220,135.201 46.400,134.771 46.400 C 134.341 46.400,133.677 46.565,133.295 46.767 C 131.990 47.457,128.809 48.800,128.479 48.800 C 128.298 48.800,127.351 49.177,126.375 49.639 C 125.399 50.100,123.610 50.929,122.400 51.481 C 118.117 53.435,110.060 57.539,109.600 58.001 C 109.490 58.111,108.860 58.465,108.200 58.788 C 107.540 59.111,106.248 59.876,105.328 60.488 C 104.408 61.099,103.478 61.600,103.261 61.600 C 103.044 61.600,102.807 61.735,102.733 61.900 C 102.660 62.065,100.730 63.460,98.444 65.000 C 87.564 72.331,81.535 77.331,71.634 87.236 C 66.856 92.017,66.733 92.154,61.806 98.200 C 59.833 100.620,58.120 102.690,57.999 102.800 C 56.655 104.015,48.000 116.816,48.000 117.588 C 48.000 117.815,47.865 118.001,47.700 118.003 C 47.535 118.005,47.204 118.410,46.964 118.903 C 46.426 120.009,44.309 123.859,42.622 126.800 C 41.358 129.004,37.486 136.853,35.942 140.342 C 34.590 143.399,34.209 144.349,32.873 148.000 C 32.430 149.210,31.603 151.464,31.034 153.008 C 30.465 154.553,30.000 156.118,30.000 156.485 C 30.000 156.852,29.820 157.264,29.600 157.400 C 29.380 157.536,29.200 158.166,29.200 158.800 C 29.200 159.434,29.020 160.064,28.800 160.200 C 28.580 160.336,28.400 160.966,28.400 161.600 C 28.400 162.234,28.220 162.864,28.000 163.000 C 27.780 163.136,27.600 163.856,27.600 164.600 C 27.600 165.344,27.439 166.052,27.242 166.174 C 27.045 166.295,26.787 167.071,26.668 167.897 C 26.549 168.724,26.268 170.210,26.043 171.200 C 25.819 172.190,25.462 173.900,25.251 175.000 C 25.039 176.100,24.760 177.270,24.629 177.600 C 21.202 186.271,21.266 226.940,24.729 240.209 C 24.957 241.084,25.350 242.880,25.602 244.200 C 26.104 246.831,26.652 249.133,27.227 251.028 C 27.432 251.704,27.600 252.728,27.600 253.305 C 27.600 253.881,27.780 254.464,28.000 254.600 C 28.220 254.736,28.400 255.289,28.400 255.829 C 28.400 256.369,28.562 257.123,28.759 257.505 C 28.956 257.887,29.529 259.550,30.031 261.200 C 31.048 264.541,32.662 269.031,33.230 270.095 C 33.433 270.477,33.600 271.064,33.600 271.400 C 33.600 271.736,33.765 272.323,33.966 272.705 C 34.399 273.529,35.920 276.925,37.232 280.000 C 38.569 283.134,44.663 295.064,45.201 295.600 C 45.311 295.710,45.671 296.340,46.000 297.000 C 46.329 297.660,46.689 298.290,46.799 298.400 C 46.910 298.510,47.225 299.005,47.500 299.500 C 47.775 299.995,48.225 300.805,48.500 301.300 C 48.775 301.795,49.095 302.290,49.212 302.400 C 49.790 302.946,52.400 306.849,52.400 307.168 C 52.400 307.369,52.545 307.593,52.722 307.667 C 52.900 307.740,54.288 309.600,55.807 311.800 C 61.078 319.430,72.840 332.591,77.650 336.240 C 78.227 336.678,79.757 337.963,81.050 339.096 C 86.900 344.223,86.764 344.127,87.401 343.599 C 87.731 343.326,88.000 342.888,88.000 342.626 C 88.000 342.365,88.315 341.802,88.700 341.375 C 89.085 340.949,89.655 340.105,89.968 339.500 C 90.280 338.895,90.685 338.400,90.868 338.400 C 91.050 338.400,91.200 338.218,91.200 337.996 C 91.200 337.486,95.623 330.646,96.069 330.467 C 96.251 330.393,96.400 330.174,96.400 329.979 C 96.400 329.784,97.255 328.336,98.300 326.761 C 99.345 325.185,100.534 323.335,100.942 322.648 C 101.350 321.962,101.845 321.340,102.042 321.267 C 102.239 321.193,102.400 320.968,102.400 320.765 C 102.400 320.562,104.509 317.202,107.086 313.298 C 109.663 309.394,112.026 305.705,112.336 305.100 C 112.646 304.495,113.057 304.000,113.250 304.000 C 113.442 304.000,113.600 303.764,113.600 303.475 C 113.600 303.187,113.960 302.564,114.400 302.092 C 114.840 301.620,115.200 301.123,115.200 300.989 C 115.200 300.854,115.740 299.959,116.400 299.000 C 118.074 296.567,118.148 296.722,112.678 291.184 C 109.971 288.443,106.866 285.123,105.778 283.806 C 104.690 282.489,103.384 280.959,102.876 280.406 C 98.705 275.868,89.478 259.824,87.000 252.800 C 86.686 251.911,86.135 250.512,85.774 249.692 C 84.758 247.381,84.527 246.735,84.018 244.800 C 83.759 243.810,83.378 242.447,83.173 241.772 C 82.968 241.096,82.800 240.239,82.800 239.866 C 82.800 239.494,82.637 238.877,82.437 238.495 C 81.949 237.559,81.232 234.820,80.753 232.064 C 80.537 230.819,80.169 228.720,79.936 227.400 C 78.597 219.820,77.988 204.795,78.761 198.400 C 79.739 190.304,80.606 184.986,81.370 182.400 C 81.663 181.410,82.089 179.880,82.318 179.000 C 83.340 175.071,83.712 173.747,84.005 173.000 C 84.178 172.560,84.536 171.570,84.800 170.800 C 85.064 170.030,85.430 169.040,85.612 168.600 C 85.794 168.160,86.326 166.720,86.793 165.400 C 87.868 162.366,92.975 151.941,94.470 149.728 C 95.092 148.808,95.600 147.863,95.600 147.628 C 95.600 147.393,95.780 147.200,96.000 147.200 C 96.220 147.200,96.400 146.930,96.400 146.600 C 96.400 146.270,96.580 146.000,96.800 146.000 C 97.020 146.000,97.200 145.807,97.200 145.570 C 97.200 145.175,101.398 138.856,101.963 138.400 C 102.100 138.290,103.289 136.764,104.606 135.009 C 108.269 130.125,116.128 122.365,122.959 116.884 C 123.862 116.160,124.937 115.288,125.349 114.946 C 126.661 113.856,134.004 109.200,134.410 109.200 C 134.624 109.200,134.800 109.051,134.800 108.869 C 134.800 108.574,139.831 105.828,146.000 102.757 C 147.210 102.154,150.450 100.827,153.200 99.806 C 155.950 98.786,158.513 97.782,158.895 97.576 C 159.277 97.369,160.121 97.200,160.771 97.200 C 161.421 97.200,162.052 97.040,162.173 96.844 C 162.294 96.649,162.979 96.401,163.696 96.295 C 164.413 96.188,166.350 95.734,168.000 95.285 C 171.098 94.443,173.383 93.986,178.200 93.245 C 179.740 93.007,182.260 92.617,183.799 92.378 C 187.272 91.837,205.778 91.826,208.557 92.363 C 209.680 92.580,211.950 92.960,213.600 93.208 C 215.250 93.455,218.130 94.023,220.000 94.468 C 221.870 94.913,223.987 95.370,224.704 95.483 C 225.421 95.596,226.106 95.849,226.227 96.044 C 226.348 96.240,226.878 96.400,227.405 96.400 C 227.931 96.400,228.776 96.561,229.281 96.758 C 229.787 96.955,231.010 97.348,232.000 97.630 C 232.990 97.913,233.980 98.266,234.200 98.415 C 234.420 98.564,235.950 99.187,237.600 99.800 C 239.250 100.413,240.780 101.036,241.000 101.185 C 241.220 101.334,242.165 101.697,243.100 101.992 C 244.035 102.287,244.800 102.679,244.800 102.864 C 244.800 103.049,245.145 103.200,245.567 103.200 C 245.988 103.200,246.393 103.335,246.467 103.500 C 246.540 103.665,248.442 104.700,250.694 105.800 C 252.946 106.900,254.791 107.935,254.794 108.100 C 254.797 108.265,255.070 108.400,255.400 108.400 C 255.730 108.400,256.000 108.580,256.000 108.800 C 256.000 109.020,256.270 109.200,256.600 109.200 C 256.930 109.200,257.200 109.380,257.200 109.600 C 257.200 109.820,257.386 110.000,257.613 110.000 C 257.840 110.000,259.519 111.035,261.344 112.300 C 264.417 114.430,266.171 115.772,269.360 118.436 C 270.042 119.005,271.039 119.815,271.575 120.236 C 272.809 121.203,276.581 124.621,278.180 126.220 C 280.929 128.969,283.673 132.116,286.157 135.371 C 286.841 136.267,288.016 137.765,288.767 138.700 L 290.134 140.400 322.267 140.400 C 353.808 140.400,354.400 140.386,354.400 139.624 C 354.400 139.197,354.220 138.736,354.000 138.600 C 353.780 138.464,353.600 138.003,353.600 137.576 C 353.600 137.149,353.420 136.800,353.200 136.800 C 352.980 136.800,352.800 136.552,352.800 136.249 C 352.800 135.680,347.778 125.695,347.152 125.020 C 346.959 124.811,346.800 124.331,346.800 123.953 C 346.800 123.576,346.663 123.207,346.495 123.133 C 346.328 123.060,344.867 120.784,343.249 118.075 C 341.631 115.367,339.910 112.667,339.425 112.075 C 338.940 111.484,337.662 109.740,336.585 108.200 C 335.508 106.660,334.522 105.310,334.394 105.200 C 334.266 105.090,333.732 104.370,333.206 103.600 C 332.681 102.830,331.790 101.629,331.225 100.931 C 330.661 100.233,329.210 98.439,328.000 96.944 C 324.520 92.645,311.864 80.135,306.600 75.791 C 303.960 73.612,301.710 71.727,301.600 71.601 C 301.490 71.476,300.140 70.490,298.600 69.411 C 297.060 68.331,295.710 67.333,295.600 67.192 C 295.316 66.827,289.281 62.800,289.019 62.800 C 288.900 62.800,287.946 62.207,286.901 61.481 C 285.855 60.756,284.460 59.901,283.800 59.582 C 283.140 59.263,282.510 58.911,282.400 58.801 C 281.929 58.328,267.799 51.121,265.717 50.291 C 264.791 49.922,263.171 49.238,262.117 48.770 C 261.063 48.303,259.750 47.737,259.200 47.513 C 258.650 47.290,257.887 46.948,257.505 46.753 C 257.123 46.559,256.536 46.400,256.200 46.400 C 255.864 46.400,255.187 46.192,254.695 45.938 C 252.786 44.951,252.387 44.800,251.685 44.800 C 251.286 44.800,250.789 44.643,250.580 44.451 C 250.371 44.260,249.120 43.795,247.800 43.418 C 246.480 43.042,245.087 42.568,244.705 42.367 C 244.323 42.165,243.569 42.000,243.029 42.000 C 242.489 42.000,241.948 41.840,241.827 41.644 C 241.615 41.301,240.389 41.022,237.000 40.544 C 236.120 40.420,235.229 40.156,235.020 39.959 C 234.811 39.762,233.967 39.600,233.144 39.600 C 232.321 39.600,231.550 39.443,231.431 39.250 C 231.312 39.058,230.266 38.792,229.107 38.659 C 227.948 38.526,226.100 38.256,225.000 38.060 C 222.018 37.527,211.559 36.110,207.000 35.621 C 202.409 35.129,188.929 35.158,184.200 35.670 M196.800 181.816 C 196.800 182.156,196.981 182.651,197.202 182.917 C 198.223 184.144,201.200 188.809,201.200 189.182 C 201.200 189.412,201.350 189.600,201.532 189.600 C 201.715 189.600,202.118 190.095,202.427 190.700 C 203.273 192.356,208.156 199.781,208.500 199.933 C 208.665 200.007,208.800 200.322,208.800 200.633 C 208.800 200.945,208.980 201.200,209.200 201.200 C 209.420 201.200,209.600 201.373,209.600 201.585 C 209.600 201.796,210.590 203.423,211.800 205.200 C 213.010 206.977,214.000 208.604,214.000 208.815 C 214.000 209.027,214.180 209.200,214.400 209.200 C 214.620 209.200,214.800 209.386,214.800 209.614 C 214.800 209.841,217.680 214.245,221.200 219.400 C 224.720 224.555,227.600 228.882,227.600 229.015 C 227.600 229.148,227.825 229.488,228.100 229.770 C 228.375 230.053,229.770 232.017,231.200 234.136 L 233.800 237.988 270.526 237.994 C 308.111 238.000,309.202 238.044,308.430 239.512 C 308.231 239.890,307.670 241.550,307.185 243.200 C 305.406 249.244,305.167 249.923,303.600 253.400 C 303.104 254.500,302.560 255.760,302.391 256.200 C 301.756 257.850,299.987 261.469,298.871 263.400 C 296.796 266.992,295.882 268.587,295.432 269.400 C 294.510 271.066,289.850 277.806,289.532 277.933 C 289.350 278.007,289.200 278.241,289.200 278.455 C 289.200 278.807,286.173 282.765,283.619 285.752 C 282.287 287.310,276.214 293.359,273.932 295.400 L 272.143 297.000 286.222 318.581 C 293.965 330.450,300.603 340.530,300.973 340.981 C 301.343 341.431,301.926 342.385,302.269 343.100 C 303.027 344.683,303.335 344.706,304.987 343.300 C 305.698 342.695,307.071 341.570,308.038 340.800 C 311.794 337.808,320.675 329.187,323.513 325.777 C 324.235 324.910,325.585 323.326,326.513 322.258 C 327.441 321.190,328.926 319.480,329.814 318.458 C 330.702 317.436,332.232 315.520,333.213 314.200 C 334.195 312.880,335.105 311.710,335.235 311.600 C 335.767 311.151,342.406 301.190,344.032 298.400 C 346.856 293.555,347.006 293.274,350.131 287.000 C 353.512 280.213,356.000 274.944,356.000 274.572 C 356.000 274.434,356.288 273.664,356.641 272.860 C 357.282 271.398,357.698 270.384,358.346 268.700 C 358.537 268.205,358.877 267.350,359.101 266.800 C 359.325 266.250,359.730 264.990,360.000 264.000 C 360.270 263.010,360.632 261.840,360.805 261.400 C 361.770 258.940,363.411 252.894,363.873 250.096 C 363.992 249.379,364.249 248.694,364.444 248.573 C 364.640 248.452,364.800 247.589,364.800 246.656 C 364.800 245.723,364.963 244.789,365.161 244.580 C 365.360 244.371,365.622 243.390,365.743 242.400 C 365.864 241.410,366.157 239.340,366.393 237.800 C 369.482 217.638,369.641 199.336,366.868 183.000 L 366.596 181.400 281.698 181.299 C 205.369 181.208,196.800 181.261,196.800 181.816 M135.100 357.476 C 134.715 357.576,134.400 357.882,134.400 358.154 C 134.400 358.426,134.040 359.036,133.600 359.508 C 133.160 359.980,132.800 360.477,132.800 360.613 C 132.800 360.749,131.630 362.549,130.200 364.615 C 128.770 366.680,127.600 368.557,127.600 368.785 C 127.600 369.013,127.420 369.200,127.200 369.200 C 126.980 369.200,126.800 369.470,126.800 369.800 C 126.800 370.130,126.620 370.400,126.400 370.400 C 126.180 370.400,126.000 370.558,126.000 370.751 C 126.000 371.084,118.168 383.007,116.966 384.505 C 116.655 384.892,116.400 385.291,116.400 385.391 C 116.400 385.491,115.005 387.661,113.300 390.213 C 111.595 392.765,110.022 395.201,109.805 395.626 C 109.588 396.052,109.273 396.400,109.105 396.400 C 108.937 396.400,108.800 396.670,108.800 397.000 C 108.800 397.330,108.620 397.600,108.400 397.600 C 108.180 397.600,108.000 397.774,108.000 397.987 C 108.000 398.200,106.830 400.076,105.400 402.155 C 103.970 404.235,102.800 406.131,102.800 406.368 C 102.800 406.606,102.620 406.800,102.400 406.800 C 102.180 406.800,102.000 407.055,102.000 407.367 C 102.000 407.678,101.865 407.993,101.700 408.067 C 101.377 408.210,97.600 413.856,97.600 414.195 C 97.600 414.308,141.070 414.400,194.200 414.400 C 247.330 414.400,290.800 414.293,290.800 414.162 C 290.800 413.754,289.435 411.464,288.700 410.637 C 288.315 410.203,288.000 409.717,288.000 409.557 C 288.000 409.396,287.084 407.945,285.964 406.332 C 284.845 404.719,283.767 403.040,283.569 402.600 C 283.372 402.160,281.948 399.850,280.405 397.468 C 278.862 395.085,277.600 392.970,277.600 392.768 C 277.600 392.565,277.450 392.400,277.268 392.400 C 277.085 392.400,276.680 391.909,276.368 391.308 C 276.055 390.708,274.855 388.835,273.700 387.146 C 272.545 385.458,271.600 383.977,271.600 383.855 C 271.600 383.733,270.250 381.554,268.600 379.013 C 266.950 376.472,265.600 374.214,265.600 373.996 C 265.600 373.778,265.450 373.600,265.268 373.600 C 265.085 373.600,264.680 373.105,264.369 372.500 C 264.057 371.895,262.857 370.018,261.701 368.330 C 260.546 366.641,259.600 365.162,259.600 365.043 C 259.600 364.674,255.073 357.817,254.624 357.506 C 254.174 357.194,136.292 357.164,135.100 357.476 " stroke="none" fill="#6a6d76" fill-rule="evenodd"></path><path id="path1" d="M0.000 222.200 L 0.000 444.400 200.000 444.400 L 400.000 444.400 400.000 222.200 L 400.000 0.000 200.000 0.000 L 0.000 0.000 0.000 222.200 M206.200 34.823 C 215.916 35.399,225.137 36.785,235.800 39.271 C 236.680 39.476,238.120 39.800,239.000 39.992 C 239.880 40.183,241.230 40.523,242.000 40.747 C 242.770 40.971,244.120 41.355,245.000 41.600 C 248.538 42.584,249.054 42.739,250.400 43.218 C 251.170 43.492,251.980 43.838,252.200 43.986 C 252.420 44.134,253.410 44.500,254.400 44.798 C 255.390 45.095,256.371 45.488,256.580 45.670 C 256.789 45.851,257.338 46.000,257.800 46.000 C 258.262 46.000,258.811 46.152,259.020 46.338 C 259.229 46.523,260.480 47.093,261.800 47.603 C 266.377 49.373,281.457 56.972,285.291 59.440 C 286.112 59.968,286.863 60.400,286.960 60.400 C 287.130 60.400,292.167 63.654,293.000 64.302 C 293.220 64.473,294.660 65.501,296.200 66.587 C 299.178 68.686,304.067 72.382,304.400 72.785 C 304.510 72.919,305.140 73.440,305.800 73.944 C 307.972 75.603,311.710 78.938,315.952 83.000 C 322.261 89.043,324.085 90.889,325.400 92.568 C 326.060 93.410,327.372 94.932,328.314 95.950 C 329.257 96.967,330.867 98.970,331.890 100.400 C 332.914 101.830,333.872 103.090,334.020 103.200 C 334.242 103.365,336.201 106.060,341.436 113.400 C 342.609 115.044,345.761 120.295,347.199 123.000 C 351.273 130.662,352.400 132.924,352.400 133.438 C 352.400 133.747,352.580 134.000,352.800 134.000 C 353.020 134.000,353.200 134.235,353.200 134.523 C 353.200 134.811,353.822 136.281,354.581 137.791 C 355.341 139.301,355.870 140.686,355.758 140.868 C 355.645 141.051,340.795 141.200,322.758 141.200 L 289.964 141.200 289.082 140.300 C 288.597 139.805,286.552 137.330,284.537 134.800 C 281.261 130.686,272.767 121.935,270.551 120.391 C 268.913 119.250,265.391 116.479,264.517 115.644 C 264.031 115.180,263.528 114.800,263.399 114.800 C 263.270 114.800,261.227 113.460,258.859 111.823 C 256.492 110.186,253.305 108.183,251.777 107.373 C 247.890 105.309,242.788 102.761,241.600 102.290 C 241.050 102.072,240.240 101.748,239.800 101.571 C 235.607 99.885,229.069 97.600,228.437 97.600 C 228.003 97.600,227.548 97.440,227.427 97.244 C 227.306 97.049,226.576 96.779,225.804 96.644 C 225.032 96.510,223.768 96.290,222.996 96.156 C 222.224 96.021,221.494 95.751,221.373 95.556 C 221.252 95.360,220.599 95.200,219.923 95.200 C 219.246 95.200,218.042 95.031,217.246 94.825 C 206.882 92.141,186.921 92.138,174.894 94.820 C 173.956 95.029,172.572 95.200,171.818 95.200 C 171.064 95.200,170.336 95.380,170.200 95.600 C 170.064 95.820,169.344 96.000,168.600 96.000 C 167.856 96.000,167.136 96.180,167.000 96.400 C 166.864 96.620,166.322 96.800,165.795 96.800 C 165.269 96.800,164.424 96.961,163.919 97.158 C 163.413 97.355,162.190 97.739,161.200 98.012 C 159.480 98.484,152.906 100.809,150.800 101.689 C 150.250 101.919,149.440 102.239,149.000 102.400 C 148.123 102.721,139.744 106.914,137.759 108.025 C 134.782 109.692,125.709 115.799,123.085 117.902 C 121.508 119.166,119.880 120.470,119.465 120.800 C 117.795 122.131,108.121 131.939,107.021 133.417 C 106.373 134.288,105.742 135.090,105.620 135.200 C 105.498 135.310,104.589 136.480,103.600 137.800 C 102.611 139.120,101.706 140.290,101.588 140.400 C 99.204 142.626,90.316 158.798,87.801 165.486 C 86.991 167.639,86.183 169.760,86.005 170.200 C 85.827 170.640,85.464 171.630,85.200 172.400 C 84.936 173.170,84.571 174.160,84.390 174.600 C 84.209 175.040,83.965 175.850,83.849 176.400 C 83.733 176.950,83.526 177.940,83.389 178.600 C 83.252 179.260,82.987 180.160,82.800 180.600 C 82.258 181.876,81.258 187.246,80.267 194.200 C 78.793 204.542,78.929 216.551,80.621 225.600 C 80.971 227.470,81.424 229.990,81.627 231.200 C 81.831 232.410,82.113 234.079,82.253 234.910 C 82.393 235.740,82.664 236.516,82.854 236.633 C 83.044 236.751,83.200 237.456,83.200 238.200 C 83.200 238.944,83.380 239.664,83.600 239.800 C 83.820 239.936,84.000 240.656,84.000 241.400 C 84.000 242.144,84.180 242.864,84.400 243.000 C 84.620 243.136,84.800 243.689,84.800 244.229 C 84.800 244.769,84.965 245.523,85.166 245.905 C 85.638 246.799,86.289 248.386,88.407 253.800 C 89.353 256.220,90.257 258.380,90.415 258.600 C 90.573 258.820,91.724 260.939,92.972 263.309 C 95.479 268.069,102.012 278.168,104.078 280.477 C 104.805 281.290,106.300 283.076,107.400 284.447 C 108.500 285.818,111.517 289.024,114.105 291.570 C 116.693 294.117,118.808 296.414,118.805 296.676 C 118.799 297.241,110.421 310.139,109.935 310.333 C 109.751 310.407,109.600 310.641,109.600 310.854 C 109.600 311.202,104.999 318.299,104.005 319.483 C 103.782 319.749,103.600 320.154,103.600 320.383 C 103.600 320.612,103.420 320.800,103.200 320.800 C 102.980 320.800,102.800 320.994,102.800 321.232 C 102.800 321.469,101.450 323.638,99.800 326.052 C 98.150 328.466,96.800 330.611,96.800 330.820 C 96.800 331.029,96.620 331.200,96.400 331.200 C 96.180 331.200,96.000 331.400,96.000 331.643 C 96.000 331.887,94.691 334.002,93.091 336.343 C 91.491 338.685,89.931 341.095,89.624 341.700 C 89.316 342.305,88.915 342.800,88.732 342.800 C 88.550 342.800,88.400 343.042,88.400 343.338 C 88.400 344.960,86.831 345.385,85.491 344.127 C 84.253 342.963,82.956 341.827,80.800 340.017 C 75.099 335.232,64.044 324.147,61.267 320.433 C 60.680 319.648,59.787 318.583,59.282 318.067 C 58.778 317.551,57.929 316.470,57.396 315.664 C 56.863 314.859,55.884 313.480,55.221 312.600 C 54.557 311.720,53.889 310.730,53.736 310.400 C 53.583 310.070,53.347 309.710,53.211 309.600 C 52.824 309.287,47.616 301.651,46.764 300.149 C 46.344 299.407,45.621 298.125,45.157 297.300 C 44.694 296.475,44.156 295.604,43.962 295.364 C 43.438 294.718,36.313 280.490,35.467 278.400 C 35.066 277.410,34.572 276.195,34.369 275.700 C 34.166 275.205,33.820 274.350,33.600 273.800 C 33.380 273.250,33.033 272.395,32.829 271.900 C 31.869 269.570,30.009 264.255,29.015 261.000 C 28.410 259.020,27.768 257.040,27.588 256.600 C 27.408 256.160,27.147 255.260,27.009 254.600 C 26.345 251.435,26.017 250.000,25.410 247.600 C 24.793 245.163,24.446 243.599,23.543 239.200 C 23.120 237.135,22.610 233.302,21.922 227.000 C 21.312 221.408,21.314 196.592,21.926 190.400 C 22.851 181.032,23.466 177.690,26.411 166.000 C 26.823 164.365,27.498 161.588,27.967 159.600 C 28.419 157.685,30.978 150.227,32.086 147.600 C 32.317 147.050,32.663 146.195,32.854 145.700 C 33.044 145.205,33.368 144.395,33.574 143.900 C 33.779 143.405,34.183 142.280,34.471 141.400 C 35.150 139.329,42.173 125.414,44.334 121.859 C 45.250 120.352,46.000 119.065,46.000 119.000 C 46.000 118.272,54.645 105.421,57.166 102.403 C 58.175 101.195,59.270 99.864,59.600 99.444 C 59.930 99.024,61.279 97.403,62.597 95.840 C 63.916 94.278,65.356 92.566,65.797 92.036 C 68.462 88.837,79.643 78.121,84.250 74.351 C 85.158 73.608,86.672 72.370,87.613 71.600 C 91.462 68.453,103.639 60.200,107.400 58.188 C 108.720 57.482,110.700 56.382,111.800 55.743 C 112.900 55.104,114.970 54.019,116.400 53.331 C 121.780 50.743,126.647 48.514,128.000 48.018 C 128.770 47.736,130.163 47.167,131.096 46.753 C 132.028 46.339,132.976 46.000,133.201 46.000 C 133.426 46.000,133.923 45.827,134.305 45.615 C 135.418 44.999,143.031 42.400,143.723 42.400 C 144.069 42.400,144.464 42.220,144.600 42.000 C 144.736 41.780,145.366 41.600,146.000 41.600 C 146.634 41.600,147.252 41.440,147.373 41.244 C 147.494 41.049,148.179 40.792,148.896 40.673 C 149.613 40.555,151.010 40.255,152.000 40.007 C 152.990 39.759,154.520 39.401,155.400 39.211 C 156.280 39.021,158.260 38.579,159.800 38.229 C 173.522 35.110,190.287 33.879,206.200 34.823 M367.723 182.300 C 368.520 189.043,369.213 194.329,369.405 195.125 C 369.821 196.851,369.670 218.373,369.210 222.899 C 368.597 228.931,367.486 237.107,366.776 240.800 C 366.543 242.010,366.256 243.810,366.138 244.800 C 366.019 245.790,365.760 246.771,365.561 246.980 C 365.363 247.189,365.200 248.033,365.200 248.856 C 365.200 249.679,365.020 250.464,364.800 250.600 C 364.580 250.736,364.400 251.456,364.400 252.200 C 364.400 252.944,364.220 253.664,364.000 253.800 C 363.780 253.936,363.600 254.500,363.600 255.054 C 363.600 255.900,361.445 263.126,360.395 265.800 C 360.222 266.240,359.864 267.230,359.600 268.000 C 359.336 268.770,358.957 269.805,358.760 270.300 C 358.562 270.795,358.238 271.605,358.041 272.100 C 355.954 277.328,348.854 292.123,348.331 292.333 C 348.149 292.407,347.996 292.767,347.991 293.133 C 347.986 293.500,347.630 294.250,347.200 294.800 C 346.770 295.350,346.414 296.025,346.409 296.300 C 346.404 296.575,346.264 296.800,346.098 296.800 C 345.931 296.800,345.543 297.385,345.235 298.100 C 344.512 299.777,341.207 304.959,340.750 305.133 C 340.558 305.207,340.400 305.488,340.400 305.758 C 340.400 306.028,340.071 306.603,339.668 307.035 C 339.265 307.467,338.594 308.356,338.177 309.010 C 337.292 310.396,333.579 315.307,333.194 315.600 C 333.050 315.710,332.767 316.100,332.566 316.467 C 332.365 316.834,331.388 318.004,330.395 319.067 C 329.402 320.130,328.082 321.630,327.462 322.400 C 325.950 324.277,319.775 330.950,317.882 332.754 C 317.047 333.549,314.881 335.651,313.068 337.424 C 311.255 339.197,308.788 341.378,307.586 342.270 C 306.384 343.163,305.057 344.277,304.638 344.747 C 303.423 346.107,303.027 345.824,300.366 341.700 C 298.983 339.555,297.704 337.740,297.525 337.667 C 297.346 337.593,297.200 337.353,297.200 337.133 C 297.200 336.913,296.030 335.020,294.600 332.925 C 293.170 330.831,292.000 328.956,292.000 328.759 C 292.000 328.561,291.848 328.400,291.663 328.400 C 291.477 328.400,290.909 327.590,290.400 326.600 C 289.891 325.610,289.323 324.800,289.137 324.800 C 288.952 324.800,288.800 324.598,288.800 324.351 C 288.800 324.104,287.990 322.766,287.000 321.379 C 286.010 319.992,285.200 318.664,285.200 318.428 C 285.200 318.193,285.041 318.000,284.846 318.000 C 284.651 318.000,284.204 317.395,283.853 316.655 C 283.502 315.915,282.941 315.083,282.607 314.806 C 282.273 314.529,282.000 314.163,282.000 313.992 C 282.000 313.822,280.830 311.969,279.400 309.875 C 277.970 307.780,276.800 305.954,276.800 305.817 C 276.800 305.679,276.618 305.349,276.395 305.083 C 276.172 304.817,274.832 302.870,273.418 300.755 L 270.847 296.909 272.856 295.191 C 278.534 290.336,286.565 281.431,289.031 277.255 C 289.439 276.565,289.914 276.000,290.086 276.000 C 290.259 276.000,290.400 275.814,290.400 275.587 C 290.400 275.360,291.390 273.761,292.600 272.035 C 293.810 270.308,294.800 268.694,294.800 268.448 C 294.800 268.201,294.938 268.000,295.106 268.000 C 295.274 268.000,295.722 267.325,296.101 266.500 C 296.480 265.675,297.339 264.100,298.010 263.000 C 298.680 261.900,299.508 260.370,299.848 259.600 C 300.189 258.830,300.881 257.300,301.387 256.200 C 303.960 250.603,304.331 249.619,305.985 244.000 C 306.470 242.350,307.032 240.687,307.234 240.305 C 307.435 239.923,307.600 239.428,307.600 239.205 C 307.600 238.934,295.274 238.800,270.426 238.800 L 233.253 238.800 231.026 235.568 C 229.802 233.791,228.800 232.171,228.800 231.968 C 228.800 231.766,228.650 231.600,228.468 231.600 C 228.285 231.600,227.880 231.105,227.568 230.500 C 227.255 229.895,226.804 229.191,226.565 228.937 C 226.326 228.682,225.519 227.512,224.772 226.337 C 224.024 225.161,223.095 223.851,222.706 223.425 C 222.318 222.998,222.000 222.428,222.000 222.158 C 222.000 221.888,221.845 221.607,221.656 221.533 C 221.467 221.460,219.547 218.700,217.391 215.400 C 203.785 194.583,194.800 180.733,194.800 180.579 C 194.800 180.480,233.657 180.400,281.149 180.400 L 367.498 180.400 367.723 182.300 M198.000 268.852 C 199.430 271.057,200.780 273.152,201.000 273.508 C 201.220 273.865,201.715 274.515,202.100 274.954 C 202.485 275.392,202.800 275.916,202.800 276.119 C 202.800 276.321,204.150 278.439,205.800 280.826 C 207.450 283.212,208.800 285.353,208.800 285.582 C 208.800 285.812,208.980 286.000,209.200 286.000 C 209.420 286.000,209.600 286.270,209.600 286.600 C 209.600 286.930,209.750 287.200,209.932 287.200 C 210.115 287.200,210.520 287.691,210.832 288.292 C 211.145 288.892,212.345 290.765,213.500 292.454 C 214.655 294.142,215.600 295.706,215.600 295.929 C 215.600 296.151,215.739 296.393,215.908 296.467 C 216.615 296.773,224.030 308.544,223.836 309.051 C 223.491 309.949,166.181 309.667,166.244 308.768 C 166.284 308.206,186.374 277.061,191.853 269.068 C 193.034 267.346,194.000 265.786,194.000 265.601 C 194.000 265.301,194.678 264.879,195.200 264.854 C 195.310 264.848,196.570 266.648,198.000 268.852 M256.785 358.778 C 257.673 360.086,258.400 361.346,258.400 361.578 C 258.400 361.810,258.580 362.000,258.800 362.000 C 259.020 362.000,259.200 362.181,259.200 362.402 C 259.200 362.624,260.730 365.153,262.600 368.023 C 264.470 370.893,266.000 373.412,266.000 373.621 C 266.000 373.829,266.180 374.000,266.400 374.000 C 266.620 374.000,266.800 374.270,266.800 374.600 C 266.800 374.930,266.980 375.200,267.200 375.200 C 267.420 375.200,267.600 375.396,267.600 375.635 C 267.600 375.874,268.113 376.819,268.740 377.735 C 270.569 380.407,278.000 392.031,278.000 392.220 C 278.000 392.315,278.836 393.609,279.857 395.096 C 280.879 396.583,282.032 398.360,282.420 399.045 C 283.978 401.797,284.227 402.190,284.900 402.955 C 285.285 403.393,285.600 403.905,285.600 404.092 C 285.600 404.280,285.781 404.651,286.002 404.917 C 286.780 405.852,290.000 410.768,290.000 411.021 C 290.000 411.161,290.336 411.754,290.748 412.338 C 291.159 412.922,291.621 413.805,291.774 414.300 L 292.054 415.200 194.414 415.200 C 103.113 415.200,96.758 415.156,96.515 414.524 C 96.371 414.147,96.465 413.778,96.728 413.691 C 96.988 413.604,97.200 413.395,97.200 413.226 C 97.200 412.948,105.802 399.830,106.926 398.394 C 107.187 398.061,107.655 397.296,107.968 396.694 C 108.280 396.092,108.685 395.600,108.868 395.600 C 109.050 395.600,109.200 395.418,109.200 395.195 C 109.200 394.716,112.864 389.060,113.300 388.867 C 113.465 388.793,113.600 388.478,113.600 388.167 C 113.600 387.855,113.780 387.600,114.000 387.600 C 114.220 387.600,114.400 387.330,114.400 387.000 C 114.400 386.670,114.580 386.400,114.800 386.400 C 115.020 386.400,115.200 386.130,115.200 385.800 C 115.200 385.470,115.380 385.200,115.600 385.200 C 115.820 385.200,116.000 385.018,116.000 384.795 C 116.000 384.429,120.584 377.340,121.634 376.081 C 121.872 375.795,122.284 375.165,122.548 374.681 C 123.477 372.980,131.792 360.599,132.094 360.467 C 132.262 360.393,132.400 360.112,132.400 359.842 C 132.400 359.572,132.724 359.002,133.120 358.575 C 133.516 358.149,133.961 357.485,134.108 357.100 C 134.361 356.438,137.619 356.400,194.773 356.400 L 255.170 356.400 256.785 358.778 " stroke="none" fill="#fbfbfb" fill-rule="evenodd"></path><path id="path2" d="M181.800 35.600 L 179.800 35.874 181.800 35.908 C 182.900 35.926,184.610 35.797,185.600 35.620 L 187.400 35.300 185.600 35.313 C 184.610 35.320,182.900 35.449,181.800 35.600 M206.400 35.620 C 207.390 35.797,209.010 35.930,210.000 35.917 L 211.800 35.893 209.800 35.582 C 208.700 35.410,207.080 35.277,206.200 35.285 L 204.600 35.300 206.400 35.620 M174.000 36.400 C 171.912 36.839,174.346 36.857,176.800 36.420 L 178.600 36.100 177.000 36.103 C 176.120 36.104,174.770 36.238,174.000 36.400 M214.600 36.423 C 216.626 36.842,218.263 36.823,216.600 36.400 C 215.940 36.232,214.860 36.094,214.200 36.093 C 213.191 36.092,213.255 36.145,214.600 36.423 M169.141 36.993 C 169.035 37.099,167.970 37.363,166.774 37.579 L 164.600 37.974 166.600 37.772 C 170.258 37.404,172.490 36.910,170.767 36.850 C 169.978 36.823,169.247 36.887,169.141 36.993 M220.000 37.178 C 222.893 37.719,226.770 38.085,224.400 37.594 C 223.410 37.388,221.610 37.135,220.400 37.031 C 218.271 36.847,218.258 36.852,220.000 37.178 M161.600 38.400 L 160.200 38.695 161.600 38.719 C 162.370 38.733,163.360 38.589,163.800 38.400 L 164.600 38.056 163.800 38.081 C 163.360 38.094,162.370 38.238,161.600 38.400 M227.000 38.380 C 227.761 38.726,230.717 38.964,230.367 38.651 C 230.275 38.569,229.300 38.393,228.200 38.259 C 226.854 38.095,226.461 38.135,227.000 38.380 M158.000 39.200 L 157.000 39.520 158.000 39.554 C 158.550 39.573,159.270 39.413,159.600 39.200 C 160.364 38.706,159.542 38.706,158.000 39.200 M231.404 39.206 C 231.538 39.423,232.207 39.600,232.890 39.600 C 234.401 39.600,234.249 39.400,232.480 39.063 C 231.655 38.906,231.252 38.960,231.404 39.206 M154.400 40.000 L 153.400 40.320 154.476 40.360 C 155.068 40.382,155.664 40.220,155.800 40.000 C 156.081 39.545,155.820 39.545,154.400 40.000 M234.990 39.984 C 235.132 40.213,235.717 40.400,236.290 40.400 C 237.544 40.400,237.399 40.208,235.866 39.840 C 235.123 39.662,234.821 39.711,234.990 39.984 M151.000 40.800 C 150.229 41.131,150.231 41.145,151.076 41.172 C 151.558 41.187,152.064 41.020,152.200 40.800 C 152.492 40.327,152.101 40.327,151.000 40.800 M238.800 40.800 C 239.130 41.013,239.760 41.178,240.200 41.166 L 241.000 41.144 240.200 40.800 C 239.004 40.286,238.005 40.286,238.800 40.800 M247.200 43.200 C 247.530 43.413,248.070 43.588,248.400 43.588 C 248.933 43.588,248.933 43.545,248.400 43.200 C 248.070 42.987,247.530 42.812,247.200 42.812 C 246.667 42.812,246.667 42.855,247.200 43.200 M139.800 44.214 C 138.185 44.954,139.151 44.955,140.854 44.216 C 141.594 43.894,141.930 43.639,141.600 43.648 C 141.270 43.657,140.460 43.912,139.800 44.214 M250.146 44.202 C 250.776 44.531,251.586 44.793,251.946 44.784 C 252.306 44.776,251.994 44.506,251.254 44.184 C 249.494 43.420,248.672 43.434,250.146 44.202 M137.000 45.200 C 136.229 45.531,136.231 45.545,137.076 45.572 C 137.558 45.587,138.064 45.420,138.200 45.200 C 138.492 44.727,138.101 44.727,137.000 45.200 M134.600 46.000 C 133.829 46.331,133.831 46.345,134.676 46.372 C 135.158 46.387,135.664 46.220,135.800 46.000 C 136.092 45.527,135.701 45.527,134.600 46.000 M255.000 46.000 C 255.136 46.220,255.642 46.387,256.124 46.372 C 256.969 46.345,256.971 46.331,256.200 46.000 C 255.099 45.527,254.708 45.527,255.000 46.000 M264.000 49.497 C 264.770 49.853,267.190 51.006,269.378 52.060 C 271.566 53.114,273.428 53.906,273.515 53.819 C 273.780 53.554,263.534 48.756,262.851 48.826 C 262.713 48.840,263.230 49.142,264.000 49.497 M122.600 50.994 C 121.060 51.736,119.981 52.356,120.203 52.372 C 120.424 52.387,121.864 51.778,123.403 51.018 C 124.941 50.259,126.020 49.638,125.800 49.640 C 125.580 49.642,124.140 50.251,122.600 50.994 M112.307 56.091 C 111.046 56.782,110.080 57.413,110.159 57.493 C 110.317 57.651,113.965 55.718,114.580 55.151 C 115.214 54.566,114.706 54.776,112.307 56.091 M275.600 54.937 C 275.600 55.241,280.109 57.624,280.308 57.425 C 280.402 57.331,279.517 56.748,278.340 56.129 C 275.635 54.708,275.600 54.692,275.600 54.937 M282.403 58.690 C 282.407 59.055,284.465 60.069,284.708 59.825 C 284.800 59.734,284.318 59.371,283.637 59.019 C 282.957 58.667,282.401 58.519,282.403 58.690 M104.884 60.266 C 103.940 60.835,103.248 61.381,103.347 61.480 C 103.524 61.657,106.800 59.633,106.800 59.347 C 106.800 59.121,106.717 59.160,104.884 60.266 M287.400 61.750 C 288.060 62.312,288.780 62.772,289.000 62.773 C 289.457 62.775,288.196 61.742,287.000 61.135 C 286.560 60.912,286.740 61.188,287.400 61.750 M100.050 63.417 C 96.385 65.893,96.046 66.455,99.600 64.162 C 101.250 63.098,102.675 62.176,102.767 62.113 C 102.858 62.051,102.858 61.931,102.767 61.847 C 102.675 61.763,101.452 62.470,100.050 63.417 M290.800 63.724 C 290.800 63.817,291.565 64.398,292.500 65.015 C 293.435 65.632,293.989 65.880,293.731 65.568 C 293.234 64.967,290.800 63.436,290.800 63.724 M89.985 70.564 C 87.243 72.635,83.920 75.343,82.600 76.582 C 80.839 78.236,81.253 77.973,84.155 75.594 C 86.331 73.810,89.272 71.507,90.692 70.476 C 93.696 68.293,95.490 66.831,95.185 66.813 C 95.067 66.806,92.727 68.494,89.985 70.564 M295.615 67.073 C 295.624 67.253,296.659 68.087,297.915 68.928 C 299.264 69.829,299.708 70.026,299.000 69.407 C 297.115 67.761,295.599 66.715,295.615 67.073 M301.616 71.498 C 301.625 71.664,303.020 72.922,304.716 74.293 C 306.412 75.664,308.565 77.434,309.500 78.226 C 310.435 79.018,311.200 79.570,311.200 79.451 C 311.200 79.333,309.040 77.427,306.400 75.216 C 303.760 73.005,301.607 71.332,301.616 71.498 M77.577 81.110 L 75.400 83.400 77.592 81.400 C 78.797 80.300,79.862 79.355,79.958 79.300 C 80.055 79.245,80.048 79.114,79.943 79.010 C 79.839 78.905,78.774 79.850,77.577 81.110 M311.651 79.800 C 311.836 80.273,324.800 93.059,324.800 92.769 C 324.800 92.660,321.806 89.607,318.147 85.985 C 314.489 82.363,311.565 79.580,311.651 79.800 M71.187 87.013 C 69.113 89.096,67.555 90.800,67.726 90.800 C 68.131 90.800,75.318 83.585,75.115 83.381 C 75.029 83.296,73.262 84.930,71.187 87.013 M66.200 92.400 C 65.568 93.060,65.219 93.590,65.425 93.578 C 65.778 93.557,67.839 91.200,67.505 91.200 C 67.420 91.200,66.832 91.740,66.200 92.400 M184.000 92.401 C 183.230 92.564,184.850 92.605,187.600 92.493 C 190.350 92.380,192.675 92.224,192.767 92.144 C 193.074 91.878,185.416 92.102,184.000 92.401 M199.200 92.224 C 200.458 92.499,209.351 92.634,208.400 92.364 C 207.850 92.208,205.420 92.083,203.000 92.086 C 200.580 92.090,198.870 92.152,199.200 92.224 M178.400 93.207 C 177.779 93.411,178.309 93.451,179.800 93.312 C 181.120 93.189,182.275 93.024,182.367 92.944 C 182.689 92.665,179.388 92.884,178.400 93.207 M211.400 93.205 C 212.500 93.405,214.390 93.657,215.600 93.764 L 217.800 93.959 215.800 93.595 C 214.700 93.395,212.810 93.143,211.600 93.036 L 209.400 92.841 211.400 93.205 M175.105 93.883 C 175.602 93.979,176.322 93.975,176.705 93.875 C 177.087 93.775,176.680 93.696,175.800 93.701 C 174.920 93.705,174.607 93.787,175.105 93.883 M61.081 98.500 C 57.582 102.711,53.366 108.237,52.614 109.600 C 52.008 110.698,53.008 109.488,55.425 106.200 C 56.719 104.440,57.877 102.910,57.999 102.800 C 58.646 102.214,65.212 94.000,65.033 94.000 C 64.916 94.000,63.138 96.025,61.081 98.500 M171.400 94.400 C 170.322 94.674,170.302 94.706,171.200 94.713 C 171.750 94.717,172.650 94.576,173.200 94.400 C 174.544 93.969,173.092 93.969,171.400 94.400 M218.800 94.400 C 220.168 94.838,221.219 94.838,220.200 94.400 C 219.760 94.211,219.040 94.062,218.600 94.068 C 217.957 94.077,217.996 94.143,218.800 94.400 M326.065 94.634 C 326.553 95.394,328.367 97.564,331.323 100.924 C 331.941 101.626,331.630 101.120,330.633 99.800 C 328.674 97.209,325.188 93.266,326.065 94.634 M168.200 95.200 C 167.696 95.417,167.622 95.544,168.000 95.544 C 168.330 95.544,168.960 95.389,169.400 95.200 C 169.904 94.983,169.978 94.856,169.600 94.856 C 169.270 94.856,168.640 95.011,168.200 95.200 M165.200 96.000 C 164.667 96.345,164.667 96.388,165.200 96.388 C 165.530 96.388,166.070 96.213,166.400 96.000 C 166.933 95.655,166.933 95.612,166.400 95.612 C 166.070 95.612,165.530 95.787,165.200 96.000 M225.000 96.000 C 226.101 96.473,226.492 96.473,226.200 96.000 C 226.064 95.780,225.558 95.613,225.076 95.628 C 224.231 95.655,224.229 95.669,225.000 96.000 M162.200 96.800 C 161.908 97.273,162.299 97.273,163.400 96.800 C 164.171 96.469,164.169 96.455,163.324 96.428 C 162.842 96.413,162.336 96.580,162.200 96.800 M227.233 96.544 C 227.325 96.623,227.940 96.808,228.600 96.956 C 229.476 97.152,229.638 97.115,229.200 96.818 C 228.660 96.453,226.832 96.198,227.233 96.544 M158.990 97.616 C 158.821 97.889,159.123 97.938,159.866 97.760 C 161.399 97.392,161.544 97.200,160.290 97.200 C 159.717 97.200,159.132 97.387,158.990 97.616 M230.400 97.463 C 230.730 97.574,232.402 98.212,234.115 98.883 C 235.829 99.554,237.344 99.989,237.482 99.851 C 237.620 99.713,237.521 99.600,237.262 99.600 C 237.003 99.600,236.028 99.265,235.096 98.857 C 231.939 97.473,231.164 97.200,230.481 97.232 C 229.939 97.257,229.922 97.304,230.400 97.463 M155.200 99.016 C 153.990 99.537,153.194 99.971,153.432 99.981 C 153.670 99.992,154.930 99.558,156.232 99.017 C 157.534 98.476,158.330 98.042,158.000 98.052 C 157.670 98.062,156.410 98.496,155.200 99.016 M242.000 101.685 C 242.502 102.220,244.800 103.181,244.800 102.857 C 244.800 102.657,244.485 102.403,244.100 102.292 C 243.715 102.181,243.040 101.952,242.600 101.782 C 242.160 101.612,241.890 101.568,242.000 101.685 M145.400 102.955 C 144.960 103.217,143.277 104.111,141.659 104.941 C 140.041 105.772,138.789 106.522,138.875 106.608 C 139.055 106.789,146.800 102.852,146.800 102.580 C 146.800 102.296,146.268 102.438,145.400 102.955 M333.253 103.700 C 333.753 104.415,334.269 105.090,334.400 105.200 C 334.532 105.310,335.674 106.880,336.939 108.688 C 338.204 110.497,339.452 112.109,339.713 112.270 C 340.172 112.553,339.447 111.501,334.914 105.300 C 332.839 102.461,331.461 101.134,333.253 103.700 M246.833 104.139 C 247.467 104.669,253.357 107.576,253.502 107.432 C 253.682 107.251,247.467 104.000,246.942 104.000 C 246.791 104.000,246.742 104.063,246.833 104.139 M135.429 108.209 C 135.005 108.529,134.738 108.871,134.835 108.969 C 134.932 109.066,135.459 108.802,136.006 108.382 C 136.553 107.961,136.820 107.620,136.600 107.622 C 136.380 107.624,135.853 107.888,135.429 108.209 M129.703 111.933 C 127.450 113.400,125.605 114.721,125.603 114.868 C 125.601 115.015,127.296 114.025,129.369 112.668 C 131.442 111.311,133.467 109.986,133.869 109.724 C 134.271 109.461,134.420 109.251,134.200 109.256 C 133.980 109.261,131.956 110.465,129.703 111.933 M257.665 110.199 C 257.775 110.308,259.594 111.613,261.709 113.099 C 263.823 114.584,266.689 116.672,268.077 117.738 C 270.680 119.737,269.466 118.482,266.395 116.000 C 263.113 113.348,256.259 108.792,257.665 110.199 M50.379 112.831 C 49.471 114.168,48.803 115.336,48.893 115.427 C 48.984 115.517,49.803 114.424,50.713 112.996 C 52.804 109.717,52.571 109.603,50.379 112.831 M343.136 117.977 C 344.821 120.826,346.329 123.167,346.487 123.178 C 346.824 123.204,340.926 113.325,340.417 113.010 C 340.227 112.893,341.450 115.128,343.136 117.977 M122.315 117.378 C 120.862 118.576,119.532 119.787,119.357 120.069 C 119.075 120.527,119.847 119.916,124.200 116.239 C 124.860 115.681,125.300 115.220,125.178 115.213 C 125.056 115.206,123.767 116.180,122.315 117.378 M112.943 125.849 C 109.894 128.845,107.760 131.108,108.200 130.877 C 109.041 130.435,119.114 120.400,118.716 120.400 C 118.590 120.400,115.992 122.852,112.943 125.849 M275.079 123.743 C 277.103 125.664,279.972 128.533,281.455 130.118 C 282.938 131.703,283.776 132.460,283.318 131.800 C 282.235 130.242,274.156 122.163,272.600 121.083 C 271.940 120.625,273.056 121.822,275.079 123.743 M44.020 123.560 C 43.343 124.902,42.868 126.000,42.964 126.000 C 43.250 126.000,45.613 121.479,45.425 121.291 C 45.330 121.197,44.698 122.217,44.020 123.560 M346.812 123.801 C 346.796 124.328,350.034 130.500,350.225 130.308 C 350.307 130.227,349.574 128.639,348.598 126.780 C 347.622 124.921,346.818 123.580,346.812 123.801 M41.800 127.600 C 41.459 128.260,41.269 128.800,41.379 128.800 C 41.489 128.800,41.859 128.260,42.200 127.600 C 42.541 126.940,42.731 126.400,42.621 126.400 C 42.511 126.400,42.141 126.940,41.800 127.600 M105.176 134.300 C 104.023 135.785,102.905 137.225,102.691 137.500 C 102.477 137.775,102.388 138.000,102.492 138.000 C 102.596 138.000,103.564 136.886,104.641 135.525 C 107.133 132.376,107.690 131.600,107.459 131.600 C 107.357 131.600,106.329 132.815,105.176 134.300 M285.421 135.000 C 287.034 136.968,287.749 137.463,286.433 135.700 C 284.879 133.617,284.511 133.200,284.229 133.200 C 284.074 133.200,284.610 134.010,285.421 135.000 M36.862 137.462 C 35.926 139.349,35.234 140.967,35.325 141.058 C 35.415 141.149,36.238 139.662,37.154 137.754 C 38.069 135.846,38.761 134.228,38.691 134.158 C 38.621 134.087,37.798 135.574,36.862 137.462 M288.616 138.900 L 290.096 140.800 322.648 140.800 C 340.552 140.800,355.197 140.665,355.194 140.500 C 355.179 139.761,354.412 138.982,354.406 139.700 C 354.400 140.361,352.603 140.400,322.311 140.400 L 290.222 140.400 288.678 138.700 L 287.135 137.000 288.616 138.900 M101.196 139.297 C 100.267 140.694,99.849 141.448,100.252 141.000 C 102.015 139.040,102.486 138.400,102.166 138.400 C 101.961 138.400,101.524 138.804,101.196 139.297 M98.381 143.428 C 97.689 144.434,97.202 145.335,97.299 145.432 C 97.396 145.529,98.036 144.707,98.721 143.604 C 100.279 141.098,100.061 140.985,98.381 143.428 M33.091 146.284 C 32.975 146.678,32.412 148.259,31.840 149.798 C 31.268 151.337,30.809 152.777,30.821 152.998 C 30.832 153.219,31.119 152.680,31.459 151.800 C 31.799 150.920,32.443 149.249,32.891 148.086 C 33.338 146.923,33.614 145.881,33.503 145.770 C 33.392 145.659,33.207 145.890,33.091 146.284 M92.031 154.031 C 90.960 156.248,91.194 156.482,92.338 154.338 C 92.823 153.430,93.138 152.605,93.038 152.505 C 92.938 152.405,92.485 153.091,92.031 154.031 M28.846 158.667 C 28.821 158.924,28.684 159.464,28.541 159.867 C 28.340 160.436,28.394 160.497,28.779 160.142 C 29.052 159.891,29.189 159.351,29.084 158.942 C 28.979 158.534,28.872 158.410,28.846 158.667 M86.878 165.075 C 85.699 168.308,85.792 168.783,87.023 165.818 C 87.567 164.507,87.954 163.262,87.884 163.051 C 87.813 162.840,87.361 163.750,86.878 165.075 M27.246 164.667 C 27.221 164.924,27.084 165.464,26.941 165.867 C 26.740 166.436,26.794 166.497,27.179 166.142 C 27.452 165.891,27.589 165.351,27.484 164.942 C 27.379 164.534,27.272 164.410,27.246 164.667 M26.449 167.600 C 26.416 167.930,26.289 168.650,26.167 169.200 C 25.975 170.064,26.007 170.103,26.399 169.488 C 26.648 169.097,26.775 168.377,26.681 167.888 C 26.586 167.400,26.482 167.270,26.449 167.600 M85.377 169.043 C 85.244 169.459,84.970 170.213,84.767 170.719 C 84.565 171.224,84.410 171.854,84.422 172.119 C 84.434 172.383,84.800 171.721,85.236 170.647 C 85.672 169.573,85.936 168.603,85.823 168.490 C 85.711 168.378,85.510 168.626,85.377 169.043 M25.654 171.000 C 25.619 171.440,25.489 172.250,25.367 172.800 C 25.175 173.663,25.207 173.703,25.598 173.090 C 25.847 172.699,25.977 171.889,25.886 171.290 C 25.778 170.579,25.697 170.479,25.654 171.000 M83.867 173.067 C 83.720 173.213,83.611 173.708,83.625 174.167 C 83.649 174.933,83.682 174.923,84.034 174.042 C 84.426 173.063,84.344 172.589,83.867 173.067 M24.683 175.300 C 24.022 178.809,23.991 179.817,24.614 177.607 C 24.953 176.401,25.171 175.051,25.098 174.607 C 25.013 174.089,24.864 174.337,24.683 175.300 M83.073 175.753 C 82.923 176.145,82.811 176.766,82.825 177.133 C 82.842 177.575,82.981 177.474,83.237 176.834 C 83.449 176.303,83.561 175.682,83.485 175.454 C 83.409 175.227,83.224 175.361,83.073 175.753 M196.403 181.189 C 195.928 181.490,195.908 181.668,196.303 182.063 C 196.699 182.459,196.800 182.421,196.800 181.879 C 196.800 181.240,201.975 181.204,281.682 181.299 L 366.564 181.400 366.842 182.400 L 367.120 183.400 367.160 182.343 C 367.184 181.720,366.940 181.186,366.567 181.043 C 365.490 180.629,197.060 180.774,196.403 181.189 M23.649 181.600 C 23.616 181.930,23.489 182.650,23.367 183.200 C 23.175 184.064,23.207 184.103,23.599 183.488 C 23.848 183.097,23.975 182.377,23.881 181.888 C 23.786 181.400,23.682 181.270,23.649 181.600 M197.437 183.800 C 197.797 184.350,198.157 184.800,198.237 184.800 C 198.317 184.800,198.178 184.350,197.927 183.800 C 197.677 183.250,197.316 182.800,197.127 182.800 C 196.937 182.800,197.076 183.250,197.437 183.800 M367.475 186.600 C 367.580 188.140,367.821 190.390,368.010 191.600 C 368.307 193.499,368.321 193.389,368.119 190.800 C 367.990 189.150,367.749 186.900,367.584 185.800 C 367.343 184.190,367.321 184.347,367.475 186.600 M199.679 187.204 C 200.364 188.307,201.004 189.129,201.101 189.032 C 201.281 188.852,198.895 185.200,198.597 185.200 C 198.507 185.200,198.994 186.102,199.679 187.204 M80.253 186.836 C 80.114 187.531,80.023 188.753,80.051 189.550 C 80.085 190.530,80.210 190.163,80.435 188.418 C 80.789 185.683,80.677 184.713,80.253 186.836 M22.619 188.518 C 22.445 189.793,22.402 190.935,22.522 191.055 C 22.822 191.355,23.317 187.871,23.106 186.947 C 23.012 186.536,22.793 187.243,22.619 188.518 M201.845 190.612 C 202.210 191.169,202.586 191.547,202.682 191.451 C 202.919 191.214,201.884 189.600,201.495 189.600 C 201.322 189.600,201.480 190.056,201.845 190.612 M79.469 192.356 C 79.321 193.095,79.222 194.353,79.249 195.150 C 79.286 196.249,79.382 196.018,79.648 194.200 C 80.031 191.571,79.899 190.205,79.469 192.356 M21.846 198.918 C 21.657 201.292,21.598 203.332,21.716 203.449 C 22.042 203.775,22.480 198.861,22.326 196.600 C 22.224 195.103,22.103 195.687,21.846 198.918 M368.692 200.600 C 368.807 203.900,368.968 206.675,369.050 206.767 C 369.311 207.056,369.120 199.912,368.795 197.200 C 368.599 195.564,368.561 196.825,368.692 200.600 M206.822 198.200 C 207.929 200.165,208.800 201.172,208.800 200.486 C 208.800 200.219,208.632 200.000,208.427 200.000 C 208.222 200.000,207.949 199.685,207.820 199.300 C 207.692 198.915,207.212 198.150,206.754 197.600 C 205.987 196.680,205.993 196.728,206.822 198.200 M78.681 198.956 C 78.527 200.032,78.426 202.642,78.458 204.756 L 78.516 208.600 78.857 203.400 C 79.223 197.836,79.140 195.762,78.681 198.956 M78.423 213.833 C 78.436 215.575,78.601 217.720,78.791 218.600 C 79.018 219.652,79.060 218.625,78.915 215.600 C 78.657 210.235,78.390 209.276,78.423 213.833 M368.881 213.641 C 368.837 215.094,368.715 217.434,368.611 218.841 C 368.422 221.400,368.422 221.400,368.827 219.462 C 369.049 218.397,369.171 216.057,369.097 214.262 C 368.966 211.087,368.961 211.070,368.881 213.641 M21.702 215.600 C 21.694 217.030,21.821 219.280,21.985 220.600 L 22.282 223.000 22.298 220.400 C 22.306 218.970,22.179 216.720,22.015 215.400 L 21.718 213.000 21.702 215.600 M219.509 217.576 C 220.769 219.543,221.940 221.163,222.110 221.176 C 222.281 221.189,221.331 219.580,220.000 217.600 C 216.875 212.952,216.537 212.936,219.509 217.576 M79.228 223.033 C 79.244 223.895,79.409 224.960,79.596 225.400 C 79.808 225.898,79.851 225.369,79.712 224.000 C 79.444 221.365,79.189 220.857,79.228 223.033 M223.208 223.000 C 223.723 223.880,224.626 225.230,225.214 226.000 C 225.803 226.770,226.505 227.820,226.775 228.334 C 227.044 228.848,227.361 229.172,227.479 229.054 C 227.598 228.936,226.659 227.345,225.393 225.520 C 222.765 221.728,221.839 220.660,223.208 223.000 M367.855 225.700 C 367.720 227.515,367.532 230.170,367.436 231.600 L 367.263 234.200 367.616 231.800 C 368.109 228.450,368.553 222.400,368.306 222.400 C 368.193 222.400,367.990 223.885,367.855 225.700 M80.047 227.176 C 79.989 228.379,80.723 232.383,81.445 234.800 C 81.994 236.640,81.923 235.897,81.178 232.000 C 80.946 230.790,80.608 228.990,80.426 228.000 C 80.243 227.010,80.073 226.639,80.047 227.176 M22.468 228.000 C 22.487 229.650,23.117 231.356,23.132 229.800 C 23.138 229.140,22.989 228.240,22.800 227.800 C 22.487 227.073,22.457 227.091,22.468 228.000 M228.897 231.593 C 229.614 232.689,230.336 233.589,230.503 233.593 C 230.670 233.597,230.220 232.703,229.503 231.607 C 228.786 230.511,228.064 229.611,227.897 229.607 C 227.730 229.603,228.180 230.497,228.897 231.593 M23.268 234.200 C 23.274 234.640,23.424 235.450,23.600 236.000 L 23.920 237.000 23.932 236.000 C 23.938 235.450,23.789 234.640,23.600 234.200 L 23.256 233.400 23.268 234.200 M231.049 234.400 C 231.223 234.730,231.882 235.765,232.512 236.700 L 233.657 238.400 270.728 238.302 L 307.800 238.204 270.785 238.100 L 233.770 237.996 233.094 236.898 C 232.312 235.627,230.575 233.506,231.049 234.400 M366.653 235.636 C 366.514 236.331,366.422 237.463,366.449 238.150 C 366.478 238.894,366.638 238.440,366.843 237.028 C 367.211 234.504,367.076 233.518,366.653 235.636 M82.028 237.476 C 82.013 237.958,82.180 238.464,82.400 238.600 C 82.873 238.892,82.873 238.501,82.400 237.400 C 82.069 236.629,82.055 236.631,82.028 237.476 M24.032 238.681 C 24.015 239.166,24.164 239.976,24.364 240.481 C 24.564 240.987,24.959 242.736,25.241 244.369 C 25.523 246.001,25.833 247.102,25.928 246.815 C 26.106 246.282,25.555 243.372,24.600 239.800 C 24.305 238.700,24.050 238.197,24.032 238.681 M306.860 243.060 C 306.356 244.719,306.013 246.147,306.100 246.233 C 306.186 246.319,306.672 245.035,307.180 243.380 C 307.688 241.725,308.030 240.297,307.940 240.207 C 307.851 240.117,307.364 241.401,306.860 243.060 M365.849 240.615 C 365.712 240.973,365.618 241.746,365.640 242.333 C 365.673 243.191,365.752 243.095,366.046 241.840 C 366.422 240.239,366.295 239.453,365.849 240.615 M83.634 243.400 C 83.622 243.840,83.787 244.470,84.000 244.800 C 84.514 245.595,84.514 244.596,84.000 243.400 L 83.656 242.600 83.634 243.400 M365.067 244.667 C 364.920 244.813,364.815 245.398,364.834 245.967 C 364.868 246.981,364.875 246.979,365.221 245.820 C 365.585 244.603,365.531 244.202,365.067 244.667 M84.428 246.276 C 84.413 246.758,84.580 247.264,84.800 247.400 C 85.273 247.692,85.273 247.301,84.800 246.200 C 84.469 245.429,84.455 245.431,84.428 246.276 M305.400 247.600 C 305.250 248.073,305.217 248.550,305.327 248.660 C 305.437 248.770,305.650 248.473,305.800 248.000 C 305.950 247.527,305.983 247.050,305.873 246.940 C 305.763 246.830,305.550 247.127,305.400 247.600 M26.244 248.600 C 26.573 250.071,26.802 250.390,26.794 249.367 C 26.791 248.945,26.605 248.330,26.382 248.000 C 26.085 247.562,26.048 247.724,26.244 248.600 M85.214 248.254 C 85.206 248.504,85.469 249.224,85.798 249.854 C 86.126 250.484,86.390 250.730,86.383 250.400 C 86.369 249.683,85.235 247.600,85.214 248.254 M364.267 248.667 C 364.120 248.813,364.011 249.308,364.025 249.767 C 364.049 250.533,364.082 250.523,364.434 249.642 C 364.826 248.663,364.744 248.189,364.267 248.667 M26.834 251.200 C 26.846 251.530,27.011 252.160,27.200 252.600 L 27.544 253.400 27.566 252.600 C 27.578 252.160,27.413 251.530,27.200 251.200 C 26.855 250.667,26.815 250.667,26.834 251.200 M363.473 251.753 C 363.323 252.145,363.211 252.766,363.225 253.133 C 363.242 253.575,363.381 253.474,363.637 252.834 C 363.849 252.303,363.961 251.682,363.885 251.454 C 363.809 251.227,363.624 251.361,363.473 251.753 M27.628 254.676 C 27.718 255.715,28.344 256.596,28.372 255.724 C 28.387 255.242,28.220 254.736,28.000 254.600 C 27.780 254.464,27.613 254.498,27.628 254.676 M362.089 257.180 C 361.600 258.745,361.211 260.245,361.225 260.513 C 361.239 260.781,361.689 259.650,362.225 258.000 C 362.761 256.350,363.150 254.850,363.089 254.667 C 363.028 254.484,362.578 255.615,362.089 257.180 M300.090 260.325 C 299.149 262.226,298.551 263.605,298.761 263.390 C 299.396 262.739,302.047 257.538,301.919 257.193 C 301.854 257.016,301.030 258.425,300.090 260.325 M89.600 258.975 C 89.600 259.252,92.062 263.713,92.704 264.600 C 93.502 265.703,93.241 265.078,91.492 261.700 C 90.185 259.177,89.600 258.334,89.600 258.975 M360.667 261.467 C 360.520 261.613,360.411 262.108,360.425 262.567 C 360.449 263.333,360.482 263.323,360.834 262.442 C 361.226 261.463,361.144 260.989,360.667 261.467 M30.012 262.400 C 30.012 262.730,30.187 263.270,30.400 263.600 C 30.745 264.133,30.788 264.133,30.788 263.600 C 30.788 263.270,30.613 262.730,30.400 262.400 C 30.055 261.867,30.012 261.867,30.012 262.400 M297.386 265.300 L 296.752 266.600 297.567 265.600 C 298.352 264.637,298.608 264.000,298.210 264.000 C 298.106 264.000,297.735 264.585,297.386 265.300 M30.949 265.000 C 31.384 266.891,33.397 272.010,33.538 271.586 C 33.623 271.330,33.509 270.734,33.283 270.261 C 33.058 269.787,32.399 268.230,31.819 266.800 C 31.239 265.370,30.847 264.560,30.949 265.000 M295.967 267.666 C 295.693 268.180,295.121 269.222,294.696 269.981 C 294.095 271.054,294.065 271.244,294.561 270.832 C 294.913 270.541,295.200 270.127,295.200 269.913 C 295.200 269.699,295.580 268.990,296.044 268.339 C 296.508 267.687,296.792 267.059,296.676 266.943 C 296.560 266.827,296.241 267.152,295.967 267.666 M94.414 268.000 C 95.123 269.384,100.377 277.200,100.598 277.200 C 100.812 277.200,94.893 267.980,94.306 267.400 C 94.084 267.180,94.133 267.450,94.414 268.000 M356.550 273.043 C 356.403 273.459,356.036 274.413,355.736 275.161 C 355.435 275.910,355.256 276.589,355.338 276.671 C 355.419 276.752,355.873 275.886,356.347 274.747 C 356.820 273.607,357.120 272.587,357.013 272.480 C 356.906 272.373,356.698 272.626,356.550 273.043 M291.925 274.100 C 289.916 276.793,289.156 278.000,289.473 277.992 C 289.790 277.984,293.362 272.800,293.050 272.800 C 292.965 272.800,292.459 273.385,291.925 274.100 M35.233 276.096 C 35.183 276.550,37.693 282.040,37.870 281.863 C 37.955 281.778,37.404 280.379,36.645 278.754 C 35.887 277.129,35.251 275.933,35.233 276.096 M353.812 279.412 C 353.255 280.628,352.807 281.753,352.816 281.912 C 352.836 282.277,353.929 280.268,354.656 278.528 C 355.575 276.327,354.898 277.036,353.812 279.412 M101.069 278.064 C 101.251 278.430,101.940 279.334,102.600 280.073 C 103.597 281.190,107.458 285.794,107.878 286.367 C 107.945 286.458,108.082 286.452,108.181 286.352 C 108.281 286.253,107.876 285.636,107.281 284.982 C 106.687 284.328,105.300 282.739,104.200 281.452 C 103.100 280.164,101.871 278.726,101.469 278.255 C 101.063 277.780,100.885 277.695,101.069 278.064 M288.229 279.412 C 287.856 279.982,286.567 281.607,285.365 283.024 C 284.163 284.441,283.287 285.600,283.418 285.600 C 283.950 285.600,289.388 278.855,289.093 278.560 C 288.992 278.458,288.603 278.841,288.229 279.412 M38.000 282.613 C 38.000 283.068,40.063 286.870,40.223 286.710 C 40.316 286.617,39.928 285.609,39.360 284.471 C 38.428 282.600,38.000 282.015,38.000 282.613 M280.807 288.500 C 279.014 290.621,278.960 290.727,280.448 289.200 C 282.398 287.199,283.395 286.000,283.109 286.000 C 283.005 286.000,281.969 287.125,280.807 288.500 M110.600 289.200 C 111.906 290.520,113.065 291.600,113.175 291.600 C 113.285 291.600,112.306 290.520,111.000 289.200 C 109.694 287.880,108.535 286.800,108.425 286.800 C 108.315 286.800,109.294 287.880,110.600 289.200 M349.200 288.800 C 348.084 290.987,348.389 291.292,349.538 289.138 C 350.023 288.230,350.338 287.405,350.238 287.305 C 350.138 287.204,349.671 287.877,349.200 288.800 M43.236 292.807 C 43.942 294.131,44.582 295.152,44.658 295.075 C 44.831 294.902,42.412 290.400,42.146 290.400 C 42.040 290.400,42.530 291.483,43.236 292.807 M275.186 293.879 C 273.536 295.599,273.397 295.819,274.620 294.779 C 276.083 293.533,277.838 291.600,277.505 291.600 C 277.432 291.600,276.389 292.625,275.186 293.879 M115.900 294.415 C 117.931 296.584,117.948 296.751,116.361 299.056 C 115.680 300.046,115.209 300.943,115.315 301.048 C 115.567 301.300,118.000 297.339,118.000 296.677 C 118.000 296.396,117.145 295.364,116.100 294.383 L 114.200 292.600 115.900 294.415 M346.614 293.835 C 346.241 294.404,346.027 294.961,346.139 295.072 C 346.250 295.183,346.629 294.718,346.981 294.037 C 347.759 292.533,347.544 292.415,346.614 293.835 M343.959 298.500 C 343.037 300.095,340.770 303.650,338.920 306.400 C 337.071 309.150,336.016 310.860,336.577 310.200 C 338.882 307.486,346.429 295.600,345.847 295.600 C 345.731 295.600,344.881 296.905,343.959 298.500 M272.106 296.454 C 271.669 296.891,271.979 297.411,279.742 309.300 C 280.999 311.225,282.114 312.800,282.219 312.800 C 282.447 312.800,281.817 311.795,276.283 303.325 C 273.740 299.432,272.241 296.782,272.526 296.679 C 272.787 296.586,272.898 296.398,272.773 296.261 C 272.649 296.125,272.349 296.211,272.106 296.454 M47.218 299.800 C 47.218 300.020,47.570 300.650,48.000 301.200 C 48.430 301.750,48.782 302.020,48.782 301.800 C 48.782 301.580,48.430 300.950,48.000 300.400 C 47.570 299.850,47.218 299.580,47.218 299.800 M114.069 302.439 C 113.310 303.654,113.766 303.816,114.555 302.612 C 114.920 302.056,115.078 301.600,114.905 301.600 C 114.733 301.600,114.357 301.978,114.069 302.439 M50.436 304.805 C 51.364 306.128,52.193 307.140,52.279 307.055 C 52.502 306.831,49.464 302.434,49.074 302.415 C 48.895 302.407,49.508 303.482,50.436 304.805 M112.469 304.839 C 111.710 306.054,112.166 306.216,112.955 305.012 C 113.320 304.456,113.478 304.000,113.305 304.000 C 113.133 304.000,112.757 304.378,112.469 304.839 M106.984 313.398 C 104.463 317.247,102.400 320.529,102.400 320.691 C 102.400 321.047,103.185 319.901,108.151 312.285 C 110.262 309.048,111.895 306.400,111.779 306.400 C 111.663 306.400,109.506 309.549,106.984 313.398 M53.296 308.900 C 53.841 309.615,55.137 311.415,56.175 312.900 C 57.213 314.385,58.147 315.600,58.252 315.600 C 58.597 315.600,53.008 307.629,52.653 307.614 C 52.461 307.606,52.751 308.185,53.296 308.900 M334.117 312.905 C 333.631 313.617,332.851 314.695,332.383 315.300 C 331.916 315.905,331.628 316.400,331.743 316.400 C 331.859 316.400,332.784 315.320,333.800 314.000 C 334.816 312.680,335.501 311.602,335.323 311.605 C 335.146 311.608,334.602 312.193,334.117 312.905 M284.832 317.052 C 286.792 320.397,291.809 327.953,292.085 327.976 C 292.242 327.989,290.645 325.345,288.536 322.100 C 284.777 316.317,282.916 313.780,284.832 317.052 M59.590 317.587 C 60.282 318.461,61.657 320.036,62.646 321.087 C 63.635 322.139,63.153 321.425,61.575 319.500 C 59.997 317.575,58.622 316.000,58.519 316.000 C 58.417 316.000,58.899 316.714,59.590 317.587 M329.651 318.591 C 328.743 319.576,328.000 320.506,328.000 320.658 C 328.000 320.809,328.059 320.858,328.132 320.767 C 328.204 320.675,329.037 319.745,329.983 318.700 C 330.928 317.655,331.612 316.800,331.502 316.800 C 331.392 316.800,330.559 317.606,329.651 318.591 M101.257 322.057 C 100.975 322.509,100.832 322.966,100.940 323.073 C 101.047 323.181,101.344 322.878,101.600 322.400 C 102.205 321.270,101.924 320.990,101.257 322.057 M325.591 323.295 C 325.046 323.980,324.420 324.742,324.200 324.988 C 323.980 325.235,323.364 325.923,322.830 326.518 C 322.297 327.113,321.967 327.600,322.096 327.600 C 322.453 327.600,326.939 322.406,326.748 322.215 C 326.657 322.123,326.136 322.609,325.591 323.295 M65.622 324.676 C 66.380 325.488,67.254 326.430,67.564 326.769 C 67.875 327.108,68.055 327.186,67.964 326.941 C 67.735 326.321,64.864 323.200,64.523 323.200 C 64.369 323.200,64.863 323.864,65.622 324.676 M99.943 324.300 C 98.996 325.442,96.331 329.665,96.471 329.802 C 96.542 329.872,97.546 328.505,98.702 326.765 C 100.716 323.733,101.183 322.806,99.943 324.300 M71.800 331.200 C 73.328 332.740,74.669 334.000,74.779 334.000 C 74.889 334.000,73.728 332.740,72.200 331.200 C 70.672 329.660,69.331 328.400,69.221 328.400 C 69.111 328.400,70.272 329.660,71.800 331.200 M292.400 328.549 C 292.400 328.910,297.160 336.000,297.403 336.000 C 297.561 336.000,293.012 328.886,292.565 328.433 C 292.474 328.342,292.400 328.394,292.400 328.549 M93.478 334.053 C 90.403 338.868,90.720 338.950,93.902 334.164 C 95.278 332.094,96.268 330.404,96.102 330.409 C 95.936 330.414,94.755 332.054,93.478 334.053 M317.597 332.003 C 317.088 332.444,316.760 332.893,316.868 333.001 C 316.975 333.109,317.486 332.748,318.001 332.198 C 319.128 331.000,318.887 330.883,317.597 332.003 M77.159 336.120 C 77.467 336.508,78.637 337.576,79.759 338.494 C 81.084 339.578,81.449 339.770,80.800 339.042 C 79.624 337.723,76.340 335.088,77.159 336.120 M311.578 337.900 L 310.200 339.400 311.700 338.022 C 313.096 336.738,313.384 336.400,313.078 336.400 C 313.012 336.400,312.337 337.075,311.578 337.900 M90.057 339.257 C 89.775 339.709,89.632 340.166,89.740 340.273 C 89.847 340.381,90.144 340.078,90.400 339.600 C 91.005 338.470,90.724 338.190,90.057 339.257 M299.782 339.800 C 300.516 341.287,301.979 343.141,301.991 342.600 C 301.995 342.380,301.594 341.720,301.100 341.134 C 300.605 340.547,299.972 339.737,299.694 339.334 C 299.416 338.930,299.455 339.140,299.782 339.800 M308.654 340.255 C 308.023 340.797,307.573 341.306,307.654 341.386 C 307.734 341.466,308.316 341.088,308.946 340.545 C 309.577 340.003,310.027 339.494,309.946 339.414 C 309.866 339.334,309.284 339.712,308.654 340.255 M82.800 340.888 C 82.800 341.915,86.932 344.434,87.534 343.774 C 88.161 343.087,88.158 343.076,87.484 343.584 C 86.856 344.058,86.608 343.979,85.484 342.942 C 83.905 341.486,82.800 340.641,82.800 340.888 M88.469 341.639 C 87.710 342.854,88.166 343.016,88.955 341.812 C 89.320 341.256,89.478 340.800,89.305 340.800 C 89.133 340.800,88.757 341.178,88.469 341.639 M305.372 342.938 C 304.507 343.674,303.530 344.380,303.200 344.507 C 302.667 344.711,302.667 344.739,303.200 344.756 C 303.745 344.774,307.704 341.640,307.172 341.612 C 307.047 341.605,306.237 342.202,305.372 342.938 M135.115 357.128 C 134.738 357.278,161.378 357.356,194.315 357.303 C 227.252 357.250,254.398 357.340,254.639 357.503 C 254.881 357.666,255.842 359.015,256.775 360.500 C 258.543 363.313,259.540 364.321,257.962 361.700 C 256.384 359.078,255.493 357.814,254.862 357.300 C 254.191 356.754,136.483 356.585,135.115 357.128 M133.445 358.988 C 133.080 359.544,132.922 360.000,133.095 360.000 C 133.484 360.000,134.519 358.386,134.282 358.149 C 134.186 358.053,133.810 358.431,133.445 358.988 M131.296 362.432 C 130.580 363.515,130.077 364.400,130.178 364.400 C 130.450 364.400,132.900 360.767,132.738 360.604 C 132.661 360.527,132.012 361.350,131.296 362.432 M259.600 365.028 C 259.600 365.343,261.997 368.800,262.216 368.800 C 262.313 368.800,261.839 367.900,261.162 366.800 C 260.018 364.940,259.600 364.466,259.600 365.028 M124.937 371.905 C 124.024 373.145,123.098 374.800,123.318 374.800 C 123.601 374.800,126.083 371.149,125.914 370.981 C 125.820 370.887,125.380 371.303,124.937 371.905 M264.022 371.800 C 264.027 372.329,265.142 373.791,265.369 373.565 C 265.466 373.468,265.202 372.941,264.782 372.394 C 264.361 371.847,264.020 371.580,264.022 371.800 M265.661 374.210 C 265.950 375.064,268.929 379.604,269.092 379.441 C 269.187 379.347,268.422 378.039,267.393 376.535 C 266.364 375.031,265.585 373.985,265.661 374.210 M118.400 381.800 C 117.287 383.450,116.516 384.796,116.688 384.791 C 117.005 384.782,120.904 378.800,120.593 378.800 C 120.500 378.800,119.513 380.150,118.400 381.800 M271.600 383.738 C 271.600 384.107,275.556 390.000,275.804 390.000 C 275.990 390.000,272.549 384.493,271.943 383.820 C 271.754 383.611,271.600 383.574,271.600 383.738 M112.871 390.279 C 111.040 393.031,109.721 395.173,109.940 395.037 C 110.420 394.740,116.494 385.559,116.321 385.391 C 116.255 385.327,114.702 387.526,112.871 390.279 M276.022 390.600 C 276.027 391.129,277.142 392.591,277.369 392.365 C 277.466 392.268,277.202 391.741,276.782 391.194 C 276.361 390.647,276.020 390.380,276.022 390.600 M277.615 393.000 C 277.617 393.220,277.986 393.850,278.436 394.400 C 278.979 395.064,279.115 395.131,278.840 394.600 C 278.166 393.295,277.612 392.572,277.615 393.000 M280.817 398.200 C 281.758 399.740,282.790 401.270,283.111 401.600 C 283.431 401.930,282.923 400.940,281.983 399.400 C 281.042 397.860,280.010 396.330,279.689 396.000 C 279.369 395.670,279.877 396.660,280.817 398.200 M283.600 402.538 C 283.600 402.907,287.556 408.800,287.804 408.800 C 287.990 408.800,284.549 403.293,283.943 402.620 C 283.754 402.411,283.600 402.374,283.600 402.538 M99.059 411.195 C 98.036 412.733,97.200 414.125,97.200 414.290 C 97.200 414.455,97.800 413.692,98.534 412.595 C 100.835 409.155,101.298 408.400,101.105 408.400 C 101.002 408.400,100.081 409.658,99.059 411.195 M288.025 409.400 C 288.025 409.620,288.290 410.149,288.613 410.576 C 288.936 411.004,289.200 411.173,289.200 410.953 C 289.200 410.733,288.936 410.204,288.613 409.776 C 288.290 409.349,288.025 409.180,288.025 409.400 " stroke="none" fill="#9b9c9d" fill-rule="evenodd"></path><path id="path3" d="M273.600 122.510 C 273.600 122.571,274.995 123.966,276.700 125.610 L 279.800 128.600 276.810 125.500 C 274.033 122.621,273.600 122.217,273.600 122.510 M21.309 210.400 C 21.309 211.390,21.387 211.795,21.482 211.300 C 21.578 210.805,21.578 209.995,21.482 209.500 C 21.387 209.005,21.309 209.410,21.309 210.400 " stroke="none" fill="#b3bdc4" fill-rule="evenodd"></path><path id="path4" d="M192.121 35.098 C 194.277 35.171,197.697 35.170,199.721 35.098 C 201.744 35.025,199.980 34.966,195.800 34.967 C 191.620 34.967,189.964 35.026,192.121 35.098 M319.400 87.200 C 321.812 89.620,323.876 91.600,323.986 91.600 C 324.096 91.600,322.212 89.620,319.800 87.200 C 317.388 84.780,315.324 82.800,315.214 82.800 C 315.104 82.800,316.988 84.780,319.400 87.200 M194.311 92.293 C 195.251 92.378,196.691 92.377,197.511 92.291 C 198.330 92.205,197.560 92.136,195.800 92.137 C 194.040 92.139,193.370 92.209,194.311 92.293 M205.700 92.676 C 206.085 92.776,206.715 92.776,207.100 92.676 C 207.485 92.575,207.170 92.493,206.400 92.493 C 205.630 92.493,205.315 92.575,205.700 92.676 M281.000 130.000 C 281.859 130.880,282.652 131.600,282.762 131.600 C 282.872 131.600,282.259 130.880,281.400 130.000 C 280.541 129.120,279.748 128.400,279.638 128.400 C 279.528 128.400,280.141 129.120,281.000 130.000 M368.901 197.800 C 368.905 198.680,368.987 198.993,369.083 198.495 C 369.179 197.998,369.175 197.278,369.075 196.895 C 368.975 196.513,368.896 196.920,368.901 197.800 M21.309 207.200 C 21.309 208.190,21.387 208.595,21.482 208.100 C 21.578 207.605,21.578 206.795,21.482 206.300 C 21.387 205.805,21.309 206.210,21.309 207.200 M78.493 209.600 C 78.493 210.370,78.575 210.685,78.676 210.300 C 78.776 209.915,78.776 209.285,78.676 208.900 C 78.575 208.515,78.493 208.830,78.493 209.600 M79.293 220.400 C 79.293 221.170,79.375 221.485,79.476 221.100 C 79.576 220.715,79.576 220.085,79.476 219.700 C 79.375 219.315,79.293 219.630,79.293 220.400 M22.109 224.400 C 22.109 225.390,22.187 225.795,22.282 225.300 C 22.378 224.805,22.378 223.995,22.282 223.500 C 22.187 223.005,22.109 223.410,22.109 224.400 M279.578 289.500 L 278.200 291.000 279.700 289.622 C 281.096 288.338,281.384 288.000,281.078 288.000 C 281.012 288.000,280.337 288.675,279.578 289.500 M117.248 295.400 C 117.604 295.840,117.995 296.470,118.116 296.800 C 118.303 297.309,118.342 297.304,118.368 296.762 C 118.386 296.411,117.995 295.781,117.500 295.362 C 116.608 294.606,116.606 294.607,117.248 295.400 M315.178 334.700 L 313.800 336.200 315.300 334.822 C 316.696 333.538,316.984 333.200,316.678 333.200 C 316.612 333.200,315.937 333.875,315.178 334.700 M84.400 342.525 C 84.400 342.594,84.985 343.179,85.700 343.825 L 87.000 345.000 85.825 343.700 C 84.730 342.488,84.400 342.216,84.400 342.525 M145.932 414.700 C 172.625 414.757,216.185 414.757,242.732 414.700 C 269.279 414.643,247.440 414.597,194.200 414.597 C 140.960 414.597,119.239 414.643,145.932 414.700 " stroke="none" fill="#b4b4b4" fill-rule="evenodd"></path><path id="path5" d="M187.777 275.900 C 184.076 281.565,178.607 289.890,175.624 294.400 C 172.641 298.910,170.128 302.780,170.039 303.000 C 169.951 303.220,169.186 304.425,168.339 305.678 C 167.493 306.931,166.800 308.146,166.800 308.378 C 166.800 308.670,175.489 308.800,195.000 308.800 C 215.323 308.800,223.200 308.677,223.200 308.358 C 223.200 307.580,195.512 265.600,194.999 265.600 C 194.727 265.600,191.477 270.235,187.777 275.900 " stroke="none" fill="#6ac6e0" fill-rule="evenodd"></path><path id="path6" d="M185.505 35.083 C 186.002 35.179,186.722 35.175,187.105 35.075 C 187.487 34.975,187.080 34.896,186.200 34.901 C 185.320 34.905,185.007 34.987,185.505 35.083 M205.105 35.083 C 205.602 35.179,206.322 35.175,206.705 35.075 C 207.087 34.975,206.680 34.896,205.800 34.901 C 204.920 34.905,204.607 34.987,205.105 35.083 M71.193 86.700 L 67.000 91.000 71.300 86.807 C 73.665 84.501,75.600 82.566,75.600 82.507 C 75.600 82.218,75.087 82.706,71.193 86.700 M115.578 123.900 L 114.200 125.400 115.700 124.022 C 116.525 123.263,117.200 122.588,117.200 122.522 C 117.200 122.216,116.862 122.504,115.578 123.900 M109.787 129.700 L 107.400 132.200 109.900 129.813 C 112.222 127.595,112.583 127.200,112.287 127.200 C 112.226 127.200,111.101 128.325,109.787 129.700 M306.070 141.100 C 315.019 141.160,329.779 141.160,338.870 141.100 C 347.962 141.040,340.640 140.991,322.600 140.991 C 304.560 140.991,297.122 141.040,306.070 141.100 M195.200 180.699 C 195.200 180.865,233.844 180.954,281.075 180.898 C 349.580 180.817,367.022 180.898,367.306 181.298 C 367.570 181.671,367.619 181.646,367.497 181.200 C 367.319 180.546,195.200 180.046,195.200 180.699 M79.293 200.000 C 79.293 200.770,79.375 201.085,79.476 200.700 C 79.576 200.315,79.576 199.685,79.476 199.300 C 79.375 198.915,79.293 199.230,79.293 200.000 M21.314 202.200 C 21.317 203.300,21.395 203.703,21.487 203.095 C 21.579 202.486,21.577 201.586,21.482 201.095 C 21.387 200.603,21.311 201.100,21.314 202.200 M369.293 206.000 C 369.293 206.770,369.375 207.085,369.476 206.700 C 369.576 206.315,369.576 205.685,369.476 205.300 C 369.375 204.915,369.293 205.230,369.293 206.000 M369.293 211.600 C 369.293 212.370,369.375 212.685,369.476 212.300 C 369.576 211.915,369.576 211.285,369.476 210.900 C 369.375 210.515,369.293 210.830,369.293 211.600 M21.334 214.800 C 21.334 216.450,21.405 217.125,21.491 216.300 C 21.578 215.475,21.578 214.125,21.491 213.300 C 21.405 212.475,21.334 213.150,21.334 214.800 M164.900 356.700 C 181.345 356.758,208.255 356.758,224.700 356.700 C 241.145 356.642,227.690 356.595,194.800 356.595 C 161.910 356.595,148.455 356.642,164.900 356.700 " stroke="none" fill="#c7c7c8" fill-rule="evenodd"></path><path id="path7" d="M192.900 34.697 C 194.605 34.772,197.395 34.772,199.100 34.697 C 200.805 34.622,199.410 34.561,196.000 34.561 C 192.590 34.561,191.195 34.622,192.900 34.697 M179.400 35.192 C 178.927 35.390,179.827 35.438,181.600 35.309 C 183.250 35.188,184.675 35.024,184.767 34.945 C 185.114 34.643,180.163 34.872,179.400 35.192 M207.233 34.947 C 207.325 35.028,208.660 35.186,210.200 35.299 C 211.802 35.416,212.658 35.365,212.200 35.180 C 211.422 34.865,206.900 34.653,207.233 34.947 M172.000 36.002 C 171.400 36.195,172.040 36.237,173.600 36.106 C 175.030 35.986,176.275 35.823,176.367 35.744 C 176.689 35.465,172.988 35.684,172.000 36.002 M214.833 35.746 C 214.925 35.826,215.990 35.994,217.200 36.119 C 218.620 36.266,219.046 36.229,218.400 36.013 C 217.409 35.683,214.513 35.465,214.833 35.746 M167.000 36.803 C 166.485 37.026,166.913 37.067,168.200 36.918 C 169.300 36.791,170.275 36.623,170.367 36.544 C 170.714 36.245,167.764 36.472,167.000 36.803 M220.900 36.676 C 221.285 36.776,221.915 36.776,222.300 36.676 C 222.685 36.575,222.370 36.493,221.600 36.493 C 220.830 36.493,220.515 36.575,220.900 36.676 M164.100 37.476 C 164.485 37.576,165.115 37.576,165.500 37.476 C 165.885 37.375,165.570 37.293,164.800 37.293 C 164.030 37.293,163.715 37.375,164.100 37.476 M225.300 37.476 C 225.685 37.576,226.315 37.576,226.700 37.476 C 227.085 37.375,226.770 37.293,226.000 37.293 C 225.230 37.293,224.915 37.375,225.300 37.476 M232.600 38.800 C 233.040 38.989,233.670 39.144,234.000 39.144 C 234.378 39.144,234.304 39.017,233.800 38.800 C 233.360 38.611,232.730 38.456,232.400 38.456 C 232.022 38.456,232.096 38.583,232.600 38.800 M248.600 43.012 C 250.673 43.758,251.394 43.740,249.654 42.984 C 248.914 42.663,248.014 42.408,247.654 42.418 C 247.294 42.427,247.720 42.695,248.600 43.012 M126.600 48.591 C 125.500 49.109,124.780 49.537,125.000 49.542 C 125.220 49.547,126.300 49.127,127.400 48.609 C 128.500 48.091,129.220 47.663,129.000 47.658 C 128.780 47.653,127.700 48.073,126.600 48.591 M263.552 48.609 C 264.735 49.170,265.778 49.556,265.868 49.465 C 265.959 49.374,265.261 48.988,264.317 48.606 C 261.580 47.500,261.217 47.501,263.552 48.609 M282.800 58.179 C 282.800 58.289,283.340 58.659,284.000 59.000 C 284.660 59.341,285.200 59.531,285.200 59.421 C 285.200 59.311,284.660 58.941,284.000 58.600 C 283.340 58.259,282.800 58.069,282.800 58.179 M103.290 60.566 C 99.056 63.468,99.355 63.558,103.775 60.712 C 106.417 59.011,106.698 58.790,106.167 58.823 C 105.965 58.836,104.671 59.620,103.290 60.566 M98.333 63.809 C 97.526 64.337,96.749 64.959,96.607 65.189 C 96.464 65.420,97.169 65.054,98.174 64.376 C 99.178 63.698,100.000 63.066,100.000 62.972 C 100.000 62.724,99.948 62.750,98.333 63.809 M92.900 67.640 C 91.965 68.302,91.200 68.933,91.200 69.041 C 91.200 69.150,92.010 68.681,93.000 68.000 C 93.990 67.319,94.800 66.680,94.800 66.581 C 94.800 66.305,94.724 66.348,92.900 67.640 M302.888 71.813 C 303.486 72.443,304.047 72.877,304.135 72.779 C 304.223 72.680,303.733 72.165,303.047 71.634 L 301.800 70.669 302.888 71.813 M84.967 73.829 L 83.400 75.258 85.100 73.962 C 86.653 72.778,87.032 72.400,86.667 72.400 C 86.593 72.400,85.828 73.043,84.967 73.829 M304.800 73.308 C 304.800 73.400,305.700 74.234,306.800 75.161 C 307.900 76.089,308.792 76.702,308.783 76.524 C 308.766 76.198,304.800 72.996,304.800 73.308 M81.381 76.900 L 79.800 78.600 81.500 77.019 C 82.435 76.149,83.200 75.384,83.200 75.319 C 83.200 75.016,82.852 75.319,81.381 76.900 M76.494 81.212 C 75.775 81.865,75.337 82.400,75.519 82.400 C 75.701 82.400,76.368 81.860,77.000 81.200 C 78.470 79.665,78.186 79.672,76.494 81.212 M318.800 86.187 C 322.210 89.699,325.045 92.653,325.100 92.752 C 325.155 92.852,325.200 92.756,325.200 92.540 C 325.200 92.087,322.242 89.022,316.573 83.601 C 314.089 81.227,314.924 82.196,318.800 86.187 M72.981 84.500 L 71.400 86.200 73.100 84.619 C 74.035 83.749,74.800 82.984,74.800 82.919 C 74.800 82.616,74.452 82.919,72.981 84.500 M190.900 92.687 C 191.505 92.778,192.495 92.778,193.100 92.687 C 193.705 92.595,193.210 92.520,192.000 92.520 C 190.790 92.520,190.295 92.595,190.900 92.687 M198.291 92.689 C 199.001 92.777,200.261 92.779,201.091 92.692 C 201.921 92.605,201.340 92.533,199.800 92.531 C 198.260 92.529,197.581 92.600,198.291 92.689 M186.700 93.082 C 187.195 93.178,188.005 93.178,188.500 93.082 C 188.995 92.987,188.590 92.909,187.600 92.909 C 186.610 92.909,186.205 92.987,186.700 93.082 M204.100 93.087 C 204.705 93.178,205.695 93.178,206.300 93.087 C 206.905 92.995,206.410 92.920,205.200 92.920 C 203.990 92.920,203.495 92.995,204.100 93.087 M181.500 93.482 C 181.995 93.578,182.805 93.578,183.300 93.482 C 183.795 93.387,183.390 93.309,182.400 93.309 C 181.410 93.309,181.005 93.387,181.500 93.482 M208.900 93.476 C 209.285 93.576,209.915 93.576,210.300 93.476 C 210.685 93.375,210.370 93.293,209.600 93.293 C 208.830 93.293,208.515 93.375,208.900 93.476 M63.375 94.900 L 62.200 96.200 63.500 95.025 C 64.712 93.930,64.984 93.600,64.675 93.600 C 64.606 93.600,64.021 94.185,63.375 94.900 M176.705 94.283 C 177.202 94.379,177.922 94.375,178.305 94.275 C 178.687 94.175,178.280 94.096,177.400 94.101 C 176.520 94.105,176.207 94.187,176.705 94.283 M213.905 94.283 C 214.402 94.379,215.122 94.375,215.505 94.275 C 215.887 94.175,215.480 94.096,214.600 94.101 C 213.720 94.105,213.407 94.187,213.905 94.283 M172.800 94.800 C 171.433 95.088,171.428 95.095,172.600 95.119 C 173.260 95.133,174.160 94.989,174.600 94.800 C 175.562 94.387,174.764 94.387,172.800 94.800 M217.400 94.781 C 218.168 95.129,220.310 95.356,219.967 95.053 C 219.875 94.972,219.080 94.796,218.200 94.662 C 217.085 94.493,216.842 94.529,217.400 94.781 M169.000 95.600 C 168.229 95.931,168.231 95.945,169.076 95.972 C 169.558 95.987,170.064 95.820,170.200 95.600 C 170.492 95.127,170.101 95.127,169.000 95.600 M329.000 97.200 C 329.859 98.080,330.637 98.800,330.728 98.800 C 331.065 98.800,328.186 95.666,327.819 95.634 C 327.609 95.615,328.141 96.320,329.000 97.200 M56.927 102.700 C 54.702 105.431,54.280 106.000,54.479 106.000 C 54.577 106.000,55.594 104.830,56.740 103.400 C 57.886 101.970,58.745 100.800,58.649 100.800 C 58.553 100.800,57.778 101.655,56.927 102.700 M338.400 109.600 C 338.870 110.260,339.344 110.800,339.454 110.800 C 339.564 110.800,339.270 110.260,338.800 109.600 C 338.330 108.940,337.856 108.400,337.746 108.400 C 337.636 108.400,337.930 108.940,338.400 109.600 M132.700 110.808 C 131.655 111.465,130.800 112.089,130.800 112.197 C 130.800 112.305,131.700 111.839,132.800 111.162 C 133.900 110.485,134.800 109.857,134.800 109.766 C 134.800 109.502,134.703 109.550,132.700 110.808 M259.600 112.178 C 259.600 112.450,263.233 114.900,263.396 114.738 C 263.473 114.661,262.650 114.012,261.568 113.296 C 260.485 112.580,259.600 112.077,259.600 112.178 M49.293 113.500 C 48.257 114.996,47.921 115.600,48.123 115.600 C 48.217 115.600,48.770 114.880,49.353 114.000 C 50.536 112.212,50.484 111.779,49.293 113.500 M341.837 114.600 C 342.197 115.150,342.557 115.600,342.637 115.600 C 342.717 115.600,342.578 115.150,342.327 114.600 C 342.077 114.050,341.716 113.600,341.527 113.600 C 341.337 113.600,341.476 114.050,341.837 114.600 M265.286 116.310 C 267.565 118.235,268.275 118.600,266.400 116.883 C 265.410 115.976,264.459 115.226,264.286 115.217 C 264.113 115.208,264.563 115.699,265.286 116.310 M121.800 118.644 L 120.200 120.076 121.900 118.804 C 123.363 117.710,123.891 117.183,123.500 117.206 C 123.445 117.209,122.680 117.856,121.800 118.644 M269.167 119.345 C 269.700 120.001,271.200 120.993,271.200 120.689 C 271.200 120.613,270.615 120.122,269.900 119.599 C 269.096 119.010,268.816 118.913,269.167 119.345 M345.386 120.300 C 345.735 121.015,346.106 121.600,346.210 121.600 C 346.608 121.600,346.352 120.963,345.567 120.000 L 344.752 119.000 345.386 120.300 M277.990 127.400 C 280.720 130.260,283.132 132.780,283.348 133.000 C 283.565 133.220,283.183 132.680,282.500 131.800 C 281.816 130.920,279.405 128.400,277.141 126.200 C 273.110 122.282,273.127 122.306,277.990 127.400 M42.032 125.868 C 41.356 127.116,40.866 128.199,40.942 128.275 C 41.018 128.352,41.658 127.331,42.364 126.007 C 43.070 124.683,43.560 123.600,43.454 123.600 C 43.347 123.600,42.707 124.621,42.032 125.868 M113.375 126.500 L 112.200 127.800 113.500 126.625 C 114.215 125.979,114.800 125.394,114.800 125.325 C 114.800 125.016,114.470 125.288,113.375 126.500 M106.800 133.200 C 106.330 133.860,106.036 134.400,106.146 134.400 C 106.256 134.400,106.730 133.860,107.200 133.200 C 107.670 132.540,107.964 132.000,107.854 132.000 C 107.744 132.000,107.270 132.540,106.800 133.200 M284.955 135.319 C 285.803 136.353,286.580 137.200,286.682 137.200 C 286.955 137.200,284.421 134.060,283.877 133.724 C 283.622 133.566,284.107 134.284,284.955 135.319 M287.481 138.587 C 287.877 139.131,288.366 139.581,288.570 139.587 C 288.773 139.594,288.517 139.150,288.000 138.600 C 286.801 137.323,286.557 137.318,287.481 138.587 M30.091 152.900 C 29.410 154.784,29.504 155.294,30.226 153.630 C 30.553 152.877,30.766 152.099,30.701 151.902 C 30.635 151.705,30.360 152.154,30.091 152.900 M28.249 158.215 C 28.112 158.573,28.015 159.166,28.034 159.533 C 28.053 159.900,28.227 159.669,28.421 159.020 C 28.798 157.758,28.665 157.133,28.249 158.215 M88.465 162.617 C 88.209 163.178,88.007 163.854,88.016 164.119 C 88.024 164.383,88.297 163.988,88.622 163.239 C 89.305 161.665,89.161 161.090,88.465 162.617 M23.693 177.600 C 23.693 178.370,23.775 178.685,23.876 178.300 C 23.976 177.915,23.976 177.285,23.876 176.900 C 23.775 176.515,23.693 176.830,23.693 177.600 M22.901 182.600 C 22.905 183.480,22.987 183.793,23.083 183.295 C 23.179 182.798,23.175 182.078,23.075 181.695 C 22.975 181.313,22.896 181.720,22.901 182.600 M22.256 186.084 C 22.121 186.588,22.032 187.720,22.058 188.600 C 22.097 189.920,22.159 189.780,22.413 187.800 C 22.737 185.278,22.670 184.541,22.256 186.084 M368.509 190.400 C 368.509 191.390,368.587 191.795,368.682 191.300 C 368.778 190.805,368.778 189.995,368.682 189.500 C 368.587 189.005,368.509 189.410,368.509 190.400 M80.501 190.600 C 80.505 191.480,80.587 191.793,80.683 191.295 C 80.779 190.798,80.775 190.078,80.675 189.695 C 80.575 189.313,80.496 189.720,80.501 190.600 M21.453 194.836 C 21.314 195.531,21.225 197.113,21.255 198.350 C 21.303 200.359,21.344 200.237,21.635 197.214 C 21.973 193.704,21.891 192.643,21.453 194.836 M369.354 200.000 C 369.354 202.750,369.418 203.875,369.496 202.500 C 369.574 201.125,369.574 198.875,369.496 197.500 C 369.418 196.125,369.354 197.250,369.354 200.000 M79.324 203.400 C 79.326 204.720,79.401 205.212,79.490 204.493 C 79.579 203.774,79.577 202.694,79.486 202.093 C 79.395 201.492,79.322 202.080,79.324 203.400 M78.909 207.600 C 78.909 208.590,78.987 208.995,79.082 208.500 C 79.178 208.005,79.178 207.195,79.082 206.700 C 78.987 206.205,78.909 206.610,78.909 207.600 M369.693 208.800 C 369.693 209.570,369.775 209.885,369.876 209.500 C 369.976 209.115,369.976 208.485,369.876 208.100 C 369.775 207.715,369.693 208.030,369.693 208.800 M78.893 211.600 C 78.893 212.370,78.975 212.685,79.076 212.300 C 79.176 211.915,79.176 211.285,79.076 210.900 C 78.975 210.515,78.893 210.830,78.893 211.600 M369.348 216.800 C 369.348 219.110,369.414 220.055,369.495 218.900 C 369.576 217.745,369.576 215.855,369.495 214.700 C 369.414 213.545,369.348 214.490,369.348 216.800 M79.309 214.800 C 79.309 215.790,79.387 216.195,79.482 215.700 C 79.578 215.205,79.578 214.395,79.482 213.900 C 79.387 213.405,79.309 213.810,79.309 214.800 M218.995 217.800 C 220.803 220.725,221.420 221.590,221.699 221.595 C 221.864 221.598,221.337 220.655,220.529 219.500 C 218.817 217.056,217.920 216.061,218.995 217.800 M21.247 219.833 C 21.273 221.135,21.436 222.740,21.609 223.400 C 21.790 224.090,21.831 223.156,21.706 221.200 C 21.454 217.231,21.179 216.413,21.247 219.833 M79.640 221.633 C 79.662 222.385,79.830 223.450,80.013 224.000 C 80.229 224.646,80.266 224.220,80.119 222.800 C 79.859 220.283,79.581 219.607,79.640 221.633 M368.524 227.000 C 368.526 228.320,368.601 228.812,368.690 228.093 C 368.779 227.374,368.777 226.294,368.686 225.693 C 368.595 225.092,368.522 225.680,368.524 227.000 M80.493 226.400 C 80.493 227.170,80.575 227.485,80.676 227.100 C 80.776 226.715,80.776 226.085,80.676 225.700 C 80.575 225.315,80.493 225.630,80.493 226.400 M22.028 229.233 C 22.044 229.985,22.212 230.960,22.403 231.400 C 22.626 231.915,22.667 231.487,22.518 230.200 C 22.244 227.822,21.989 227.319,22.028 229.233 M81.293 230.800 C 81.293 231.570,81.375 231.885,81.476 231.500 C 81.576 231.115,81.576 230.485,81.476 230.100 C 81.375 229.715,81.293 230.030,81.293 230.800 M367.800 232.000 C 367.646 232.910,367.604 233.738,367.707 233.840 C 367.810 233.943,368.013 233.277,368.160 232.360 C 368.307 231.443,368.348 230.615,368.253 230.520 C 368.158 230.424,367.954 231.090,367.800 232.000 M22.828 235.233 C 22.844 235.985,23.012 236.960,23.203 237.400 C 23.426 237.915,23.467 237.487,23.318 236.200 C 23.044 233.822,22.789 233.319,22.828 235.233 M82.428 236.676 C 82.518 237.715,83.144 238.596,83.172 237.724 C 83.187 237.242,83.020 236.736,82.800 236.600 C 82.580 236.464,82.413 236.498,82.428 236.676 M367.050 237.650 C 366.909 238.353,366.869 239.002,366.959 239.092 C 367.050 239.183,367.248 238.691,367.400 238.000 C 367.552 237.309,367.593 236.659,367.491 236.558 C 367.389 236.456,367.191 236.947,367.050 237.650 M232.749 238.100 C 233.266 238.759,235.471 238.794,270.349 238.702 L 307.400 238.604 270.438 238.500 C 241.691 238.419,233.335 238.285,232.838 237.898 C 232.273 237.457,232.263 237.480,232.749 238.100 M23.693 239.600 C 23.693 240.370,23.775 240.685,23.876 240.300 C 23.976 239.915,23.976 239.285,23.876 238.900 C 23.775 238.515,23.693 238.830,23.693 239.600 M365.646 245.467 C 365.621 245.724,365.484 246.264,365.341 246.667 C 365.140 247.236,365.194 247.297,365.579 246.942 C 365.852 246.691,365.989 246.151,365.884 245.742 C 365.779 245.334,365.672 245.210,365.646 245.467 M26.406 252.233 C 26.409 252.655,26.595 253.270,26.818 253.600 C 27.115 254.038,27.152 253.876,26.956 253.000 C 26.627 251.529,26.398 251.210,26.406 252.233 M363.254 255.467 C 363.225 255.944,363.096 256.664,362.970 257.067 C 362.752 257.761,362.764 257.762,363.196 257.088 C 363.447 256.697,363.575 255.977,363.481 255.488 C 363.309 254.601,363.309 254.601,363.254 255.467 M90.600 259.600 C 90.941 260.260,91.311 260.800,91.421 260.800 C 91.531 260.800,91.341 260.260,91.000 259.600 C 90.659 258.940,90.289 258.400,90.179 258.400 C 90.069 258.400,90.259 258.940,90.600 259.600 M298.614 261.835 C 298.241 262.404,298.005 262.938,298.089 263.022 C 298.173 263.107,298.558 262.641,298.944 261.988 C 299.806 260.528,299.548 260.409,298.614 261.835 M297.014 264.635 C 296.641 265.204,296.427 265.761,296.539 265.872 C 296.650 265.983,297.029 265.518,297.381 264.837 C 298.159 263.333,297.944 263.215,297.014 264.635 M93.800 265.600 C 94.141 266.260,94.511 266.800,94.621 266.800 C 94.731 266.800,94.541 266.260,94.200 265.600 C 93.859 264.940,93.489 264.400,93.379 264.400 C 93.269 264.400,93.459 264.940,93.800 265.600 M194.500 265.065 C 193.683 265.395,193.930 265.800,194.949 265.800 C 195.544 265.800,195.827 265.613,195.706 265.300 C 195.504 264.773,195.314 264.736,194.500 265.065 M192.400 268.200 C 191.719 269.190,191.252 270.000,191.362 270.000 C 191.472 270.000,192.119 269.190,192.800 268.200 C 193.481 267.210,193.948 266.400,193.838 266.400 C 193.728 266.400,193.081 267.210,192.400 268.200 M95.877 269.231 C 96.275 269.908,96.856 270.673,97.168 270.931 C 97.480 271.189,97.232 270.635,96.615 269.700 C 95.320 267.737,94.809 267.412,95.877 269.231 M291.200 274.000 C 290.730 274.660,290.436 275.200,290.546 275.200 C 290.656 275.200,291.130 274.660,291.600 274.000 C 292.070 273.340,292.364 272.800,292.254 272.800 C 292.144 272.800,291.670 273.340,291.200 274.000 M201.600 274.647 C 201.600 274.867,201.864 275.396,202.187 275.824 C 202.510 276.251,202.775 276.420,202.775 276.200 C 202.775 275.980,202.510 275.451,202.187 275.024 C 201.864 274.596,201.600 274.427,201.600 274.647 M186.036 277.900 C 185.127 279.385,184.816 280.083,185.345 279.452 C 186.375 278.222,188.170 275.200,187.870 275.200 C 187.771 275.200,186.945 276.415,186.036 277.900 M102.000 278.525 C 102.000 278.594,102.585 279.179,103.300 279.825 L 104.600 281.000 103.425 279.700 C 102.330 278.488,102.000 278.216,102.000 278.525 M36.428 280.600 C 36.428 280.820,36.686 281.450,37.000 282.000 C 37.314 282.550,37.572 282.820,37.572 282.600 C 37.572 282.380,37.314 281.750,37.000 281.200 C 36.686 280.650,36.428 280.380,36.428 280.600 M284.863 282.772 C 283.948 283.856,283.200 284.852,283.200 284.986 C 283.200 285.196,284.062 284.239,286.342 281.500 C 286.662 281.115,286.834 280.800,286.725 280.800 C 286.615 280.800,285.777 281.687,284.863 282.772 M207.296 283.568 C 208.012 284.650,208.661 285.473,208.738 285.396 C 208.900 285.233,206.450 281.600,206.178 281.600 C 206.077 281.600,206.580 282.485,207.296 283.568 M182.153 283.700 C 180.776 286.036,180.686 286.235,181.387 285.400 C 182.200 284.432,182.900 283.200,182.638 283.200 C 182.533 283.200,182.315 283.425,182.153 283.700 M210.245 288.212 C 210.610 288.769,210.986 289.147,211.082 289.051 C 211.319 288.814,210.284 287.200,209.895 287.200 C 209.722 287.200,209.880 287.656,210.245 288.212 M279.578 289.100 L 278.200 290.600 279.700 289.222 C 280.525 288.463,281.200 287.788,281.200 287.722 C 281.200 287.416,280.862 287.704,279.578 289.100 M349.681 289.409 C 349.202 290.394,348.894 291.200,348.997 291.200 C 349.268 291.200,350.884 287.951,350.703 287.770 C 350.619 287.686,350.159 288.424,349.681 289.409 M213.298 292.765 C 214.454 294.505,215.460 295.870,215.534 295.797 C 215.697 295.637,211.655 289.600,211.386 289.600 C 211.281 289.600,212.142 291.024,213.298 292.765 M116.355 294.068 C 117.963 295.760,118.455 296.548,118.292 297.169 C 118.173 297.627,118.238 297.900,118.437 297.777 C 119.281 297.256,118.659 296.038,116.500 293.986 L 114.200 291.800 116.355 294.068 M271.277 296.507 C 270.973 296.874,271.072 297.288,271.639 298.007 L 272.422 299.000 271.934 297.871 C 271.531 296.941,271.547 296.679,272.023 296.377 C 272.340 296.177,272.397 296.009,272.149 296.006 C 271.901 296.003,271.509 296.228,271.277 296.507 M216.000 296.541 C 216.000 296.924,217.965 300.000,218.210 300.000 C 218.320 300.000,217.934 299.235,217.351 298.300 C 216.126 296.334,216.000 296.169,216.000 296.541 M343.646 300.404 C 343.152 301.282,342.833 302.000,342.935 302.000 C 343.206 302.000,344.859 299.126,344.687 298.954 C 344.608 298.874,344.139 299.527,343.646 300.404 M46.800 300.161 C 46.800 300.543,49.176 304.000,49.438 304.000 C 49.548 304.000,49.061 303.145,48.354 302.100 C 46.788 299.783,46.800 299.797,46.800 300.161 M275.673 304.200 C 275.923 304.750,276.284 305.200,276.473 305.200 C 276.663 305.200,276.524 304.750,276.163 304.200 C 275.803 303.650,275.443 303.200,275.363 303.200 C 275.283 303.200,275.422 303.650,275.673 304.200 M112.677 305.900 C 111.243 308.204,111.139 308.400,111.342 308.400 C 111.446 308.400,112.085 307.500,112.762 306.400 C 113.439 305.300,113.907 304.400,113.801 304.400 C 113.696 304.400,113.190 305.075,112.677 305.900 M276.800 305.720 C 276.800 306.104,278.845 309.200,279.099 309.200 C 279.278 309.200,278.641 308.119,277.339 306.211 C 277.042 305.777,276.800 305.556,276.800 305.720 M166.396 308.008 C 165.549 309.591,165.719 309.600,195.036 309.600 C 225.215 309.600,225.352 309.592,223.653 307.893 C 223.316 307.556,223.200 307.614,223.200 308.120 C 223.200 308.754,221.272 308.800,194.953 308.800 C 166.904 308.800,166.708 308.794,166.916 308.000 C 167.185 306.973,166.948 306.977,166.396 308.008 M336.799 310.500 C 336.210 311.304,336.113 311.584,336.545 311.233 C 337.201 310.700,338.193 309.200,337.889 309.200 C 337.813 309.200,337.322 309.785,336.799 310.500 M55.564 313.133 C 55.780 313.536,56.271 314.121,56.655 314.433 C 57.087 314.784,56.990 314.504,56.401 313.700 C 55.351 312.265,54.957 311.998,55.564 313.133 M106.800 314.800 C 105.904 316.120,105.260 317.200,105.370 317.200 C 105.480 317.200,106.304 316.120,107.200 314.800 C 108.096 313.480,108.740 312.400,108.630 312.400 C 108.520 312.400,107.696 313.480,106.800 314.800 M334.001 314.198 C 333.486 314.748,333.139 315.264,333.232 315.346 C 333.324 315.428,333.819 314.978,334.330 314.347 C 335.476 312.935,335.274 312.844,334.001 314.198 M57.202 315.222 C 57.201 315.345,57.650 316.055,58.200 316.800 C 58.750 317.545,59.194 317.985,59.186 317.778 C 59.170 317.376,57.205 314.845,57.202 315.222 M331.226 317.707 C 330.087 319.111,330.042 319.229,330.963 318.400 C 331.920 317.538,333.056 315.986,332.714 316.007 C 332.651 316.011,331.982 316.776,331.226 317.707 M104.237 318.600 C 103.876 319.150,103.737 319.600,103.927 319.600 C 104.116 319.600,104.477 319.150,104.727 318.600 C 104.978 318.050,105.117 317.600,105.037 317.600 C 104.957 317.600,104.597 318.050,104.237 318.600 M285.202 318.633 C 285.203 318.835,285.668 319.540,286.235 320.200 L 287.266 321.400 286.363 320.000 C 285.204 318.204,285.200 318.199,285.202 318.633 M62.229 321.638 C 62.873 322.429,63.481 323.008,63.579 322.925 C 63.678 322.842,63.151 322.195,62.409 321.487 L 61.058 320.200 62.229 321.638 M99.600 325.800 C 98.919 326.790,98.452 327.600,98.562 327.600 C 98.672 327.600,99.319 326.790,100.000 325.800 C 100.681 324.810,101.148 324.000,101.038 324.000 C 100.928 324.000,100.281 324.810,99.600 325.800 M66.383 326.100 C 67.364 327.145,68.219 328.000,68.283 328.000 C 68.584 328.000,68.266 327.641,66.500 325.983 L 64.600 324.200 66.383 326.100 M319.601 330.598 C 319.086 331.148,318.739 331.664,318.832 331.746 C 318.924 331.828,319.419 331.378,319.930 330.747 C 321.076 329.335,320.874 329.244,319.601 330.598 M93.698 334.835 C 92.542 336.576,91.681 338.000,91.786 338.000 C 92.055 338.000,96.097 331.963,95.934 331.803 C 95.860 331.730,94.854 333.095,93.698 334.835 M308.770 341.100 L 307.800 342.200 309.000 341.200 C 309.660 340.650,310.275 340.155,310.367 340.100 C 310.458 340.045,310.355 340.000,310.136 340.000 C 309.918 340.000,309.303 340.495,308.770 341.100 M85.484 343.986 C 86.752 345.336,88.400 345.058,88.400 343.494 C 88.400 343.283,88.054 343.536,87.631 344.056 L 86.863 345.000 85.531 343.809 L 84.200 342.618 85.484 343.986 M304.578 344.425 C 304.155 344.892,303.521 345.168,303.115 345.062 C 302.721 344.959,302.500 345.038,302.623 345.237 C 303.014 345.871,303.831 345.632,304.800 344.600 C 305.317 344.050,305.646 343.600,305.532 343.600 C 305.417 343.600,304.988 343.971,304.578 344.425 M254.824 356.900 C 255.141 357.175,255.743 357.760,256.162 358.200 C 256.722 358.788,256.688 358.655,256.035 357.700 C 255.546 356.985,254.943 356.400,254.696 356.400 C 254.432 356.400,254.484 356.606,254.824 356.900 M257.160 359.800 C 257.834 361.105,258.388 361.828,258.385 361.400 C 258.383 361.180,258.014 360.550,257.564 360.000 C 257.021 359.336,256.885 359.269,257.160 359.800 M120.873 377.000 C 120.622 377.550,120.483 378.000,120.563 378.000 C 120.643 378.000,121.003 377.550,121.363 377.000 C 121.724 376.450,121.863 376.000,121.673 376.000 C 121.484 376.000,121.123 376.450,120.873 377.000 M117.200 382.600 C 116.519 383.590,116.052 384.400,116.162 384.400 C 116.272 384.400,116.919 383.590,117.600 382.600 C 118.281 381.610,118.748 380.800,118.638 380.800 C 118.528 380.800,117.881 381.610,117.200 382.600 M111.111 391.821 C 108.661 395.684,108.989 395.670,111.600 391.800 C 112.713 390.150,113.484 388.810,113.312 388.821 C 113.140 388.833,112.150 390.183,111.111 391.821 M276.760 390.600 C 277.434 391.905,277.988 392.628,277.985 392.200 C 277.983 391.980,277.614 391.350,277.164 390.800 C 276.621 390.136,276.485 390.069,276.760 390.600 M281.237 397.600 C 282.396 399.396,282.400 399.401,282.398 398.967 C 282.397 398.765,281.932 398.060,281.365 397.400 L 280.334 396.200 281.237 397.600 M286.237 405.800 C 286.597 406.350,286.957 406.800,287.037 406.800 C 287.117 406.800,286.978 406.350,286.727 405.800 C 286.477 405.250,286.116 404.800,285.927 404.800 C 285.737 404.800,285.876 405.250,286.237 405.800 M288.496 409.168 C 289.212 410.250,289.861 411.073,289.938 410.996 C 290.100 410.833,287.650 407.200,287.378 407.200 C 287.277 407.200,287.780 408.085,288.496 409.168 M97.984 411.623 C 97.505 412.296,97.200 412.933,97.307 413.040 C 97.414 413.147,97.877 412.596,98.337 411.817 C 99.364 410.077,99.163 409.967,97.984 411.623 M96.476 414.300 C 96.619 415.042,292.000 415.642,292.000 414.901 C 292.000 414.735,248.125 414.600,194.500 414.600 C 116.713 414.600,97.020 414.499,97.100 414.100 C 97.155 413.825,97.007 413.600,96.771 413.600 C 96.535 413.600,96.402 413.915,96.476 414.300 " stroke="none" fill="#d3d4d4" fill-rule="evenodd"></path></g></svg>